<svg width="21" height="11" viewBox="0 0 21 11" fill="none" xmlns="http://www.w3.org/2000/svg">
<path d="M3.615 10V0.744H2.289L0.482 2.317V3.76L2.289 2.187V10H3.615ZM12.7826 10V8.817H9.01264L11.9116 5.255C12.5746 4.449 12.7826 3.994 12.7826 3.253C12.7826 1.706 11.7036 0.665999 10.1176 0.665999C8.94764 0.665999 8.03764 1.225 7.62164 2.187C7.47864 2.512 7.43964 2.733 7.41364 3.279H8.73964C8.77864 2.33 9.22064 1.849 10.1046 1.849C10.9366 1.849 11.4566 2.395 11.4566 3.253C11.4566 3.695 11.3136 4.059 10.9626 4.488L7.40064 8.817V10H12.7826ZM20.3773 7.387C20.3773 6.334 19.9873 5.671 19.0773 5.216C19.8833 4.774 20.2343 4.215 20.2343 3.253C20.2343 1.719 19.1293 0.665999 17.5433 0.665999C16.3993 0.665999 15.4633 1.199 15.0473 2.135C14.9043 2.447 14.8653 2.655 14.8133 3.175H16.1393C16.2563 2.304 16.7373 1.849 17.5303 1.849C18.3623 1.849 18.9083 2.408 18.9083 3.292C18.9083 4.176 18.4013 4.683 17.5043 4.683H17.2833V5.84H17.5043C18.4923 5.84 19.0513 6.386 19.0513 7.348C19.0513 8.297 18.4663 8.895 17.5433 8.895C16.6333 8.895 16.1133 8.414 16.0353 7.491H14.7093C14.7613 8.206 14.9043 8.83 15.4373 9.337C15.9443 9.818 16.6853 10.078 17.5303 10.078C19.2593 10.078 20.3773 9.025 20.3773 7.387Z" fill="#00A0AF"/>
</svg>
