<svg width="24" height="24" viewBox="0 0 24 24" fill="none" xmlns="http://www.w3.org/2000/svg">
<path d="M20.1467 7.91573C19.744 7.74853 19.2865 7.83065 18.9677 8.12306L17.1193 9.61785V8.9457C17.1193 8.49314 16.8491 8.08888 16.4311 7.9161C16.0276 7.7489 15.5713 7.83102 15.2521 8.12343L13.4037 9.61785V8.9457C13.4037 8.49314 13.1335 8.08888 12.7155 7.9161C12.3124 7.7489 11.8553 7.83102 11.5365 8.12343L8.85169 10.294L8.20109 4.43831C8.17582 3.64094 7.51928 3 6.7156 3H5.22936C4.42567 3 3.76913 3.64094 3.74386 4.43831L3.00446 11.0926C3.00297 11.1067 3.00483 11.1201 3.00409 11.1338C3.00334 11.1471 3 11.1602 3 11.1743V20.0917C3 20.5019 3.33292 20.8349 3.74312 20.8349H8.24312H13.156C13.156 20.8349 13.9816 20.8043 13.9816 20.0917C13.9816 19.3792 13.156 19.3486 13.156 19.3486L20.8349 12.7431V10.8444V8.9457C20.8349 8.49314 20.5647 8.08888 20.1467 7.91573ZM5.22936 4.48624H6.7156C6.7156 4.51373 6.71708 4.54086 6.72005 4.56835L7.3714 10.4312H4.57318L5.22453 4.56835C5.22787 4.54086 5.22936 4.51373 5.22936 4.48624ZM19.3486 12.7431C19.3486 12.7431 19.3486 13.3351 20.1467 13.3351C20.8349 13.3351 20.8349 12.7431 20.8349 12.7431L13.156 19.3486H8.61468H4.48624V11.9174H8.94495C9.11513 11.9174 9.27973 11.8591 9.412 11.752L11.9174 9.72671V11.1743C11.9174 11.4607 12.082 11.7216 12.3403 11.8449C12.5992 11.969 12.9054 11.9323 13.1276 11.752L15.633 9.72671V11.1743C15.633 11.4607 15.7976 11.7216 16.0559 11.8449C16.3145 11.969 16.621 11.9323 16.8432 11.752L19.3486 9.72671V11.2349V12.7431Z" fill="#A7AEB8"/>
<path d="M20.3046 18.3925C20.6887 18.3925 21 18.0812 21 17.6972C21 17.3131 20.6887 17.0018 20.3046 17.0018H18.3925V15.0897C18.3925 14.7058 18.0812 14.3945 17.6973 14.3945C17.3132 14.3945 17.0019 14.7058 17.0019 15.0897V17.0018H15.0898C14.7058 17.0018 14.3945 17.3131 14.3945 17.6972C14.3945 18.0812 14.7058 18.3925 15.0898 18.3925H17.0019V20.3046C17.0019 20.6887 17.3132 21 17.6973 21C18.0812 21 18.3925 20.6887 18.3925 20.3046V18.3925H20.3046Z" fill="#A7AEB8"/>
</svg>
