<svg width="24" height="24" viewBox="0 0 24 24" fill="none" xmlns="http://www.w3.org/2000/svg">
<path d="M20.4048 20.2H3.6048C3.3248 20.2 3.0648 20.04 2.9048 19.8C2.7648 19.56 2.7648 19.26 2.9048 19L11.3048 4.19999C11.4448 3.93999 11.7048 3.79999 12.0048 3.79999C12.3048 3.79999 12.5648 3.95999 12.7048 4.19999L21.1048 19C21.2448 19.24 21.2448 19.56 21.1048 19.8C20.9448 20.04 20.6848 20.2 20.4048 20.2ZM4.98481 18.6H19.0448L12.0248 6.21998L4.98481 18.6ZM12.8048 13.82V10.1C12.8048 9.65999 12.4448 9.29999 12.0048 9.29999C11.5648 9.29999 11.2048 9.65999 11.2048 10.1V13.82C11.2048 14.26 11.5648 14.62 12.0048 14.62C12.4448 14.62 12.8048 14.26 12.8048 13.82ZM12.7048 17.14C12.8848 16.96 13.0048 16.7 13.0048 16.44C13.0048 16.18 12.9048 15.92 12.7048 15.74C12.5248 15.56 12.2648 15.44 12.0048 15.44C11.7448 15.44 11.4848 15.54 11.3048 15.74C11.1248 15.92 11.0048 16.18 11.0048 16.44C11.0048 16.7 11.1048 16.96 11.3048 17.14C11.4848 17.32 11.7448 17.44 12.0048 17.44C12.2648 17.44 12.5248 17.32 12.7048 17.14Z" fill="#fff"/>
</svg>
