<svg width="24" height="24" viewBox="0 0 24 24" fill="none" xmlns="http://www.w3.org/2000/svg">
<g clip-path="url(#clip0)">
<path d="M10.4345 13.7388H8.26557V11.5699C8.26557 11.2115 7.97495 10.9208 7.61649 10.9208C7.25803 10.9208 6.96741 11.2115 6.96741 11.5699V13.7388H4.79849C4.44003 13.7388 4.14941 14.0295 4.14941 14.3879C4.14941 14.7464 4.44003 15.037 4.79849 15.037H6.96741V17.2059C6.96741 17.5644 7.25803 17.855 7.61649 17.855C7.97495 17.855 8.26557 17.5644 8.26557 17.2059V15.037H10.4345C10.793 15.037 11.0836 14.7464 11.0836 14.3879C11.0836 14.0295 10.793 13.7388 10.4345 13.7388Z" fill="#00A0AF"/>
<path d="M21.3172 13.0548L21.0933 12.831C20.0119 11.7495 18.2548 11.706 17.123 12.7543C17.0456 12.826 17.2444 12.6288 15.1894 14.6839V8.4497C15.1894 7.47531 14.2718 6.6206 13.2257 6.6206H12.42V5.14936H12.8479C13.5421 5.14936 14.1509 4.55255 14.1509 3.87219V1.35973C14.1509 0.717881 13.5937 0 12.8479 0H2.38573C1.63999 0 1.08277 0.717881 1.08277 1.35973V3.87219C1.08277 4.55255 1.69161 5.14936 2.38573 5.14936H2.72711V6.6206H2.0512C1.03864 6.6206 0.000976562 7.45506 0.000976562 8.4497V20.2504C0.000976562 21.2117 1.01652 22.1552 2.0512 22.1552H13.2257C13.5044 22.1552 13.7873 22.088 14.0498 21.9621C15.0947 22.3638 16.2951 22.1279 17.1068 21.3162L21.3172 17.1059C22.434 15.989 22.434 14.1717 21.3172 13.0548ZM17.9602 13.749C18.5645 13.1415 19.5615 13.1353 20.1753 13.7491L20.399 13.9728C20.9865 14.5603 21.0115 15.5067 20.4597 16.1238C20.4118 16.1769 20.5816 16.0055 18.8009 17.7862L16.3619 15.3472L17.9602 13.749ZM8.26591 3.8512V1.29816H9.86044V3.8512H8.26591ZM5.26885 3.8512V1.29816H6.96775V3.8512H5.26885ZM12.8527 1.3731V3.83856C12.8327 3.85821 12.9587 3.8512 11.1586 3.8512V1.29816H12.801C12.8217 1.3172 12.8452 1.35052 12.8527 1.3731ZM2.38093 3.83856V1.3731C2.38842 1.35056 2.41191 1.3172 2.43268 1.29816H3.9707V3.8512C2.29028 3.8512 2.40092 3.85817 2.38093 3.83856ZM4.02526 5.14936H11.1219V6.6206H4.02526V5.14936ZM1.29913 20.2504V8.4497C1.29913 8.25939 1.6782 7.91876 2.0512 7.91876H13.2257C13.5622 7.91876 13.8913 8.22279 13.8913 8.4497V15.9821L12.832 17.0414C11.7905 18.0829 11.7207 19.7334 12.6217 20.8571H2.0512C1.69754 20.8571 1.29913 20.4613 1.29913 20.2504ZM16.1889 20.3983C15.5762 21.011 14.585 21.0096 13.9737 20.3983L13.7499 20.1745C13.1379 19.5624 13.1377 18.5715 13.7499 17.9593C15.2142 16.495 13.9188 17.7905 15.444 16.2652L17.883 18.7041L16.1889 20.3983Z" fill="#00A0AF"/>
</g>
<defs>
<clipPath id="clip0">
<rect width="24" height="24" fill="white"/>
</clipPath>
</defs>
</svg>
