<svg width="24" height="24" viewBox="0 0 24 24" fill="none" xmlns="http://www.w3.org/2000/svg">
<path d="M6.61124 20.4217C5.68098 20.4218 4.78799 20.0561 4.125 19.4036L4.05188 19.3304C3.71877 19.0054 3.45409 18.617 3.27344 18.1881C3.09279 17.7591 2.99982 17.2984 3.00001 16.833C2.99883 16.3291 3.09766 15.83 3.29078 15.3646C3.48389 14.8992 3.76744 14.4768 4.125 14.1217L12.8437 5.49867C13.7296 4.57632 14.9423 4.03885 16.2206 4.00202C17.4989 3.9652 18.7405 4.43197 19.678 5.30179C20.1008 5.72355 20.4355 6.22525 20.6624 6.77764C20.8894 7.33004 21.0041 7.92209 20.9999 8.51927C20.9949 9.18622 20.8581 9.84562 20.5975 10.4596C20.3369 11.0735 19.9575 11.6299 19.4811 12.0967L11.6456 19.8592C11.5969 19.9247 11.5345 19.9788 11.4628 20.0178C11.391 20.0568 11.3117 20.0797 11.2302 20.085C11.1487 20.0902 11.0671 20.0776 10.991 20.0481C10.9148 20.0186 10.846 19.9729 10.7893 19.9142C10.7327 19.8554 10.6894 19.785 10.6627 19.7079C10.636 19.6307 10.6263 19.5487 10.6345 19.4675C10.6426 19.3862 10.6683 19.3078 10.7099 19.2375C10.7514 19.1672 10.8077 19.1068 10.875 19.0605L18.688 11.298C19.0591 10.9358 19.3549 10.5039 19.5586 10.027C19.7623 9.55016 19.8698 9.03778 19.8749 8.51927C19.879 8.07054 19.7935 7.6255 19.6235 7.21019C19.4535 6.79488 19.2024 6.41764 18.8849 6.10054C18.1581 5.4384 17.2003 5.08805 16.2178 5.12487C15.2353 5.16169 14.3064 5.58274 13.6312 6.29741L4.94062 14.9205C4.68452 15.1692 4.48051 15.4663 4.34047 15.7947C4.20044 16.123 4.12719 16.476 4.125 16.833C4.1238 17.1464 4.18483 17.457 4.30457 17.7466C4.4243 18.0363 4.60034 18.2993 4.8225 18.5205L4.89562 18.5936C5.39892 19.057 6.06407 19.3043 6.74789 19.2822C7.43171 19.2602 8.07952 18.9704 8.55185 18.4755L16.0612 11.0505C16.2032 10.9069 16.3151 10.7365 16.3905 10.5491C16.4658 10.3617 16.503 10.1612 16.4999 9.95926C16.5012 9.78387 16.4675 9.60999 16.4008 9.44775C16.3342 9.28551 16.2359 9.13816 16.1118 9.01427C15.8277 8.75378 15.4526 8.61545 15.0675 8.62913C14.6823 8.64281 14.3179 8.80741 14.0531 9.08739L8.8781 14.2174C8.77218 14.3225 8.62881 14.3813 8.47955 14.3808C8.33028 14.3803 8.18734 14.3205 8.08216 14.2145C7.97699 14.1086 7.9182 13.9653 7.91873 13.816C7.91925 13.6667 7.97906 13.5238 8.08498 13.4186L13.2824 8.27177C13.7589 7.78371 14.4081 7.5025 15.09 7.48882C15.7719 7.47514 16.4318 7.73008 16.9274 8.19865C17.1553 8.43068 17.3345 8.706 17.4543 9.00839C17.5741 9.31077 17.6321 9.63409 17.6249 9.95926C17.6243 10.3094 17.5539 10.656 17.4177 10.9785C17.2815 11.3011 17.0823 11.5933 16.8318 11.838L9.34497 19.2854C8.61929 20.01 7.63669 20.4184 6.61124 20.4217Z" fill="#A7AEB8"/>
</svg>
