<svg width="24" height="24" viewBox="0 0 24 24" fill="none" xmlns="http://www.w3.org/2000/svg">
<path d="M14.5 4.5C14.5 4.00554 14.3534 3.5222 14.0787 3.11107C13.804 2.69995 13.4135 2.37952 12.9567 2.1903C12.4999 2.00108 11.9972 1.95157 11.5123 2.04804C11.0273 2.1445 10.5819 2.3826 10.2322 2.73223C9.8826 3.08186 9.6445 3.52732 9.54804 4.01227C9.45157 4.49722 9.50108 4.99989 9.6903 5.4567C9.87952 5.91352 10.2 6.30397 10.6111 6.57867C11.0222 6.85337 11.5055 6.99999 12 6.99999C12.6628 6.99922 13.2982 6.73558 13.7669 6.26691C14.2356 5.79824 14.4992 5.1628 14.5 4.5ZM12 5.33333C11.8352 5.33333 11.6741 5.28446 11.537 5.19289C11.4 5.10132 11.2932 4.97117 11.2301 4.8189C11.167 4.66663 11.1505 4.49907 11.1827 4.33742C11.2148 4.17577 11.2942 4.02729 11.4107 3.91074C11.5273 3.7942 11.6758 3.71483 11.8374 3.68268C11.9991 3.65052 12.1666 3.66703 12.3189 3.7301C12.4712 3.79317 12.6013 3.89998 12.6929 4.03702C12.7845 4.17406 12.8333 4.33518 12.8333 4.5C12.8331 4.72093 12.7452 4.93275 12.589 5.08898C12.4328 5.2452 12.2209 5.33308 12 5.33333Z" fill="#1A1E32"/>
<path d="M15.3327 9.5C15.3319 8.83719 15.0682 8.20176 14.5996 7.73308C14.1309 7.26441 13.4955 7.00077 12.8327 7H11.166C10.5032 7.00074 9.86775 7.26438 9.39907 7.73305C8.93039 8.20173 8.66676 8.83718 8.66602 9.5V11.1667C8.66602 11.3877 8.75381 11.5996 8.91009 11.7559C9.06637 11.9122 9.27833 12 9.49935 12H14.4993C14.7203 12 14.9323 11.9122 15.0886 11.7559C15.2449 11.5996 15.3327 11.3877 15.3327 11.1667V9.5ZM13.666 10.3333H10.3327V9.5C10.3329 9.27906 10.4208 9.06724 10.577 8.91102C10.7333 8.75479 10.9451 8.66691 11.166 8.66666H12.8327C13.0536 8.66691 13.2654 8.75479 13.4216 8.91102C13.5779 9.06724 13.6658 9.27906 13.666 9.5V10.3333Z" fill="#1A1E32"/>
<path d="M21.166 14.5C21.166 14.0055 21.0194 13.5222 20.7447 13.1111C20.47 12.7 20.0795 12.3795 19.6227 12.1903C19.1659 12.0011 18.6632 11.9516 18.1783 12.048C17.6933 12.1445 17.2479 12.3826 16.8982 12.7322C16.5486 13.0819 16.3105 13.5273 16.2141 14.0123C16.1176 14.4972 16.1671 14.9999 16.3563 15.4567C16.5455 15.9135 16.866 16.304 17.2771 16.5787C17.6882 16.8534 18.1716 17 18.666 17C19.3288 16.9992 19.9643 16.7356 20.4329 16.2669C20.9016 15.7982 21.1652 15.1628 21.166 14.5ZM18.666 15.3333C18.5012 15.3333 18.3401 15.2845 18.203 15.1929C18.066 15.1013 17.9592 14.9712 17.8961 14.8189C17.833 14.6666 17.8165 14.4991 17.8487 14.3374C17.8808 14.1758 17.9602 14.0273 18.0768 13.9107C18.1933 13.7942 18.3418 13.7148 18.5034 13.6827C18.6651 13.6505 18.8326 13.667 18.9849 13.7301C19.1372 13.7932 19.2673 13.9 19.3589 14.037C19.4505 14.1741 19.4993 14.3352 19.4993 14.5C19.4991 14.7209 19.4112 14.9328 19.255 15.089C19.0988 15.2452 18.887 15.3331 18.666 15.3333Z" fill="#1A1E32"/>
<path d="M19.5006 17H17.834C17.1712 17.0008 16.5357 17.2644 16.0671 17.7331C15.5984 18.2018 15.3348 18.8372 15.334 19.5V21.1667C15.334 21.3877 15.4218 21.5996 15.5781 21.7559C15.7343 21.9122 15.9463 22 16.1673 22H21.1673C21.3883 22 21.6003 21.9122 21.7566 21.7559C21.9128 21.5996 22.0006 21.3877 22.0006 21.1667V19.5C21.9999 18.8372 21.7362 18.2018 21.2675 17.7331C20.7989 17.2644 20.1634 17.0008 19.5006 17ZM20.334 20.3333H17.0006V19.5C17.0009 19.2791 17.0888 19.0672 17.245 18.911C17.4012 18.7548 17.613 18.6669 17.834 18.6667H19.5006C19.7216 18.6669 19.9334 18.7548 20.0896 18.911C20.2458 19.0672 20.3337 19.2791 20.334 19.5V20.3333Z" fill="#1A1E32"/>
<path d="M7.83398 14.5C7.83398 14.0055 7.68736 13.5222 7.41265 13.1111C7.13795 12.7 6.7475 12.3795 6.29069 12.1903C5.83387 12.0011 5.33121 11.9516 4.84626 12.048C4.36131 12.1445 3.91585 12.3826 3.56622 12.7322C3.21659 13.0819 2.97849 13.5273 2.88202 14.0123C2.78556 14.4972 2.83507 14.9999 3.02429 15.4567C3.21351 15.9135 3.53394 16.304 3.94506 16.5787C4.35618 16.8534 4.83953 17 5.33398 17C5.99679 16.9992 6.63225 16.7356 7.10092 16.2669C7.5696 15.7983 7.83323 15.1628 7.83398 14.5ZM5.33398 15.3333C5.16916 15.3333 5.00805 15.2845 4.87101 15.1929C4.73397 15.1013 4.62716 14.9712 4.56408 14.8189C4.50101 14.6666 4.48451 14.4991 4.51666 14.3374C4.54882 14.1758 4.62818 14.0273 4.74473 13.9107C4.86127 13.7942 5.00976 13.7148 5.17141 13.6827C5.33306 13.6505 5.50061 13.667 5.65288 13.7301C5.80516 13.7932 5.9353 13.9 6.02687 14.037C6.11844 14.1741 6.16731 14.3352 6.16731 14.5C6.16707 14.7209 6.07919 14.9328 5.92296 15.089C5.76674 15.2452 5.55492 15.3331 5.33398 15.3333Z" fill="#1A1E32"/>
<path d="M6.16666 17H4.5C3.83718 17.0007 3.20173 17.2644 2.73305 17.7331C2.26438 18.2017 2.00074 18.8372 2 19.5L2 21.1667C2 21.3877 2.0878 21.5996 2.24408 21.7559C2.40036 21.9122 2.61232 22 2.83333 22H7.83332C8.05434 22 8.2663 21.9122 8.42258 21.7559C8.57886 21.5996 8.66666 21.3877 8.66666 21.1667V19.5C8.66591 18.8372 8.40228 18.2017 7.9336 17.7331C7.46492 17.2644 6.82947 17.0007 6.16666 17ZM6.99999 20.3333H3.66666V19.5C3.66691 19.2791 3.75479 19.0672 3.91102 18.911C4.06724 18.7548 4.27906 18.6669 4.5 18.6667H6.16666C6.3876 18.6669 6.59941 18.7548 6.75564 18.911C6.91187 19.0672 6.99974 19.2791 6.99999 19.5V20.3333Z" fill="#1A1E32"/>
<path d="M12.8326 12.8333H11.166V15.7206L9.03711 17.1399L9.96159 18.5266L11.9993 17.1681L14.0371 18.5266L14.9616 17.1399L12.8326 15.7206V12.8333Z" fill="#1A1E32"/>
</svg>
