<svg width="24" height="24" viewBox="0 0 24 24" fill="none" xmlns="http://www.w3.org/2000/svg">
<path d="M14.5 4.49994C14.5 4.00548 14.3534 3.52214 14.0787 3.11101C13.804 2.69989 13.4135 2.37946 12.9567 2.19024C12.4999 2.00102 11.9972 1.95151 11.5123 2.04798C11.0273 2.14444 10.5819 2.38254 10.2322 2.73217C9.8826 3.0818 9.6445 3.52726 9.54804 4.01221C9.45157 4.49716 9.50108 4.99983 9.6903 5.45664C9.87952 5.91346 10.2 6.3039 10.6111 6.57861C11.0222 6.85331 11.5055 6.99993 12 6.99993C12.6628 6.99916 13.2982 6.73552 13.7669 6.26685C14.2356 5.79818 14.4992 5.16274 14.5 4.49994ZM12 5.33327C11.8352 5.33327 11.6741 5.28439 11.537 5.19283C11.4 5.10126 11.2932 4.97111 11.2301 4.81884C11.167 4.66657 11.1505 4.49901 11.1827 4.33736C11.2148 4.17571 11.2942 4.02723 11.4107 3.91068C11.5273 3.79414 11.6758 3.71477 11.8374 3.68262C11.9991 3.65046 12.1666 3.66697 12.3189 3.73004C12.4712 3.79311 12.6013 3.89992 12.6929 4.03696C12.7845 4.174 12.8333 4.33512 12.8333 4.49994C12.8331 4.72087 12.7452 4.93269 12.589 5.08892C12.4328 5.24514 12.2209 5.33302 12 5.33327Z" fill="#fff"/>
<path d="M15.3336 9.5C15.3329 8.83719 15.0692 8.20176 14.6006 7.73308C14.1319 7.26441 13.4964 7.00077 12.8336 7H11.167C10.5042 7.00074 9.86872 7.26438 9.40004 7.73305C8.93137 8.20173 8.66774 8.83718 8.66699 9.5V11.1667C8.66699 11.3877 8.75479 11.5996 8.91107 11.7559C9.06735 11.9122 9.27931 12 9.50032 12H14.5003C14.7213 12 14.9333 11.9122 15.0896 11.7559C15.2458 11.5996 15.3336 11.3877 15.3336 11.1667V9.5ZM13.667 10.3333H10.3337V9.5C10.3339 9.27906 10.4218 9.06724 10.578 8.91102C10.7342 8.75479 10.946 8.66691 11.167 8.66666H12.8336C13.0546 8.66691 13.2664 8.75479 13.4226 8.91102C13.5789 9.06724 13.6667 9.27906 13.667 9.5V10.3333Z" fill="#fff"/>
<path d="M21.167 14.4999C21.167 14.0055 21.0204 13.5221 20.7457 13.111C20.471 12.6999 20.0805 12.3795 19.6237 12.1902C19.1669 12.001 18.6642 11.9515 18.1793 12.048C17.6943 12.1444 17.2489 12.3825 16.8992 12.7322C16.5496 13.0818 16.3115 13.5273 16.215 14.0122C16.1186 14.4972 16.1681 14.9998 16.3573 15.4566C16.5465 15.9135 16.8669 16.3039 17.2781 16.5786C17.6892 16.8533 18.1725 16.9999 18.667 16.9999C19.3298 16.9992 19.9652 16.7355 20.4339 16.2668C20.9026 15.7982 21.1662 15.1627 21.167 14.4999ZM18.667 15.3333C18.5022 15.3333 18.3411 15.2844 18.204 15.1928C18.067 15.1013 17.9602 14.9711 17.8971 14.8188C17.834 14.6666 17.8175 14.499 17.8497 14.3374C17.8818 14.1757 17.9612 14.0272 18.0777 13.9107C18.1943 13.7941 18.3428 13.7148 18.5044 13.6826C18.6661 13.6505 18.8336 13.667 18.9859 13.73C19.1382 13.7931 19.2683 13.8999 19.3599 14.037C19.4514 14.174 19.5003 14.3351 19.5003 14.4999C19.5001 14.7209 19.4122 14.9327 19.256 15.0889C19.0997 15.2451 18.8879 15.333 18.667 15.3333Z" fill="#fff"/>
<path d="M19.4997 17H17.833C17.1702 17.0008 16.5348 17.2644 16.0661 17.7331C15.5974 18.2018 15.3338 18.8372 15.333 19.5V21.1667C15.333 21.3877 15.4208 21.5996 15.5771 21.7559C15.7334 21.9122 15.9453 22 16.1663 22H21.1663C21.3873 22 21.5993 21.9122 21.7556 21.7559C21.9119 21.5996 21.9997 21.3877 21.9997 21.1667V19.5C21.9989 18.8372 21.7352 18.2018 21.2666 17.7331C20.7979 17.2644 20.1625 17.0008 19.4997 17ZM20.333 20.3333H16.9997V19.5C16.9999 19.2791 17.0878 19.0672 17.244 18.911C17.4002 18.7548 17.6121 18.6669 17.833 18.6667H19.4997C19.7206 18.6669 19.9324 18.7548 20.0886 18.911C20.2449 19.0672 20.3327 19.2791 20.333 19.5V20.3333Z" fill="#fff"/>
<path d="M7.833 14.4999C7.833 14.0055 7.68638 13.5221 7.41168 13.111C7.13697 12.6999 6.74653 12.3795 6.28971 12.1902C5.8329 12.001 5.33023 11.9515 4.84528 12.048C4.36033 12.1444 3.91487 12.3825 3.56524 12.7322C3.21561 13.0818 2.97751 13.5273 2.88105 14.0122C2.78458 14.4972 2.83409 14.9998 3.02331 15.4566C3.21253 15.9135 3.53296 16.3039 3.94408 16.5786C4.3552 16.8533 4.83855 16.9999 5.33301 16.9999C5.99582 16.9992 6.63127 16.7356 7.09995 16.2669C7.56863 15.7982 7.83226 15.1627 7.833 14.4999ZM5.33301 15.3333C5.16819 15.3333 5.00707 15.2844 4.87003 15.1928C4.73299 15.1013 4.62618 14.9711 4.56311 14.8188C4.50003 14.6666 4.48353 14.499 4.51569 14.3374C4.54784 14.1757 4.62721 14.0272 4.74375 13.9107C4.86029 13.7941 5.00878 13.7148 5.17043 13.6826C5.33208 13.6505 5.49964 13.667 5.65191 13.73C5.80418 13.7931 5.93433 13.8999 6.0259 14.037C6.11746 14.174 6.16634 14.3351 6.16634 14.4999C6.16609 14.7209 6.07821 14.9327 5.92199 15.0889C5.76576 15.2451 5.55394 15.333 5.33301 15.3333Z" fill="#fff"/>
<path d="M6.16666 17H4.5C3.83718 17.0007 3.20173 17.2644 2.73305 17.7331C2.26438 18.2017 2.00074 18.8372 2 19.5L2 21.1667C2 21.3877 2.0878 21.5996 2.24408 21.7559C2.40036 21.9122 2.61232 22 2.83333 22H7.83332C8.05434 22 8.2663 21.9122 8.42258 21.7559C8.57886 21.5996 8.66666 21.3877 8.66666 21.1667V19.5C8.66591 18.8372 8.40228 18.2017 7.9336 17.7331C7.46492 17.2644 6.82947 17.0007 6.16666 17ZM6.99999 20.3333H3.66666V19.5C3.66691 19.2791 3.75479 19.0672 3.91102 18.911C4.06724 18.7548 4.27906 18.6669 4.5 18.6667H6.16666C6.3876 18.6669 6.59941 18.7548 6.75564 18.911C6.91187 19.0672 6.99974 19.2791 6.99999 19.5V20.3333Z" fill="#fff"/>
<path d="M12.8336 12.8334H11.1669V15.7208L9.03809 17.14L9.96256 18.5267L12.0003 17.1683L14.0381 18.5267L14.9625 17.14L12.8336 15.7208V12.8334Z" fill="#fff"/>
</svg>
