<svg width="24" height="24" viewBox="0 0 24 24" fill="none" xmlns="http://www.w3.org/2000/svg">
<path d="M20.3336 20.3334V11.1665C20.3336 10.9455 20.2458 10.7336 20.0895 10.5773C19.9333 10.421 19.7213 10.3332 19.5003 10.3332H16.1669C15.9459 10.3332 15.7339 10.421 15.5776 10.5773C15.4213 10.7336 15.3335 10.9455 15.3335 11.1665V20.3334H14.5002V14.4999C14.5002 14.2789 14.4124 14.0669 14.2561 13.9107C14.0998 13.7544 13.8879 13.6666 13.6669 13.6666H10.3335C10.1124 13.6666 9.90048 13.7544 9.7442 13.9107C9.58792 14.0669 9.50012 14.2789 9.50012 14.4999V20.3334H8.66677V16.1666C8.66677 15.9456 8.57897 15.7336 8.42269 15.5774C8.26641 15.4211 8.05444 15.3333 7.83343 15.3333H4.50004C4.27902 15.3333 4.06706 15.4211 3.91077 15.5774C3.75449 15.7336 3.66669 15.9456 3.66669 16.1666V20.3334H2V22H22.0003V20.3334H20.3336ZM5.33339 20.3334V17H7.00008V20.3334H5.33339ZM11.1668 20.3334V15.3333H12.8335V20.3334H11.1668ZM17.0002 20.3334V11.9999H18.6669V20.3334H17.0002Z" fill="#fff"/>
<path d="M20.008 4.96687L20.3585 6.36877L21.9754 5.9646L21.1421 2.63121C21.0885 2.41682 20.9519 2.2325 20.7624 2.11879C20.5729 2.00508 20.346 1.97129 20.1316 2.02485L16.7983 2.8582L17.2024 4.4751L18.5517 4.1378C13.8295 10.9645 5.82537 12.8335 2 12.8335V14.5002C4.04555 14.5002 7.45207 13.9616 10.8782 12.45C14.7309 10.7501 17.7935 8.23755 20.008 4.96687Z" fill="#fff"/>
</svg>
