<svg width="16" height="16" viewBox="0 0 16 16" fill="none" xmlns="http://www.w3.org/2000/svg">
<path d="M12.3362 3.66671C9.94954 1.28004 6.05621 1.28004 3.65621 3.66671C1.26954 6.05338 1.26954 9.94671 3.65621 12.3467C4.85621 13.5467 6.42954 14.1467 7.98954 14.1467C9.56288 14.1467 11.1362 13.5467 12.3229 12.3467C14.7362 9.94671 14.7362 6.05338 12.3362 3.66671ZM4.41621 11.5867C2.56288 9.73338 2.44288 6.80004 4.05621 4.81337L11.1895 11.9467C9.20288 13.5467 6.26954 13.44 4.41621 11.5867ZM11.9495 11.1867L4.81621 4.05338C5.73621 3.30671 6.86954 2.93338 8.00288 2.93338C9.29621 2.93338 10.6029 3.42671 11.5895 4.41337C13.4429 6.26671 13.5495 9.20005 11.9495 11.1867Z" fill="#EB5757"/>
</svg>
