<svg width="19" height="19" viewBox="0 0 19 19" fill="none" xmlns="http://www.w3.org/2000/svg">
<g clip-path="url(#clip0)">
<path d="M15.6451 0H2.62723C1.72998 0 1 0.729976 1 1.62723V16.8871C1 17.7843 1.72998 18.5143 2.62723 18.5143H15.6451C16.5423 18.5143 17.2723 17.7843 17.2723 16.8871V1.62723C17.2723 0.729976 16.5423 0 15.6451 0ZM16.1875 16.8871C16.1875 17.1861 15.9442 17.4295 15.6451 17.4295H2.62723C2.32815 17.4295 2.08482 17.1861 2.08482 16.8871V1.62723C2.08482 1.32815 2.32815 1.08482 2.62723 1.08482H15.6451C15.9442 1.08482 16.1875 1.32815 16.1875 1.62723V16.8871Z" fill="#00A0AF"/>
<path d="M14.3906 2H3.54241C3.24286 2 3 2.24286 3 2.54241V6.95402C3 7.25357 3.24286 7.49643 3.54241 7.49643H14.3906C14.6902 7.49643 14.933 7.25357 14.933 6.95402V2.54241C14.933 2.24286 14.6902 2 14.3906 2ZM13.8482 6.41161H4.08482V3.08482H13.8482V6.41161Z" fill="#00A0AF"/>
<path d="M5.71205 9H3.54241C3.24286 9 3 9.24286 3 9.54241V11.7121C3 12.0116 3.24286 12.2545 3.54241 12.2545H5.71205C6.01161 12.2545 6.25446 12.0116 6.25446 11.7121V9.54241C6.25446 9.24286 6.01161 9 5.71205 9ZM5.16964 11.1696H4.08482V10.0848H5.16964V11.1696Z" fill="#00A0AF"/>
<path d="M5.71205 13H3.54241C3.24286 13 3 13.2429 3 13.5424V15.7121C3 16.0116 3.24286 16.2545 3.54241 16.2545H5.71205C6.01161 16.2545 6.25446 16.0116 6.25446 15.7121V13.5424C6.25446 13.2429 6.01161 13 5.71205 13ZM5.16964 15.1696H4.08482V14.0848H5.16964V15.1696Z" fill="#00A0AF"/>
<path d="M10.7121 9H8.54241C8.24286 9 8 9.24286 8 9.54241V11.7121C8 12.0116 8.24286 12.2545 8.54241 12.2545H10.7121C11.0116 12.2545 11.2545 12.0116 11.2545 11.7121V9.54241C11.2545 9.24286 11.0116 9 10.7121 9ZM10.1696 11.1696H9.08482V10.0848H10.1696V11.1696Z" fill="#00A0AF"/>
<path d="M10.7121 13H8.54241C8.24286 13 8 13.2429 8 13.5424V15.7121C8 16.0116 8.24286 16.2545 8.54241 16.2545H10.7121C11.0116 16.2545 11.2545 16.0116 11.2545 15.7121V13.5424C11.2545 13.2429 11.0116 13 10.7121 13ZM10.1696 15.1696H9.08482V14.0848H10.1696V15.1696Z" fill="#00A0AF"/>
<path d="M14.7121 9H12.5424C12.2429 9 12 9.24286 12 9.54241V16.0513C12 16.3509 12.2429 16.5938 12.5424 16.5938H14.7121C15.0116 16.5938 15.2545 16.3509 15.2545 16.0513V9.54241C15.2545 9.24286 15.0116 9 14.7121 9ZM14.1696 15.5089H13.0848V10.0848H14.1696V15.5089Z" fill="#00A0AF"/>
</g>
<defs>
<clipPath id="clip0">
<rect width="18.5143" height="18.5143" fill="white"/>
</clipPath>
</defs>
</svg>
