<svg width="24" height="24" viewBox="0 0 24 24" fill="none" xmlns="http://www.w3.org/2000/svg">
<path d="M9.83245 3.75H5.31272C4.45082 3.75 3.75 4.45082 3.75 5.31272V9.83245C3.75 10.6943 4.45082 11.3952 5.31272 11.3952H9.83245C10.6943 11.3952 11.3952 10.6943 11.3952 9.83245V5.31272C11.3952 4.45082 10.6943 3.75 9.83245 3.75ZM10.3967 9.83245C10.3967 10.1433 10.1433 10.3967 9.83245 10.3967H5.31272C5.00184 10.3967 4.7485 10.1433 4.7485 9.83245V5.31272C4.7485 5.00184 5.00184 4.7485 5.31272 4.7485H9.83245C10.1433 4.7485 10.3967 5.00184 10.3967 5.31272V9.83245Z" fill="#1A1E32" stroke="#1A1E32" stroke-width="0.5"/>
<path d="M18.6879 3.75H14.1682C13.3063 3.75 12.6055 4.45082 12.6055 5.31272V9.83245C12.6055 10.6943 13.3063 11.3952 14.1682 11.3952H18.6879C19.5498 11.3952 20.2506 10.6943 20.2506 9.83245V5.31272C20.2506 4.45082 19.5498 3.75 18.6879 3.75ZM19.2521 9.83245C19.2521 10.1433 18.9988 10.3967 18.6879 10.3967H14.1682C13.8573 10.3967 13.604 10.1433 13.604 9.83245V5.31272C13.604 5.00184 13.8573 4.7485 14.1682 4.7485H18.6879C18.9988 4.7485 19.2521 5.00184 19.2521 5.31272V9.83245Z" fill="#1A1E32" stroke="#1A1E32" stroke-width="0.5"/>
<path d="M9.83245 12.6047H5.31272C4.45082 12.6047 3.75 13.3056 3.75 14.1675V18.6872C3.75 19.5491 4.45082 20.2499 5.31272 20.2499H9.83245C10.6943 20.2499 11.3952 19.5491 11.3952 18.6872V14.1675C11.3952 13.3056 10.6943 12.6047 9.83245 12.6047ZM10.3967 18.6872C10.3967 18.9981 10.1433 19.2514 9.83245 19.2514H5.31272C5.00184 19.2514 4.7485 18.9981 4.7485 18.6872V14.1675C4.7485 13.8566 5.00184 13.6032 5.31272 13.6032H9.83245C10.1433 13.6032 10.3967 13.8566 10.3967 14.1675V18.6872Z" fill="#1A1E32" stroke="#1A1E32" stroke-width="0.5"/>
<path d="M18.6879 12.6047H14.1682C13.3063 12.6047 12.6055 13.3056 12.6055 14.1675V18.6872C12.6055 19.5491 13.3063 20.2499 14.1682 20.2499H18.6879C19.5498 20.2499 20.2506 19.5491 20.2506 18.6872V14.1675C20.2506 13.3056 19.5498 12.6047 18.6879 12.6047ZM19.2521 18.6872C19.2521 18.9981 18.9988 19.2514 18.6879 19.2514H14.1682C13.8573 19.2514 13.604 18.9981 13.604 18.6872V14.1675C13.604 13.8566 13.8573 13.6032 14.1682 13.6032H18.6879C18.9988 13.6032 19.2521 13.8566 19.2521 14.1675V18.6872Z" fill="#1A1E32" stroke="#1A1E32" stroke-width="0.5"/>
</svg>
