<svg width="24" height="24" viewBox="0 0 24 24" fill="none" xmlns="http://www.w3.org/2000/svg">
<path d="M9.83245 3.75H5.31272C4.45082 3.75 3.75 4.45082 3.75 5.31272V9.83245C3.75 10.6943 4.45082 11.3952 5.31272 11.3952H9.83245C10.6943 11.3952 11.3952 10.6943 11.3952 9.83245V5.31272C11.3952 4.45082 10.6943 3.75 9.83245 3.75ZM10.3967 9.83245C10.3967 10.1433 10.1433 10.3967 9.83245 10.3967H5.31272C5.00184 10.3967 4.7485 10.1433 4.7485 9.83245V5.31272C4.7485 5.00184 5.00184 4.7485 5.31272 4.7485H9.83245C10.1433 4.7485 10.3967 5.00184 10.3967 5.31272V9.83245Z" fill="#fff" stroke="#fff" stroke-width="0.5"/>
<path d="M18.6869 3.75H14.1672C13.3053 3.75 12.6045 4.45082 12.6045 5.31272V9.83245C12.6045 10.6943 13.3053 11.3952 14.1672 11.3952H18.6869C19.5488 11.3952 20.2497 10.6943 20.2497 9.83245V5.31272C20.2497 4.45082 19.5488 3.75 18.6869 3.75ZM19.2512 9.83245C19.2512 10.1433 18.9978 10.3967 18.6869 10.3967H14.1672C13.8563 10.3967 13.603 10.1433 13.603 9.83245V5.31272C13.603 5.00184 13.8563 4.7485 14.1672 4.7485H18.6869C18.9978 4.7485 19.2512 5.00184 19.2512 5.31272V9.83245Z" fill="#fff" stroke="#fff" stroke-width="0.5"/>
<path d="M9.83245 12.6049H5.31272C4.45082 12.6049 3.75 13.3057 3.75 14.1676V18.6873C3.75 19.5492 4.45082 20.25 5.31272 20.25H9.83245C10.6943 20.25 11.3952 19.5492 11.3952 18.6873V14.1676C11.3952 13.3057 10.6943 12.6049 9.83245 12.6049ZM10.3967 18.6873C10.3967 18.9982 10.1433 19.2515 9.83245 19.2515H5.31272C5.00184 19.2515 4.7485 18.9982 4.7485 18.6873V14.1676C4.7485 13.8567 5.00184 13.6034 5.31272 13.6034H9.83245C10.1433 13.6034 10.3967 13.8567 10.3967 14.1676V18.6873Z" fill="#fff" stroke="#fff" stroke-width="0.5"/>
<path d="M18.6869 12.6049H14.1672C13.3053 12.6049 12.6045 13.3057 12.6045 14.1676V18.6873C12.6045 19.5492 13.3053 20.25 14.1672 20.25H18.6869C19.5488 20.25 20.2497 19.5492 20.2497 18.6873V14.1676C20.2497 13.3057 19.5488 12.6049 18.6869 12.6049ZM19.2512 18.6873C19.2512 18.9982 18.9978 19.2515 18.6869 19.2515H14.1672C13.8563 19.2515 13.603 18.9982 13.603 18.6873V14.1676C13.603 13.8567 13.8563 13.6034 14.1672 13.6034H18.6869C18.9978 13.6034 19.2512 13.8567 19.2512 14.1676V18.6873Z" fill="#fff" stroke="#fff" stroke-width="0.5"/>
</svg>
