<svg width="24" height="24" viewBox="0 0 24 24" fill="none" xmlns="http://www.w3.org/2000/svg">
<path d="M12.94 11.9999L17.8 7.13993C17.9092 7.0124 17.9663 6.84835 17.9598 6.68056C17.9533 6.51278 17.8838 6.35362 17.7651 6.23489C17.6463 6.11616 17.4872 6.0466 17.3194 6.04012C17.1516 6.03364 16.9876 6.09071 16.86 6.19993L12 11.0599L7.14002 6.19326C7.01249 6.08405 6.84844 6.02698 6.68065 6.03346C6.51287 6.03994 6.35371 6.10949 6.23498 6.22822C6.11625 6.34695 6.0467 6.50611 6.04022 6.67389C6.03373 6.84168 6.09081 7.00573 6.20002 7.13326L11.06 11.9999L6.19336 16.8599C6.12357 16.9197 6.06689 16.9932 6.02687 17.076C5.98686 17.1587 5.96437 17.2487 5.96082 17.3406C5.95728 17.4324 5.97275 17.5239 6.00626 17.6095C6.03978 17.695 6.09062 17.7727 6.15559 17.8377C6.22056 17.9027 6.29826 17.9535 6.38381 17.987C6.46936 18.0205 6.56091 18.036 6.65273 18.0325C6.74454 18.0289 6.83463 18.0064 6.91734 17.9664C7.00005 17.9264 7.07359 17.8697 7.13336 17.7999L12 12.9399L16.86 17.7999C16.9876 17.9091 17.1516 17.9662 17.3194 17.9597C17.4872 17.9533 17.6463 17.8837 17.7651 17.765C17.8838 17.6462 17.9533 17.4871 17.9598 17.3193C17.9663 17.1515 17.9092 16.9875 17.8 16.8599L12.94 11.9999Z" fill="#FFF"/>
</svg>
