<svg width="26" height="17" viewBox="0 0 26 17" fill="none" xmlns="http://www.w3.org/2000/svg">
<mask id="path-1-outside-1" maskUnits="userSpaceOnUse" x="0" y="0" width="26" height="17" fill="black">
<rect fill="white" width="26" height="17"/>
<path d="M2.98865 9.2539C3.01594 9.2539 3.04367 9.25077 3.07139 9.24431C3.26587 9.19879 3.38661 9.00422 3.34109 8.80975C3.30709 8.66455 3.2364 8.36245 3.33574 8.23255C3.40653 8.13996 3.59459 8.08379 3.8652 8.07429C4.93979 8.03658 5.26933 7.54 5.58797 7.05978C5.75872 6.80247 5.93526 6.53644 6.25674 6.28728C6.57331 6.04199 6.709 6.03741 6.73099 6.03866C6.75095 6.05988 6.89234 6.24109 6.84011 7.03813C6.81268 7.4562 6.8934 7.76341 7.08686 7.97717C7.35752 8.27628 7.75177 8.28974 8.06853 8.30059C8.21107 8.30546 8.3457 8.31008 8.4433 8.33728C8.7509 8.42292 9.02079 8.39587 9.23759 8.37412C9.37121 8.36072 9.50936 8.34688 9.53868 8.37894C9.68315 8.53653 9.84811 8.61301 10.0291 8.60896C10.3704 8.59955 10.6016 8.31766 10.9516 7.89095C10.9837 7.85194 11.0169 7.81148 11.0514 7.76963C11.0704 7.74668 11.084 7.73453 11.0918 7.72855C11.1417 7.73973 11.2526 7.80715 11.3277 7.85281C11.5951 8.01531 11.9992 8.26095 12.5025 8.04531C13.0564 7.80796 13.1996 7.63201 13.4709 7.25661C13.5691 7.12077 13.6913 6.95167 13.8773 6.72995C14.2049 6.33936 14.6789 6.2258 14.8745 6.31626C14.9055 6.33059 14.9997 6.37418 14.9551 6.6351C14.8914 7.00804 14.9633 7.28873 15.1688 7.46926C15.5247 7.78207 16.0797 7.61166 16.4849 7.4872C16.5776 7.45875 16.6827 7.42649 16.7286 7.4196C16.7637 7.41646 16.8692 7.44216 16.9391 7.45943C17.2897 7.54603 18.0193 7.72594 18.3814 6.69142C18.6257 5.99333 18.8045 5.96705 19.3356 5.88908C19.392 5.88078 19.4504 5.8722 19.5109 5.86251C20.6887 5.67406 20.9087 4.90292 21.0855 4.28324C21.1357 4.10728 21.1831 3.94112 21.249 3.78898C21.3567 3.5405 21.5556 3.41296 21.8073 3.25151C22.1307 3.04412 22.5332 2.78604 22.7027 2.20942C22.7841 1.93292 23.017 1.77442 23.1422 1.73363C23.1385 1.80418 23.1151 1.92993 23.0378 2.11973C22.7657 2.78744 22.7098 3.15609 22.8382 3.43466C22.9558 3.68974 23.1912 3.76776 23.3318 3.81434C23.3861 3.83233 23.4373 3.8493 23.4621 3.86637C23.4621 3.86637 23.4643 3.8683 23.4684 3.87279C23.6011 4.02203 23.8297 4.03534 23.979 3.90254C24.1282 3.76979 24.1415 3.54117 24.0087 3.39198C23.9676 3.34574 23.923 3.30591 23.8762 3.27341C23.7635 3.19543 23.6503 3.15792 23.5593 3.12778C23.5396 3.12127 23.5158 3.11336 23.4961 3.10613C23.4972 3.03481 23.5243 2.8426 23.7075 2.39266C23.9189 1.874 23.9183 1.48153 23.7059 1.2262C23.5487 1.03723 23.3005 0.961619 23.0251 1.01852C22.6409 1.09794 22.1684 1.46249 22.0088 2.00535C21.9153 2.32293 21.7063 2.45708 21.4168 2.64268C21.1186 2.83392 20.7807 3.05068 20.5853 3.50144C20.5005 3.69712 20.4443 3.89424 20.3899 4.08486C20.227 4.65565 20.1195 5.03273 19.3966 5.14836C19.3393 5.15757 19.2839 5.16567 19.2305 5.17349C18.6428 5.2598 18.0875 5.34129 17.6986 6.45254C17.5538 6.86627 17.4515 6.841 17.1124 6.75724C16.9556 6.71857 16.7935 6.67859 16.6222 6.7042C16.522 6.71924 16.4063 6.75468 16.2726 6.79577C16.1364 6.83758 15.7896 6.94385 15.658 6.92322C15.6546 6.89641 15.6531 6.84457 15.6681 6.75681C15.7543 6.25175 15.5712 5.84168 15.1783 5.65979C14.6341 5.40784 13.8191 5.67373 13.3231 6.2651C13.1204 6.50683 12.9897 6.68761 12.8847 6.8329C12.6634 7.13915 12.6108 7.21191 12.2176 7.38044C12.0712 7.44318 11.9544 7.38729 11.7035 7.23472C11.4553 7.08384 10.939 6.76992 10.4938 7.30888C10.4587 7.35137 10.425 7.3925 10.3925 7.43213C10.2696 7.58191 10.123 7.76071 10.0294 7.84688C9.76208 7.59449 9.43279 7.62757 9.16545 7.65433C8.98467 7.67247 8.81402 7.68958 8.63739 7.6404C8.45666 7.59006 8.27193 7.58374 8.09327 7.57762C7.90347 7.57115 7.68836 7.56378 7.62317 7.49173C7.59853 7.46449 7.54317 7.37036 7.56188 7.08538C7.60065 6.49415 7.59182 5.67604 7.06974 5.39858C6.56738 5.13168 6.00006 5.57106 5.81369 5.71548C5.39827 6.03745 5.16932 6.38252 4.98531 6.65979C4.69994 7.08982 4.54279 7.32668 3.83983 7.35132C3.33473 7.36906 2.97187 7.51768 2.76119 7.79307C2.45422 8.19445 2.57757 8.72131 2.63683 8.97456C2.67584 9.14136 2.82446 9.2539 2.98865 9.2539ZM24.9687 6.98952C24.8669 6.86347 24.767 6.74981 24.6706 6.63987C24.2325 6.14084 24.1016 5.95336 24.2284 5.6419C24.2573 5.57121 24.2828 5.49541 24.3041 5.41671C24.3565 5.22397 24.2427 5.02526 24.0499 4.97289C23.8573 4.92067 23.6585 5.03432 23.6061 5.22711C23.5924 5.2775 23.5765 5.32514 23.5587 5.36883C23.2523 6.12063 23.697 6.62719 24.127 7.11701C24.2186 7.22146 24.3135 7.32947 24.4059 7.44395C24.7241 7.83781 24.9357 8.48189 24.9636 8.78882C24.2155 8.59434 23.7978 8.24745 23.7213 7.75632L23.7013 7.62588C23.6131 7.04637 23.5219 6.44713 23.0139 6.32017C22.6948 6.24046 22.2831 6.3464 22.0126 6.57796C21.775 6.7815 21.6598 7.06561 21.6882 7.37784C21.697 7.47515 21.7101 7.57723 21.7239 7.68529C21.7723 8.06247 21.8453 8.63244 21.6349 8.77633C21.1146 9.13239 21.0587 9.68611 20.9996 10.2723C20.9868 10.3992 20.9736 10.5303 20.9555 10.6661C20.9039 11.0531 21.0428 11.2584 21.1685 11.3626C21.4851 11.6249 21.939 11.4749 22.3036 11.3542C22.3848 11.3274 22.4613 11.3021 22.5178 11.2879C22.6488 11.2552 22.8337 11.4865 23.0988 12.0166C23.1763 12.1716 23.2624 12.3046 23.3383 12.422C23.5892 12.8095 23.7873 13.1156 23.5646 14.1606C23.4675 14.6162 23.3264 14.7653 23.2812 14.7896C23.2468 14.7672 23.1842 14.6642 23.2222 14.5408C23.3827 14.019 23.3789 13.6141 23.2106 13.3375C23.101 13.1574 22.9306 13.0417 22.7178 13.0031C22.5029 12.9641 22.3675 12.9938 22.2185 13.1128C22.1807 13.1428 22.0805 13.2228 21.5754 13.309C21.0085 13.4058 20.8988 13.3159 20.6336 13.0985C20.5131 12.9998 20.3632 12.8769 20.1552 12.757C19.8029 12.5538 19.5473 12.6088 19.3949 12.6909C18.9484 12.9312 18.8855 13.6148 18.8198 14.7104C18.8105 14.8646 18.7774 14.9721 18.7266 15.0132C18.6116 15.1063 18.2451 15.0504 17.9506 15.0056C17.601 14.9524 17.2048 14.8921 16.8431 14.9748C16.351 15.0873 15.9956 14.9593 15.7099 14.8564C15.5402 14.7952 15.3936 14.7425 15.237 14.7425C14.8591 14.7425 14.7547 15.1094 14.7101 15.2661C14.6946 15.3207 14.6664 15.4199 14.6427 15.4515C14.6248 15.4542 14.5586 15.4585 14.4144 15.4078C13.6826 15.1506 13.2454 15.4249 12.9562 15.6063C12.8003 15.7041 12.7072 15.7594 12.6079 15.7594C12.2822 15.7594 11.5022 15.6767 11.2952 14.9105C11.0875 14.1423 10.489 14.0838 10.1675 14.0524C10.1322 14.049 10.0897 14.0448 10.0542 14.0399C9.92507 13.2872 9.14206 13.2507 8.16005 13.205C7.51149 13.1748 7.21271 13.3495 7.12852 13.808C7.12558 13.8239 7.12196 13.8438 7.11868 13.8576C7.10615 13.864 7.08151 13.8743 7.03854 13.8851C6.58233 13.999 6.11319 13.4225 6.05658 13.2475C5.96023 12.9497 5.62448 12.4811 4.45841 12.6893C3.80921 12.8052 3.76717 13.4397 3.7446 13.7806C3.74127 13.8308 3.73698 13.8957 3.73086 13.9494C3.29137 13.9876 3.08822 14.4472 2.95084 14.7761C2.85382 14.444 2.65935 13.9983 2.06778 13.6713C1.91511 13.5869 1.73125 13.4478 1.72242 13.2641C1.7177 13.1646 1.76307 13.0794 1.79794 13.0375C2.0645 13.0442 2.85291 13.0199 3.18138 12.5223C3.3192 12.3135 3.42171 11.9525 3.12733 11.418C2.98026 11.151 2.93069 10.8762 2.97577 10.5779C3.00562 10.3804 2.86969 10.1961 2.67222 10.1662C2.47486 10.1366 2.29046 10.2723 2.26061 10.4698C2.19185 10.9248 2.27031 11.3612 2.49381 11.767C2.5848 11.9322 2.61619 12.0656 2.57781 12.1238C2.47597 12.2781 1.99661 12.3349 1.78005 12.3134C1.44082 12.2795 1.14908 12.6095 1.04686 12.9372C0.984699 13.1366 0.849392 13.8243 1.71794 14.3044C2.1484 14.5422 2.22382 14.8411 2.29678 15.1302C2.35474 15.3597 2.44231 15.7067 2.81404 15.7811C3.27725 15.8737 3.47572 15.3971 3.60707 15.0817C3.65853 14.9583 3.75159 14.735 3.8177 14.6722C4.0116 14.6841 4.14319 14.6102 4.22015 14.5448C4.43073 14.3657 4.44963 14.0802 4.46632 13.8284C4.48975 13.4748 4.52066 13.4129 4.58556 13.4014C5.10943 13.3078 5.34378 13.394 5.36842 13.4702C5.52876 13.9657 6.3257 14.8087 7.21397 14.5867C7.74536 14.4539 7.8092 14.1058 7.83992 13.9385L7.8403 13.9364C7.88578 13.9284 7.97267 13.9203 8.1264 13.9274C8.58449 13.9487 8.9811 13.972 9.19535 14.0408C9.3348 14.0855 9.33808 14.1182 9.34599 14.1974C9.39662 14.7038 9.86976 14.75 10.0972 14.7722C10.3977 14.8015 10.5227 14.8244 10.5969 15.0991C10.9439 16.3828 12.2238 16.4826 12.6079 16.4826C12.9202 16.4826 13.1532 16.3364 13.3405 16.2189C13.6001 16.0561 13.7716 15.9485 14.1746 16.0901C14.4995 16.2042 14.7623 16.2055 14.978 16.0938C15.2454 15.9553 15.3393 15.6918 15.3923 15.5109C15.4173 15.5197 15.4422 15.5287 15.4648 15.5368C15.7996 15.6574 16.3055 15.8395 17.0042 15.6799C17.2321 15.6278 17.5419 15.675 17.8417 15.7207C18.3218 15.7937 18.8182 15.8692 19.1813 15.5757C19.3983 15.4003 19.5196 15.1237 19.5417 14.7537C19.5672 14.329 19.6132 13.5614 19.7293 13.3512C19.7452 13.3577 19.7665 13.3678 19.7937 13.3835C19.9504 13.4739 20.0646 13.5675 20.1751 13.658C20.5557 13.9699 20.8671 14.1637 21.6971 14.022C22.2352 13.9302 22.4608 13.8259 22.6005 13.7296C22.6228 13.7892 22.6406 13.971 22.5308 14.3281C22.4265 14.6671 22.5137 15.0431 22.7531 15.286C22.9508 15.4865 23.2211 15.5617 23.4767 15.4871C23.7416 15.4097 24.0946 15.1429 24.2718 14.3114C24.5569 12.9739 24.246 12.4935 23.9454 12.0291C23.8733 11.9177 23.8051 11.8124 23.7455 11.6932C23.5033 11.2086 23.0976 10.3977 22.3422 10.5863C22.2597 10.607 22.1706 10.6364 22.0763 10.6676C21.9748 10.7011 21.7882 10.7629 21.67 10.7804C21.6706 10.7745 21.6713 10.7683 21.6723 10.7617C21.6919 10.6145 21.7057 10.4775 21.7191 10.3449C21.774 9.80097 21.8106 9.53243 22.0432 9.3733C22.6188 8.97948 22.5162 8.17835 22.4412 7.59334C22.4282 7.49202 22.416 7.39635 22.4082 7.31231C22.4011 7.23356 22.4234 7.17821 22.4829 7.12724C22.5867 7.03841 22.7468 7.01102 22.8197 7.01874C22.8919 7.11658 22.9482 7.48643 22.9859 7.73462L23.0063 7.86761C23.0975 8.45282 23.5129 9.21706 24.974 9.53465C25.2264 9.58966 25.4534 9.49887 25.581 9.2921C25.9163 8.74908 25.375 7.49265 24.9687 6.98952Z"/>
</mask>
<path d="M2.98865 9.2539C3.01594 9.2539 3.04367 9.25077 3.07139 9.24431C3.26587 9.19879 3.38661 9.00422 3.34109 8.80975C3.30709 8.66455 3.2364 8.36245 3.33574 8.23255C3.40653 8.13996 3.59459 8.08379 3.8652 8.07429C4.93979 8.03658 5.26933 7.54 5.58797 7.05978C5.75872 6.80247 5.93526 6.53644 6.25674 6.28728C6.57331 6.04199 6.709 6.03741 6.73099 6.03866C6.75095 6.05988 6.89234 6.24109 6.84011 7.03813C6.81268 7.4562 6.8934 7.76341 7.08686 7.97717C7.35752 8.27628 7.75177 8.28974 8.06853 8.30059C8.21107 8.30546 8.3457 8.31008 8.4433 8.33728C8.7509 8.42292 9.02079 8.39587 9.23759 8.37412C9.37121 8.36072 9.50936 8.34688 9.53868 8.37894C9.68315 8.53653 9.84811 8.61301 10.0291 8.60896C10.3704 8.59955 10.6016 8.31766 10.9516 7.89095C10.9837 7.85194 11.0169 7.81148 11.0514 7.76963C11.0704 7.74668 11.084 7.73453 11.0918 7.72855C11.1417 7.73973 11.2526 7.80715 11.3277 7.85281C11.5951 8.01531 11.9992 8.26095 12.5025 8.04531C13.0564 7.80796 13.1996 7.63201 13.4709 7.25661C13.5691 7.12077 13.6913 6.95167 13.8773 6.72995C14.2049 6.33936 14.6789 6.2258 14.8745 6.31626C14.9055 6.33059 14.9997 6.37418 14.9551 6.6351C14.8914 7.00804 14.9633 7.28873 15.1688 7.46926C15.5247 7.78207 16.0797 7.61166 16.4849 7.4872C16.5776 7.45875 16.6827 7.42649 16.7286 7.4196C16.7637 7.41646 16.8692 7.44216 16.9391 7.45943C17.2897 7.54603 18.0193 7.72594 18.3814 6.69142C18.6257 5.99333 18.8045 5.96705 19.3356 5.88908C19.392 5.88078 19.4504 5.8722 19.5109 5.86251C20.6887 5.67406 20.9087 4.90292 21.0855 4.28324C21.1357 4.10728 21.1831 3.94112 21.249 3.78898C21.3567 3.5405 21.5556 3.41296 21.8073 3.25151C22.1307 3.04412 22.5332 2.78604 22.7027 2.20942C22.7841 1.93292 23.017 1.77442 23.1422 1.73363C23.1385 1.80418 23.1151 1.92993 23.0378 2.11973C22.7657 2.78744 22.7098 3.15609 22.8382 3.43466C22.9558 3.68974 23.1912 3.76776 23.3318 3.81434C23.3861 3.83233 23.4373 3.8493 23.4621 3.86637C23.4621 3.86637 23.4643 3.8683 23.4684 3.87279C23.6011 4.02203 23.8297 4.03534 23.979 3.90254C24.1282 3.76979 24.1415 3.54117 24.0087 3.39198C23.9676 3.34574 23.923 3.30591 23.8762 3.27341C23.7635 3.19543 23.6503 3.15792 23.5593 3.12778C23.5396 3.12127 23.5158 3.11336 23.4961 3.10613C23.4972 3.03481 23.5243 2.8426 23.7075 2.39266C23.9189 1.874 23.9183 1.48153 23.7059 1.2262C23.5487 1.03723 23.3005 0.961619 23.0251 1.01852C22.6409 1.09794 22.1684 1.46249 22.0088 2.00535C21.9153 2.32293 21.7063 2.45708 21.4168 2.64268C21.1186 2.83392 20.7807 3.05068 20.5853 3.50144C20.5005 3.69712 20.4443 3.89424 20.3899 4.08486C20.227 4.65565 20.1195 5.03273 19.3966 5.14836C19.3393 5.15757 19.2839 5.16567 19.2305 5.17349C18.6428 5.2598 18.0875 5.34129 17.6986 6.45254C17.5538 6.86627 17.4515 6.841 17.1124 6.75724C16.9556 6.71857 16.7935 6.67859 16.6222 6.7042C16.522 6.71924 16.4063 6.75468 16.2726 6.79577C16.1364 6.83758 15.7896 6.94385 15.658 6.92322C15.6546 6.89641 15.6531 6.84457 15.6681 6.75681C15.7543 6.25175 15.5712 5.84168 15.1783 5.65979C14.6341 5.40784 13.8191 5.67373 13.3231 6.2651C13.1204 6.50683 12.9897 6.68761 12.8847 6.8329C12.6634 7.13915 12.6108 7.21191 12.2176 7.38044C12.0712 7.44318 11.9544 7.38729 11.7035 7.23472C11.4553 7.08384 10.939 6.76992 10.4938 7.30888C10.4587 7.35137 10.425 7.3925 10.3925 7.43213C10.2696 7.58191 10.123 7.76071 10.0294 7.84688C9.76208 7.59449 9.43279 7.62757 9.16545 7.65433C8.98467 7.67247 8.81402 7.68958 8.63739 7.6404C8.45666 7.59006 8.27193 7.58374 8.09327 7.57762C7.90347 7.57115 7.68836 7.56378 7.62317 7.49173C7.59853 7.46449 7.54317 7.37036 7.56188 7.08538C7.60065 6.49415 7.59182 5.67604 7.06974 5.39858C6.56738 5.13168 6.00006 5.57106 5.81369 5.71548C5.39827 6.03745 5.16932 6.38252 4.98531 6.65979C4.69994 7.08982 4.54279 7.32668 3.83983 7.35132C3.33473 7.36906 2.97187 7.51768 2.76119 7.79307C2.45422 8.19445 2.57757 8.72131 2.63683 8.97456C2.67584 9.14136 2.82446 9.2539 2.98865 9.2539ZM24.9687 6.98952C24.8669 6.86347 24.767 6.74981 24.6706 6.63987C24.2325 6.14084 24.1016 5.95336 24.2284 5.6419C24.2573 5.57121 24.2828 5.49541 24.3041 5.41671C24.3565 5.22397 24.2427 5.02526 24.0499 4.97289C23.8573 4.92067 23.6585 5.03432 23.6061 5.22711C23.5924 5.2775 23.5765 5.32514 23.5587 5.36883C23.2523 6.12063 23.697 6.62719 24.127 7.11701C24.2186 7.22146 24.3135 7.32947 24.4059 7.44395C24.7241 7.83781 24.9357 8.48189 24.9636 8.78882C24.2155 8.59434 23.7978 8.24745 23.7213 7.75632L23.7013 7.62588C23.6131 7.04637 23.5219 6.44713 23.0139 6.32017C22.6948 6.24046 22.2831 6.3464 22.0126 6.57796C21.775 6.7815 21.6598 7.06561 21.6882 7.37784C21.697 7.47515 21.7101 7.57723 21.7239 7.68529C21.7723 8.06247 21.8453 8.63244 21.6349 8.77633C21.1146 9.13239 21.0587 9.68611 20.9996 10.2723C20.9868 10.3992 20.9736 10.5303 20.9555 10.6661C20.9039 11.0531 21.0428 11.2584 21.1685 11.3626C21.4851 11.6249 21.939 11.4749 22.3036 11.3542C22.3848 11.3274 22.4613 11.3021 22.5178 11.2879C22.6488 11.2552 22.8337 11.4865 23.0988 12.0166C23.1763 12.1716 23.2624 12.3046 23.3383 12.422C23.5892 12.8095 23.7873 13.1156 23.5646 14.1606C23.4675 14.6162 23.3264 14.7653 23.2812 14.7896C23.2468 14.7672 23.1842 14.6642 23.2222 14.5408C23.3827 14.019 23.3789 13.6141 23.2106 13.3375C23.101 13.1574 22.9306 13.0417 22.7178 13.0031C22.5029 12.9641 22.3675 12.9938 22.2185 13.1128C22.1807 13.1428 22.0805 13.2228 21.5754 13.309C21.0085 13.4058 20.8988 13.3159 20.6336 13.0985C20.5131 12.9998 20.3632 12.8769 20.1552 12.757C19.8029 12.5538 19.5473 12.6088 19.3949 12.6909C18.9484 12.9312 18.8855 13.6148 18.8198 14.7104C18.8105 14.8646 18.7774 14.9721 18.7266 15.0132C18.6116 15.1063 18.2451 15.0504 17.9506 15.0056C17.601 14.9524 17.2048 14.8921 16.8431 14.9748C16.351 15.0873 15.9956 14.9593 15.7099 14.8564C15.5402 14.7952 15.3936 14.7425 15.237 14.7425C14.8591 14.7425 14.7547 15.1094 14.7101 15.2661C14.6946 15.3207 14.6664 15.4199 14.6427 15.4515C14.6248 15.4542 14.5586 15.4585 14.4144 15.4078C13.6826 15.1506 13.2454 15.4249 12.9562 15.6063C12.8003 15.7041 12.7072 15.7594 12.6079 15.7594C12.2822 15.7594 11.5022 15.6767 11.2952 14.9105C11.0875 14.1423 10.489 14.0838 10.1675 14.0524C10.1322 14.049 10.0897 14.0448 10.0542 14.0399C9.92507 13.2872 9.14206 13.2507 8.16005 13.205C7.51149 13.1748 7.21271 13.3495 7.12852 13.808C7.12558 13.8239 7.12196 13.8438 7.11868 13.8576C7.10615 13.864 7.08151 13.8743 7.03854 13.8851C6.58233 13.999 6.11319 13.4225 6.05658 13.2475C5.96023 12.9497 5.62448 12.4811 4.45841 12.6893C3.80921 12.8052 3.76717 13.4397 3.7446 13.7806C3.74127 13.8308 3.73698 13.8957 3.73086 13.9494C3.29137 13.9876 3.08822 14.4472 2.95084 14.7761C2.85382 14.444 2.65935 13.9983 2.06778 13.6713C1.91511 13.5869 1.73125 13.4478 1.72242 13.2641C1.7177 13.1646 1.76307 13.0794 1.79794 13.0375C2.0645 13.0442 2.85291 13.0199 3.18138 12.5223C3.3192 12.3135 3.42171 11.9525 3.12733 11.418C2.98026 11.151 2.93069 10.8762 2.97577 10.5779C3.00562 10.3804 2.86969 10.1961 2.67222 10.1662C2.47486 10.1366 2.29046 10.2723 2.26061 10.4698C2.19185 10.9248 2.27031 11.3612 2.49381 11.767C2.5848 11.9322 2.61619 12.0656 2.57781 12.1238C2.47597 12.2781 1.99661 12.3349 1.78005 12.3134C1.44082 12.2795 1.14908 12.6095 1.04686 12.9372C0.984699 13.1366 0.849392 13.8243 1.71794 14.3044C2.1484 14.5422 2.22382 14.8411 2.29678 15.1302C2.35474 15.3597 2.44231 15.7067 2.81404 15.7811C3.27725 15.8737 3.47572 15.3971 3.60707 15.0817C3.65853 14.9583 3.75159 14.735 3.8177 14.6722C4.0116 14.6841 4.14319 14.6102 4.22015 14.5448C4.43073 14.3657 4.44963 14.0802 4.46632 13.8284C4.48975 13.4748 4.52066 13.4129 4.58556 13.4014C5.10943 13.3078 5.34378 13.394 5.36842 13.4702C5.52876 13.9657 6.3257 14.8087 7.21397 14.5867C7.74536 14.4539 7.8092 14.1058 7.83992 13.9385L7.8403 13.9364C7.88578 13.9284 7.97267 13.9203 8.1264 13.9274C8.58449 13.9487 8.9811 13.972 9.19535 14.0408C9.3348 14.0855 9.33808 14.1182 9.34599 14.1974C9.39662 14.7038 9.86976 14.75 10.0972 14.7722C10.3977 14.8015 10.5227 14.8244 10.5969 15.0991C10.9439 16.3828 12.2238 16.4826 12.6079 16.4826C12.9202 16.4826 13.1532 16.3364 13.3405 16.2189C13.6001 16.0561 13.7716 15.9485 14.1746 16.0901C14.4995 16.2042 14.7623 16.2055 14.978 16.0938C15.2454 15.9553 15.3393 15.6918 15.3923 15.5109C15.4173 15.5197 15.4422 15.5287 15.4648 15.5368C15.7996 15.6574 16.3055 15.8395 17.0042 15.6799C17.2321 15.6278 17.5419 15.675 17.8417 15.7207C18.3218 15.7937 18.8182 15.8692 19.1813 15.5757C19.3983 15.4003 19.5196 15.1237 19.5417 14.7537C19.5672 14.329 19.6132 13.5614 19.7293 13.3512C19.7452 13.3577 19.7665 13.3678 19.7937 13.3835C19.9504 13.4739 20.0646 13.5675 20.1751 13.658C20.5557 13.9699 20.8671 14.1637 21.6971 14.022C22.2352 13.9302 22.4608 13.8259 22.6005 13.7296C22.6228 13.7892 22.6406 13.971 22.5308 14.3281C22.4265 14.6671 22.5137 15.0431 22.7531 15.286C22.9508 15.4865 23.2211 15.5617 23.4767 15.4871C23.7416 15.4097 24.0946 15.1429 24.2718 14.3114C24.5569 12.9739 24.246 12.4935 23.9454 12.0291C23.8733 11.9177 23.8051 11.8124 23.7455 11.6932C23.5033 11.2086 23.0976 10.3977 22.3422 10.5863C22.2597 10.607 22.1706 10.6364 22.0763 10.6676C21.9748 10.7011 21.7882 10.7629 21.67 10.7804C21.6706 10.7745 21.6713 10.7683 21.6723 10.7617C21.6919 10.6145 21.7057 10.4775 21.7191 10.3449C21.774 9.80097 21.8106 9.53243 22.0432 9.3733C22.6188 8.97948 22.5162 8.17835 22.4412 7.59334C22.4282 7.49202 22.416 7.39635 22.4082 7.31231C22.4011 7.23356 22.4234 7.17821 22.4829 7.12724C22.5867 7.03841 22.7468 7.01102 22.8197 7.01874C22.8919 7.11658 22.9482 7.48643 22.9859 7.73462L23.0063 7.86761C23.0975 8.45282 23.5129 9.21706 24.974 9.53465C25.2264 9.58966 25.4534 9.49887 25.581 9.2921C25.9163 8.74908 25.375 7.49265 24.9687 6.98952Z" fill="#00A0AF"/>
<path d="M2.98865 9.2539C3.01594 9.2539 3.04367 9.25077 3.07139 9.24431C3.26587 9.19879 3.38661 9.00422 3.34109 8.80975C3.30709 8.66455 3.2364 8.36245 3.33574 8.23255C3.40653 8.13996 3.59459 8.08379 3.8652 8.07429C4.93979 8.03658 5.26933 7.54 5.58797 7.05978C5.75872 6.80247 5.93526 6.53644 6.25674 6.28728C6.57331 6.04199 6.709 6.03741 6.73099 6.03866C6.75095 6.05988 6.89234 6.24109 6.84011 7.03813C6.81268 7.4562 6.8934 7.76341 7.08686 7.97717C7.35752 8.27628 7.75177 8.28974 8.06853 8.30059C8.21107 8.30546 8.3457 8.31008 8.4433 8.33728C8.7509 8.42292 9.02079 8.39587 9.23759 8.37412C9.37121 8.36072 9.50936 8.34688 9.53868 8.37894C9.68315 8.53653 9.84811 8.61301 10.0291 8.60896C10.3704 8.59955 10.6016 8.31766 10.9516 7.89095C10.9837 7.85194 11.0169 7.81148 11.0514 7.76963C11.0704 7.74668 11.084 7.73453 11.0918 7.72855C11.1417 7.73973 11.2526 7.80715 11.3277 7.85281C11.5951 8.01531 11.9992 8.26095 12.5025 8.04531C13.0564 7.80796 13.1996 7.63201 13.4709 7.25661C13.5691 7.12077 13.6913 6.95167 13.8773 6.72995C14.2049 6.33936 14.6789 6.2258 14.8745 6.31626C14.9055 6.33059 14.9997 6.37418 14.9551 6.6351C14.8914 7.00804 14.9633 7.28873 15.1688 7.46926C15.5247 7.78207 16.0797 7.61166 16.4849 7.4872C16.5776 7.45875 16.6827 7.42649 16.7286 7.4196C16.7637 7.41646 16.8692 7.44216 16.9391 7.45943C17.2897 7.54603 18.0193 7.72594 18.3814 6.69142C18.6257 5.99333 18.8045 5.96705 19.3356 5.88908C19.392 5.88078 19.4504 5.8722 19.5109 5.86251C20.6887 5.67406 20.9087 4.90292 21.0855 4.28324C21.1357 4.10728 21.1831 3.94112 21.249 3.78898C21.3567 3.5405 21.5556 3.41296 21.8073 3.25151C22.1307 3.04412 22.5332 2.78604 22.7027 2.20942C22.7841 1.93292 23.017 1.77442 23.1422 1.73363C23.1385 1.80418 23.1151 1.92993 23.0378 2.11973C22.7657 2.78744 22.7098 3.15609 22.8382 3.43466C22.9558 3.68974 23.1912 3.76776 23.3318 3.81434C23.3861 3.83233 23.4373 3.8493 23.4621 3.86637C23.4621 3.86637 23.4643 3.8683 23.4684 3.87279C23.6011 4.02203 23.8297 4.03534 23.979 3.90254C24.1282 3.76979 24.1415 3.54117 24.0087 3.39198C23.9676 3.34574 23.923 3.30591 23.8762 3.27341C23.7635 3.19543 23.6503 3.15792 23.5593 3.12778C23.5396 3.12127 23.5158 3.11336 23.4961 3.10613C23.4972 3.03481 23.5243 2.8426 23.7075 2.39266C23.9189 1.874 23.9183 1.48153 23.7059 1.2262C23.5487 1.03723 23.3005 0.961619 23.0251 1.01852C22.6409 1.09794 22.1684 1.46249 22.0088 2.00535C21.9153 2.32293 21.7063 2.45708 21.4168 2.64268C21.1186 2.83392 20.7807 3.05068 20.5853 3.50144C20.5005 3.69712 20.4443 3.89424 20.3899 4.08486C20.227 4.65565 20.1195 5.03273 19.3966 5.14836C19.3393 5.15757 19.2839 5.16567 19.2305 5.17349C18.6428 5.2598 18.0875 5.34129 17.6986 6.45254C17.5538 6.86627 17.4515 6.841 17.1124 6.75724C16.9556 6.71857 16.7935 6.67859 16.6222 6.7042C16.522 6.71924 16.4063 6.75468 16.2726 6.79577C16.1364 6.83758 15.7896 6.94385 15.658 6.92322C15.6546 6.89641 15.6531 6.84457 15.6681 6.75681C15.7543 6.25175 15.5712 5.84168 15.1783 5.65979C14.6341 5.40784 13.8191 5.67373 13.3231 6.2651C13.1204 6.50683 12.9897 6.68761 12.8847 6.8329C12.6634 7.13915 12.6108 7.21191 12.2176 7.38044C12.0712 7.44318 11.9544 7.38729 11.7035 7.23472C11.4553 7.08384 10.939 6.76992 10.4938 7.30888C10.4587 7.35137 10.425 7.3925 10.3925 7.43213C10.2696 7.58191 10.123 7.76071 10.0294 7.84688C9.76208 7.59449 9.43279 7.62757 9.16545 7.65433C8.98467 7.67247 8.81402 7.68958 8.63739 7.6404C8.45666 7.59006 8.27193 7.58374 8.09327 7.57762C7.90347 7.57115 7.68836 7.56378 7.62317 7.49173C7.59853 7.46449 7.54317 7.37036 7.56188 7.08538C7.60065 6.49415 7.59182 5.67604 7.06974 5.39858C6.56738 5.13168 6.00006 5.57106 5.81369 5.71548C5.39827 6.03745 5.16932 6.38252 4.98531 6.65979C4.69994 7.08982 4.54279 7.32668 3.83983 7.35132C3.33473 7.36906 2.97187 7.51768 2.76119 7.79307C2.45422 8.19445 2.57757 8.72131 2.63683 8.97456C2.67584 9.14136 2.82446 9.2539 2.98865 9.2539ZM24.9687 6.98952C24.8669 6.86347 24.767 6.74981 24.6706 6.63987C24.2325 6.14084 24.1016 5.95336 24.2284 5.6419C24.2573 5.57121 24.2828 5.49541 24.3041 5.41671C24.3565 5.22397 24.2427 5.02526 24.0499 4.97289C23.8573 4.92067 23.6585 5.03432 23.6061 5.22711C23.5924 5.2775 23.5765 5.32514 23.5587 5.36883C23.2523 6.12063 23.697 6.62719 24.127 7.11701C24.2186 7.22146 24.3135 7.32947 24.4059 7.44395C24.7241 7.83781 24.9357 8.48189 24.9636 8.78882C24.2155 8.59434 23.7978 8.24745 23.7213 7.75632L23.7013 7.62588C23.6131 7.04637 23.5219 6.44713 23.0139 6.32017C22.6948 6.24046 22.2831 6.3464 22.0126 6.57796C21.775 6.7815 21.6598 7.06561 21.6882 7.37784C21.697 7.47515 21.7101 7.57723 21.7239 7.68529C21.7723 8.06247 21.8453 8.63244 21.6349 8.77633C21.1146 9.13239 21.0587 9.68611 20.9996 10.2723C20.9868 10.3992 20.9736 10.5303 20.9555 10.6661C20.9039 11.0531 21.0428 11.2584 21.1685 11.3626C21.4851 11.6249 21.939 11.4749 22.3036 11.3542C22.3848 11.3274 22.4613 11.3021 22.5178 11.2879C22.6488 11.2552 22.8337 11.4865 23.0988 12.0166C23.1763 12.1716 23.2624 12.3046 23.3383 12.422C23.5892 12.8095 23.7873 13.1156 23.5646 14.1606C23.4675 14.6162 23.3264 14.7653 23.2812 14.7896C23.2468 14.7672 23.1842 14.6642 23.2222 14.5408C23.3827 14.019 23.3789 13.6141 23.2106 13.3375C23.101 13.1574 22.9306 13.0417 22.7178 13.0031C22.5029 12.9641 22.3675 12.9938 22.2185 13.1128C22.1807 13.1428 22.0805 13.2228 21.5754 13.309C21.0085 13.4058 20.8988 13.3159 20.6336 13.0985C20.5131 12.9998 20.3632 12.8769 20.1552 12.757C19.8029 12.5538 19.5473 12.6088 19.3949 12.6909C18.9484 12.9312 18.8855 13.6148 18.8198 14.7104C18.8105 14.8646 18.7774 14.9721 18.7266 15.0132C18.6116 15.1063 18.2451 15.0504 17.9506 15.0056C17.601 14.9524 17.2048 14.8921 16.8431 14.9748C16.351 15.0873 15.9956 14.9593 15.7099 14.8564C15.5402 14.7952 15.3936 14.7425 15.237 14.7425C14.8591 14.7425 14.7547 15.1094 14.7101 15.2661C14.6946 15.3207 14.6664 15.4199 14.6427 15.4515C14.6248 15.4542 14.5586 15.4585 14.4144 15.4078C13.6826 15.1506 13.2454 15.4249 12.9562 15.6063C12.8003 15.7041 12.7072 15.7594 12.6079 15.7594C12.2822 15.7594 11.5022 15.6767 11.2952 14.9105C11.0875 14.1423 10.489 14.0838 10.1675 14.0524C10.1322 14.049 10.0897 14.0448 10.0542 14.0399C9.92507 13.2872 9.14206 13.2507 8.16005 13.205C7.51149 13.1748 7.21271 13.3495 7.12852 13.808C7.12558 13.8239 7.12196 13.8438 7.11868 13.8576C7.10615 13.864 7.08151 13.8743 7.03854 13.8851C6.58233 13.999 6.11319 13.4225 6.05658 13.2475C5.96023 12.9497 5.62448 12.4811 4.45841 12.6893C3.80921 12.8052 3.76717 13.4397 3.7446 13.7806C3.74127 13.8308 3.73698 13.8957 3.73086 13.9494C3.29137 13.9876 3.08822 14.4472 2.95084 14.7761C2.85382 14.444 2.65935 13.9983 2.06778 13.6713C1.91511 13.5869 1.73125 13.4478 1.72242 13.2641C1.7177 13.1646 1.76307 13.0794 1.79794 13.0375C2.0645 13.0442 2.85291 13.0199 3.18138 12.5223C3.3192 12.3135 3.42171 11.9525 3.12733 11.418C2.98026 11.151 2.93069 10.8762 2.97577 10.5779C3.00562 10.3804 2.86969 10.1961 2.67222 10.1662C2.47486 10.1366 2.29046 10.2723 2.26061 10.4698C2.19185 10.9248 2.27031 11.3612 2.49381 11.767C2.5848 11.9322 2.61619 12.0656 2.57781 12.1238C2.47597 12.2781 1.99661 12.3349 1.78005 12.3134C1.44082 12.2795 1.14908 12.6095 1.04686 12.9372C0.984699 13.1366 0.849392 13.8243 1.71794 14.3044C2.1484 14.5422 2.22382 14.8411 2.29678 15.1302C2.35474 15.3597 2.44231 15.7067 2.81404 15.7811C3.27725 15.8737 3.47572 15.3971 3.60707 15.0817C3.65853 14.9583 3.75159 14.735 3.8177 14.6722C4.0116 14.6841 4.14319 14.6102 4.22015 14.5448C4.43073 14.3657 4.44963 14.0802 4.46632 13.8284C4.48975 13.4748 4.52066 13.4129 4.58556 13.4014C5.10943 13.3078 5.34378 13.394 5.36842 13.4702C5.52876 13.9657 6.3257 14.8087 7.21397 14.5867C7.74536 14.4539 7.8092 14.1058 7.83992 13.9385L7.8403 13.9364C7.88578 13.9284 7.97267 13.9203 8.1264 13.9274C8.58449 13.9487 8.9811 13.972 9.19535 14.0408C9.3348 14.0855 9.33808 14.1182 9.34599 14.1974C9.39662 14.7038 9.86976 14.75 10.0972 14.7722C10.3977 14.8015 10.5227 14.8244 10.5969 15.0991C10.9439 16.3828 12.2238 16.4826 12.6079 16.4826C12.9202 16.4826 13.1532 16.3364 13.3405 16.2189C13.6001 16.0561 13.7716 15.9485 14.1746 16.0901C14.4995 16.2042 14.7623 16.2055 14.978 16.0938C15.2454 15.9553 15.3393 15.6918 15.3923 15.5109C15.4173 15.5197 15.4422 15.5287 15.4648 15.5368C15.7996 15.6574 16.3055 15.8395 17.0042 15.6799C17.2321 15.6278 17.5419 15.675 17.8417 15.7207C18.3218 15.7937 18.8182 15.8692 19.1813 15.5757C19.3983 15.4003 19.5196 15.1237 19.5417 14.7537C19.5672 14.329 19.6132 13.5614 19.7293 13.3512C19.7452 13.3577 19.7665 13.3678 19.7937 13.3835C19.9504 13.4739 20.0646 13.5675 20.1751 13.658C20.5557 13.9699 20.8671 14.1637 21.6971 14.022C22.2352 13.9302 22.4608 13.8259 22.6005 13.7296C22.6228 13.7892 22.6406 13.971 22.5308 14.3281C22.4265 14.6671 22.5137 15.0431 22.7531 15.286C22.9508 15.4865 23.2211 15.5617 23.4767 15.4871C23.7416 15.4097 24.0946 15.1429 24.2718 14.3114C24.5569 12.9739 24.246 12.4935 23.9454 12.0291C23.8733 11.9177 23.8051 11.8124 23.7455 11.6932C23.5033 11.2086 23.0976 10.3977 22.3422 10.5863C22.2597 10.607 22.1706 10.6364 22.0763 10.6676C21.9748 10.7011 21.7882 10.7629 21.67 10.7804C21.6706 10.7745 21.6713 10.7683 21.6723 10.7617C21.6919 10.6145 21.7057 10.4775 21.7191 10.3449C21.774 9.80097 21.8106 9.53243 22.0432 9.3733C22.6188 8.97948 22.5162 8.17835 22.4412 7.59334C22.4282 7.49202 22.416 7.39635 22.4082 7.31231C22.4011 7.23356 22.4234 7.17821 22.4829 7.12724C22.5867 7.03841 22.7468 7.01102 22.8197 7.01874C22.8919 7.11658 22.9482 7.48643 22.9859 7.73462L23.0063 7.86761C23.0975 8.45282 23.5129 9.21706 24.974 9.53465C25.2264 9.58966 25.4534 9.49887 25.581 9.2921C25.9163 8.74908 25.375 7.49265 24.9687 6.98952Z" stroke="white" stroke-width="0.4" mask="url(#path-1-outside-1)"/>
</svg>
