<svg width="20" height="20" viewBox="0 0 20 20" fill="none" xmlns="http://www.w3.org/2000/svg">
<path d="M10.749 13.5157C10.749 14.2337 11.3331 14.8178 12.0511 14.8178H13.5811C14.299 14.8178 14.8831 14.2337 14.8831 13.5157V11.9857C14.8831 11.2678 14.299 10.6837 13.5811 10.6837H12.0511C11.3331 10.6837 10.749 11.2678 10.749 11.9857V13.5157ZM12.0511 11.9857H13.5811L13.5819 13.5157C13.5819 13.5157 13.5816 13.5157 13.5811 13.5157H12.0511V11.9857Z" fill="#fff"/>
<path d="M14.2321 9.15371C14.5917 9.15371 14.8831 8.86222 14.8831 8.50266C14.8831 8.1431 14.5917 7.85162 14.2321 7.85162C13.8725 7.85162 13.5811 8.1431 13.5811 8.50266C13.5811 8.86222 13.8725 9.15371 14.2321 9.15371Z" fill="#fff"/>
<path d="M11.4001 9.15371C11.7596 9.15371 12.0511 8.86222 12.0511 8.50266C12.0511 8.1431 11.7596 7.85162 11.4001 7.85162C11.0405 7.85162 10.749 8.1431 10.749 8.50266C10.749 8.86222 11.0405 9.15371 11.4001 9.15371Z" fill="#fff"/>
<path d="M17.6826 13.125C18.0422 13.125 18.3337 12.8335 18.3337 12.474V5.57294C18.3337 4.137 17.1654 2.96877 15.7295 2.96877H14.8831V2.31773C14.8831 1.95816 14.5917 1.66669 14.2321 1.66669C13.8725 1.66669 13.5811 1.95816 13.5811 2.31773V2.96877H10.6188V2.31773C10.6188 1.95816 10.3273 1.66669 9.96777 1.66669C9.6082 1.66669 9.31673 1.95816 9.31673 2.31773V2.96877H6.38704V2.31773C6.38704 1.95816 6.09557 1.66669 5.736 1.66669C5.37643 1.66669 5.08496 1.95816 5.08496 2.31773V2.96877H4.27116C2.83522 2.96877 1.66699 4.137 1.66699 5.57294V15.7292C1.66699 17.1651 2.83522 18.3334 4.27116 18.3334H15.7295C17.1654 18.3334 18.3337 17.1651 18.3337 15.7292C18.3337 15.3696 18.0422 15.0781 17.6826 15.0781C17.323 15.0781 17.0316 15.3696 17.0316 15.7292C17.0316 16.4472 16.4475 17.0313 15.7295 17.0313H4.27116C3.55319 17.0313 2.96908 16.4472 2.96908 15.7292V5.57294C2.96908 4.85497 3.55319 4.27085 4.27116 4.27085H5.08496V4.9219C5.08496 5.28147 5.37643 5.57294 5.736 5.57294C6.09557 5.57294 6.38704 5.28147 6.38704 4.9219V4.27085H9.31673V4.9219C9.31673 5.28147 9.6082 5.57294 9.96777 5.57294C10.3273 5.57294 10.6188 5.28147 10.6188 4.9219V4.27085H13.5811V4.9219C13.5811 5.28147 13.8725 5.57294 14.2321 5.57294C14.5917 5.57294 14.8831 5.28147 14.8831 4.9219V4.27085H15.7295C16.4475 4.27085 17.0316 4.85497 17.0316 5.57294V12.474C17.0316 12.8335 17.323 13.125 17.6826 13.125Z" fill="#fff"/>
<path d="M5.736 14.8178C6.09556 14.8178 6.38704 14.5263 6.38704 14.1667C6.38704 13.8072 6.09556 13.5157 5.736 13.5157C5.37644 13.5157 5.08496 13.8072 5.08496 14.1667C5.08496 14.5263 5.37644 14.8178 5.736 14.8178Z" fill="#fff"/>
<path d="M5.736 9.15371C6.09556 9.15371 6.38704 8.86222 6.38704 8.50266C6.38704 8.1431 6.09556 7.85162 5.736 7.85162C5.37644 7.85162 5.08496 8.1431 5.08496 8.50266C5.08496 8.86222 5.37644 9.15371 5.736 9.15371Z" fill="#fff"/>
<path d="M5.736 11.9857C6.09556 11.9857 6.38704 11.6943 6.38704 11.3347C6.38704 10.9751 6.09556 10.6837 5.736 10.6837C5.37644 10.6837 5.08496 10.9751 5.08496 11.3347C5.08496 11.6943 5.37644 11.9857 5.736 11.9857Z" fill="#fff"/>
<path d="M8.56803 11.9857C8.92759 11.9857 9.21907 11.6943 9.21907 11.3347C9.21907 10.9751 8.92759 10.6837 8.56803 10.6837C8.20847 10.6837 7.91699 10.9751 7.91699 11.3347C7.91699 11.6943 8.20847 11.9857 8.56803 11.9857Z" fill="#fff"/>
<path d="M8.56803 9.15371C8.92759 9.15371 9.21907 8.86222 9.21907 8.50266C9.21907 8.1431 8.92759 7.85162 8.56803 7.85162C8.20847 7.85162 7.91699 8.1431 7.91699 8.50266C7.91699 8.86222 8.20847 9.15371 8.56803 9.15371Z" fill="#fff"/>
<path d="M8.56803 14.8178C8.92759 14.8178 9.21907 14.5263 9.21907 14.1667C9.21907 13.8072 8.92759 13.5157 8.56803 13.5157C8.20847 13.5157 7.91699 13.8072 7.91699 14.1667C7.91699 14.5263 8.20847 14.8178 8.56803 14.8178Z" fill="#fff"/>
</svg>
