<svg width="24" height="24" viewBox="0 0 24 24" fill="none" xmlns="http://www.w3.org/2000/svg">
<path d="M15.7956 10.6957V10.7957H15.8956H16.7765H16.8765V10.6957V9.30497H18.3917H18.4917V9.20497V8.49251V8.39251H18.3917H16.8765V7.61699H17.5988C18.4878 7.61699 19.1785 7.40532 19.6538 6.96563L19.6538 6.96563L19.6545 6.96504C20.1289 6.51851 20.3613 5.90528 20.3613 5.13847C20.3613 4.38147 20.1466 3.78884 19.7031 3.37744C19.2659 2.96572 18.6033 2.76957 17.7358 2.76957H15.8956H15.7956V2.86957V6.58396H15.0439H14.9439V6.68396V7.51699V7.61699H15.0439H15.7956V8.39251H15.0439H14.9439V8.49251V9.20497V9.30497H15.0439H15.7956V10.6957ZM18.7968 6.27162L18.7967 6.27162L18.796 6.27213C18.4926 6.47595 18.055 6.58396 17.4715 6.58396H16.8765V3.80259H17.6575C18.2276 3.80259 18.6261 3.92146 18.8738 4.13938C19.1193 4.35538 19.251 4.69234 19.251 5.17136C19.251 5.72334 19.0905 6.07812 18.7968 6.27162Z" fill="#A7AEB8" stroke="#A7AEB8" stroke-width="0.2"/>
<path d="M21.1667 11.1667H12.8333V2.83333C12.8333 2.61232 12.7455 2.40036 12.5893 2.24408C12.433 2.0878 12.221 2 12 2C10.0222 2 8.08879 2.58649 6.4443 3.6853C4.79981 4.78412 3.51809 6.3459 2.76121 8.17316C2.00433 10.0004 1.8063 12.0111 2.19215 13.9509C2.578 15.8907 3.53041 17.6725 4.92894 19.0711C6.32746 20.4696 8.10929 21.422 10.0491 21.8078C11.9889 22.1937 13.9996 21.9957 15.8268 21.2388C17.6541 20.4819 19.2159 19.2002 20.3147 17.5557C21.4135 15.9112 22 13.9778 22 12C22 11.779 21.9122 11.567 21.7559 11.4107C21.5996 11.2545 21.3877 11.1667 21.1667 11.1667ZM11.1667 10.1635L6.3125 5.91667C7.64384 4.667 9.34986 3.89087 11.1667 3.70833V10.1635ZM5.2149 7.17031L10.7813 12.0405L5.55073 17.2708C4.3925 15.8582 3.73196 14.1033 3.67125 12.2775C3.61055 10.4518 4.15306 8.65688 5.2149 7.17042V7.17031ZM12 20.3333C10.0778 20.3351 8.21471 19.6691 6.72917 18.4493L12.3452 12.8333H20.2917C20.0824 14.8878 19.1189 16.7918 17.5874 18.1771C16.0559 19.5624 14.0651 20.3306 12 20.3333Z" fill="#A7AEB8"/>
</svg>
