<svg width="24" height="24" viewBox="0 0 24 24" fill="none" xmlns="http://www.w3.org/2000/svg">
<path d="M15.7946 10.6957V10.7957H15.8946H16.7756H16.8756V10.6957V9.30503H18.3907H18.4907V9.20503V8.49257V8.39257H18.3907H16.8756V7.61705H17.5978C18.4868 7.61705 19.1775 7.40538 19.6528 6.96569L19.6528 6.96569L19.6535 6.9651C20.1279 6.51857 20.3604 5.90534 20.3604 5.13853C20.3604 4.38153 20.1456 3.7889 19.7022 3.3775C19.2649 2.96578 18.6023 2.76963 17.7349 2.76963H15.8946H15.7946V2.86963V6.58402H15.043H14.943V6.68402V7.51705V7.61705H15.043H15.7946V8.39257H15.043H14.943V8.49257V9.20503V9.30503H15.043H15.7946V10.6957ZM18.7958 6.27168L18.7958 6.27168L18.795 6.27219C18.4916 6.47601 18.0541 6.58402 17.4706 6.58402H16.8756V3.80266H17.6566C18.2267 3.80266 18.6251 3.92152 18.8728 4.13944C19.1183 4.35544 19.25 4.6924 19.25 5.17142C19.25 5.7234 19.0896 6.07818 18.7958 6.27168Z" fill="#1A1E32" stroke="#1A1E32" stroke-width="0.2"/>
<path d="M21.1667 11.1667H12.8333V2.83333C12.8333 2.61232 12.7455 2.40036 12.5893 2.24408C12.433 2.0878 12.221 2 12 2C10.0222 2 8.08879 2.58649 6.4443 3.6853C4.79981 4.78412 3.51809 6.3459 2.76121 8.17316C2.00433 10.0004 1.8063 12.0111 2.19215 13.9509C2.578 15.8907 3.53041 17.6725 4.92894 19.0711C6.32746 20.4696 8.10929 21.422 10.0491 21.8078C11.9889 22.1937 13.9996 21.9957 15.8268 21.2388C17.6541 20.4819 19.2159 19.2002 20.3147 17.5557C21.4135 15.9112 22 13.9778 22 12C22 11.779 21.9122 11.567 21.7559 11.4107C21.5996 11.2545 21.3877 11.1667 21.1667 11.1667ZM11.1667 10.1635L6.3125 5.91667C7.64384 4.667 9.34986 3.89087 11.1667 3.70833V10.1635ZM5.2149 7.17031L10.7813 12.0405L5.55073 17.2708C4.3925 15.8582 3.73196 14.1033 3.67125 12.2775C3.61055 10.4518 4.15306 8.65688 5.2149 7.17042V7.17031ZM12 20.3333C10.0778 20.3351 8.21471 19.6691 6.72917 18.4493L12.3452 12.8333H20.2917C20.0824 14.8878 19.1189 16.7918 17.5874 18.1771C16.0559 19.5624 14.0651 20.3306 12 20.3333Z" fill="#1A1E32"/>
</svg>
