<svg width="24" height="24" viewBox="0 0 24 24" fill="none" xmlns="http://www.w3.org/2000/svg">
<path d="M11 12C11 12.825 11.675 13.5 12.5 13.5C13.325 13.5 14 12.825 14 12C14 11.175 13.325 10.5 12.5 10.5C11.675 10.5 11 11.175 11 12ZM6.5 12C6.5 12.825 7.175 13.5 8 13.5C8.825 13.5 9.5 12.825 9.5 12C9.5 11.175 8.825 10.5 8 10.5C7.175 10.5 6.5 11.175 6.5 12ZM15.5 12C15.5 12.825 16.175 13.5 17 13.5C17.825 13.5 18.5 12.825 18.5 12C18.5 11.175 17.825 10.5 17 10.5C16.175 10.5 15.5 11.175 15.5 12Z" fill="#A7AEB8"/>
</svg>
