<svg width="24" height="24" viewBox="0 0 24 24" fill="none" xmlns="http://www.w3.org/2000/svg">
<path d="M12.5442 7.12312L15.9133 11.3093C16.0751 11.4734 16.0037 11.6077 15.7546 11.6077L14.3451 11.6077C14.096 11.6077 13.8921 11.7843 13.8921 12.0001L13.8876 14.5918L13.8876 16.6079C13.8876 16.6088 13.8868 16.6097 13.8858 16.6097C13.8848 16.6097 13.884 16.6105 13.884 16.6114C13.8815 16.8256 13.6787 17 13.4311 17L11.053 17C10.8038 17 10.6 16.8234 10.6 16.6077L10.6079 12.0443L10.6079 11.9987C10.607 11.7836 10.4037 11.6077 10.155 11.6077L8.74554 11.6077C8.49635 11.6077 8.42488 11.4734 8.58654 11.3093L11.9558 7.12307C12.1177 6.95897 12.3824 6.95897 12.5442 7.12312Z" fill="#EB5757"/>
</svg>
