<svg width="24" height="24" viewBox="0 0 24 24" fill="none" xmlns="http://www.w3.org/2000/svg">
<path d="M20.6454 7.84423L20.6454 7.8442L15.8364 1.47214L15.8362 1.47188C15.7756 1.39215 15.7144 1.33371 15.6538 1.28656C15.3917 1.0584 15.0257 0.9 14.689 0.9H4.88881C4.3432 0.9 3.9 1.34377 3.9 1.88824V22.1118C3.9 22.6562 4.3432 23.1 4.88881 23.1H20.0349C20.5799 23.1 21.0237 22.6563 21.0237 22.1118V8.97147C21.0237 8.60565 20.8655 8.13616 20.6454 7.84423ZM18.7286 7.1128L19.3856 7.98266H15.6783V3.06924L18.7285 7.11275L18.7286 7.1128ZM12.6537 13.3355L12.6535 13.3358L12.6612 13.3384C12.6612 13.3384 12.6613 13.3384 12.6616 13.3386C12.6632 13.3391 12.6696 13.3415 12.6817 13.3461C12.6953 13.3513 12.7147 13.3589 12.7396 13.369C12.7894 13.389 12.8609 13.4187 12.951 13.4582C13.1313 13.5374 13.3861 13.656 13.6914 13.8164C14.3021 14.1374 15.114 14.6251 15.9358 15.2976C17.4924 16.5715 19.078 18.5025 19.4114 21.2154C17.9267 18.7024 15.7336 17.1351 13.871 16.1879C11.9094 15.1903 10.307 14.8767 10.2656 14.8702L10.2153 14.8622L10.1793 14.8982L8.53667 16.5409L8.5378 11.671C8.53829 11.319 8.82456 11.0324 9.17677 11.0324H9.17679L14.0455 11.0313L12.5943 12.4611L12.5942 12.4611L12.5917 12.4638L12.1217 12.9627L12.0234 13.0671L12.1553 13.1233L12.6537 13.3355ZM14.8802 10.3851L14.88 10.3849C14.6894 10.1944 14.4092 10.1071 14.0618 10.1071H14.0618L9.17675 10.1082H9.1767C8.3162 10.1088 7.61644 10.8084 7.61642 11.6685C7.61642 11.6685 7.61642 11.6685 7.61642 11.6685L7.61472 16.5535V16.5536C7.61472 16.9 7.70187 17.1816 7.89264 17.3712C8.02308 17.5022 8.21491 17.5939 8.44345 17.5824C8.67197 17.5709 8.92442 17.4572 9.1801 17.2019C9.18022 17.2018 9.18034 17.2017 9.18047 17.2015L10.508 15.8939C11.6841 16.1884 16.3049 17.6092 18.6484 22.0112H4.98881V1.98881H14.5907V8.08323C14.5907 8.62814 15.0332 9.07203 15.5789 9.07203H19.9349V19.0505C18.5741 15.4928 15.1842 13.5491 13.5771 12.8044L14.7091 11.6729C14.7091 11.6729 14.7091 11.6729 14.7092 11.6729C14.965 11.4173 15.0787 11.1648 15.0902 10.9362C15.1017 10.7076 15.0101 10.5157 14.8802 10.3851Z" fill="white" stroke="white" stroke-width="0.2"/>
</svg>
