<svg width="24" height="24" viewBox="0 0 24 24" fill="none" xmlns="http://www.w3.org/2000/svg">
<path d="M23.25 20.2503H12.75C12.336 20.2503 12 19.9143 12 19.5003C12 19.0863 12 4.91431 12 4.50031C12 4.08631 12.336 3.75031 12.75 3.75031H23.25C23.664 3.75031 24 4.08631 24 4.50031V19.5003C24 19.9143 23.664 20.2503 23.25 20.2503Z" fill="#ECEFF1"/>
<path d="M15.75 8.25031H12.75C12.336 8.25031 12 7.91431 12 7.50031C12 7.08631 12.336 6.75031 12.75 6.75031H15.75C16.164 6.75031 16.5 7.08631 16.5 7.50031C16.5 7.91431 16.164 8.25031 15.75 8.25031Z" fill="url(#paint0_linear)"/>
<path d="M15.75 11.2503H12.75C12.336 11.2503 12 10.9143 12 10.5003C12 10.0863 12.336 9.75031 12.75 9.75031H15.75C16.164 9.75031 16.5 10.0863 16.5 10.5003C16.5 10.9143 16.164 11.2503 15.75 11.2503Z" fill="url(#paint1_linear)"/>
<path d="M15.75 14.2503H12.75C12.336 14.2503 12 13.9143 12 13.5003C12 13.0863 12.336 12.7503 12.75 12.7503H15.75C16.164 12.7503 16.5 13.0863 16.5 13.5003C16.5 13.9143 16.164 14.2503 15.75 14.2503Z" fill="url(#paint2_linear)"/>
<path d="M15.75 17.2503H12.75C12.336 17.2503 12 16.9143 12 16.5003C12 16.0863 12.336 15.7503 12.75 15.7503H15.75C16.164 15.7503 16.5 16.0863 16.5 16.5003C16.5 16.9143 16.164 17.2503 15.75 17.2503Z" fill="url(#paint3_linear)"/>
<path d="M20.25 8.25031H18.75C18.336 8.25031 18 7.91431 18 7.50031C18 7.08631 18.336 6.75031 18.75 6.75031H20.25C20.664 6.75031 21 7.08631 21 7.50031C21 7.91431 20.664 8.25031 20.25 8.25031Z" fill="url(#paint4_linear)"/>
<path d="M20.25 11.2503H18.75C18.336 11.2503 18 10.9143 18 10.5003C18 10.0863 18.336 9.75031 18.75 9.75031H20.25C20.664 9.75031 21 10.0863 21 10.5003C21 10.9143 20.664 11.2503 20.25 11.2503Z" fill="url(#paint5_linear)"/>
<path d="M20.25 14.2503H18.75C18.336 14.2503 18 13.9143 18 13.5003C18 13.0863 18.336 12.7503 18.75 12.7503H20.25C20.664 12.7503 21 13.0863 21 13.5003C21 13.9143 20.664 14.2503 20.25 14.2503Z" fill="url(#paint6_linear)"/>
<path d="M20.25 17.2503H18.75C18.336 17.2503 18 16.9143 18 16.5003C18 16.0863 18.336 15.7503 18.75 15.7503H20.25C20.664 15.7503 21 16.0863 21 16.5003C21 16.9143 20.664 17.2503 20.25 17.2503Z" fill="url(#paint7_linear)"/>
<path d="M13.2285 0.923205C13.0575 0.780705 12.828 0.719205 12.612 0.764205L0.612 3.01421C0.2565 3.08021 0 3.38921 0 3.75071V20.2507C0 20.6107 0.2565 20.9212 0.612 20.9872L12.612 23.2372C12.657 23.2462 12.7035 23.2507 12.75 23.2507C12.924 23.2507 13.0935 23.1907 13.2285 23.0782C13.401 22.9357 13.5 22.7227 13.5 22.5007V1.50071C13.5 1.27721 13.401 1.06571 13.2285 0.923205Z" fill="url(#paint8_linear)"/>
<path d="M10.3128 14.5072L7.94132 11.7967L10.3398 8.71268C10.5948 8.38568 10.5348 7.91468 10.2093 7.65968C9.88382 7.40468 9.41282 7.46468 9.15632 7.79017L6.93482 10.6462L5.06282 8.50718C4.78832 8.19218 4.31432 8.16368 4.00532 8.43668C3.69332 8.70968 3.66182 9.18368 3.93482 9.49418L5.99732 11.8522L3.90632 14.5402C3.65132 14.8672 3.71132 15.3382 4.03682 15.5932C4.17482 15.6997 4.33832 15.7507 4.49882 15.7507C4.72232 15.7507 4.94282 15.6517 5.09132 15.4612L7.00382 13.0012L9.18482 15.4927C9.33332 15.6637 9.54032 15.7507 9.74882 15.7507C9.92432 15.7507 10.0998 15.6892 10.2423 15.5647C10.5543 15.2917 10.5858 14.8177 10.3128 14.5072Z" fill="#FAFAFA"/>
<defs>
<linearGradient id="paint0_linear" x1="12" y1="6.75031" x2="13.7255" y2="9.81329" gradientUnits="userSpaceOnUse">
<stop stop-color="#0067B1"/>
<stop offset="1" stop-color="#007ED8"/>
</linearGradient>
<linearGradient id="paint1_linear" x1="12" y1="9.75031" x2="13.7255" y2="12.8133" gradientUnits="userSpaceOnUse">
<stop stop-color="#0067B1"/>
<stop offset="1" stop-color="#007ED8"/>
</linearGradient>
<linearGradient id="paint2_linear" x1="12" y1="12.7503" x2="13.7255" y2="15.8133" gradientUnits="userSpaceOnUse">
<stop stop-color="#0067B1"/>
<stop offset="1" stop-color="#007ED8"/>
</linearGradient>
<linearGradient id="paint3_linear" x1="12" y1="15.7503" x2="13.7255" y2="18.8133" gradientUnits="userSpaceOnUse">
<stop stop-color="#0067B1"/>
<stop offset="1" stop-color="#007ED8"/>
</linearGradient>
<linearGradient id="paint4_linear" x1="18" y1="6.75031" x2="19.9892" y2="9.10441" gradientUnits="userSpaceOnUse">
<stop stop-color="#0067B1"/>
<stop offset="1" stop-color="#007ED8"/>
</linearGradient>
<linearGradient id="paint5_linear" x1="18" y1="9.75031" x2="19.9892" y2="12.1044" gradientUnits="userSpaceOnUse">
<stop stop-color="#0067B1"/>
<stop offset="1" stop-color="#007ED8"/>
</linearGradient>
<linearGradient id="paint6_linear" x1="18" y1="12.7503" x2="19.9892" y2="15.1044" gradientUnits="userSpaceOnUse">
<stop stop-color="#0067B1"/>
<stop offset="1" stop-color="#007ED8"/>
</linearGradient>
<linearGradient id="paint7_linear" x1="18" y1="15.7503" x2="19.9892" y2="18.1044" gradientUnits="userSpaceOnUse">
<stop stop-color="#0067B1"/>
<stop offset="1" stop-color="#007ED8"/>
</linearGradient>
<linearGradient id="paint8_linear" x1="0" y1="0.749695" x2="19.083" y2="7.52443" gradientUnits="userSpaceOnUse">
<stop stop-color="#0067B1"/>
<stop offset="1" stop-color="#007ED8"/>
</linearGradient>
</defs>
</svg>
