<svg width="24" height="24" viewBox="0 0 24 24" fill="none" xmlns="http://www.w3.org/2000/svg">
<path d="M0.957045 11.9544L0.9425 11.9788L0.956035 12.0038L1.12936 12.3238C1.12936 12.3238 1.12936 12.3238 1.12937 12.3238C3.38374 16.4914 7.33958 19.0167 11.72 19.0167C16.1002 19.0167 20.0629 16.5249 22.3107 12.3237C22.3107 12.3236 22.3107 12.3236 22.3108 12.3236L22.484 12.0038L22.497 11.9797L22.4838 11.9558L22.3106 11.6429C22.3106 11.6428 22.3106 11.6428 22.3105 11.6427C20.0562 7.47523 16.1004 4.95 11.72 4.95C7.33997 4.95 3.37764 7.47486 1.14313 11.642L0.957045 11.9544ZM11.72 17.55C7.99495 17.55 4.57148 15.4775 2.57752 11.98C4.57148 8.48253 7.99495 6.41 11.72 6.41C15.4446 6.41 18.8285 8.48877 20.8556 11.98C18.8285 15.4778 15.438 17.55 11.72 17.55Z" fill="#A7AEB8" stroke="#A7AEB8" stroke-width="0.1"/>
<path d="M14.25 12C14.25 13.2426 13.2426 14.25 12 14.25C10.7574 14.25 9.75 13.2426 9.75 12C9.75 10.7574 10.7574 9.75 12 9.75C13.2426 9.75 14.25 10.7574 14.25 12Z" stroke="#A7AEB8" stroke-width="1.5"/>
</svg>
