<svg width="24" height="24" viewBox="0 0 24 24" fill="none" xmlns="http://www.w3.org/2000/svg">
<path d="M21.6782 10.991L20.6551 9.67562L18.6667 11.2221V2.83333C18.6667 2.61232 18.5789 2.40036 18.4226 2.24408C18.2663 2.0878 18.0543 2 17.8333 2H7C6.77919 2.00102 6.5676 2.08866 6.41073 2.24406L2.24406 6.41073C2.08866 6.5676 2.00102 6.77919 2 7V21.1667C2 21.3877 2.0878 21.5996 2.24408 21.7559C2.40036 21.9122 2.61232 22 2.83333 22H17.8333C18.0543 22 18.2663 21.9122 18.4226 21.7559C18.5789 21.5996 18.6667 21.3877 18.6667 21.1667V13.3333L21.6782 10.991ZM6.16667 4.8451V6.16667H4.8451L6.16667 4.8451ZM17 20.3333H3.66667V7.83333H7C7.22101 7.83333 7.43297 7.74554 7.58926 7.58926C7.74554 7.43297 7.83333 7.22101 7.83333 7V3.66667H17V12.5184L13.6292 15.1402L11.6292 13.8069C11.526 13.7381 11.4088 13.6932 11.286 13.6754C11.1633 13.6577 11.0381 13.6676 10.9197 13.7044C10.8013 13.7411 10.6925 13.8039 10.6015 13.888C10.5104 13.9722 10.4392 14.0756 10.3931 14.1907L9.10771 17.4035L7.46187 16.3067C7.30157 16.1998 7.10919 16.1518 6.91747 16.1708C6.72575 16.1898 6.54653 16.2746 6.41031 16.4108L4.74365 18.0775L5.92219 19.256L7.10625 18.0723L9.03781 19.36C9.14141 19.4273 9.25854 19.4709 9.38089 19.4878C9.50325 19.5047 9.62782 19.4945 9.74578 19.4579C9.86374 19.4212 9.97219 19.3591 10.0634 19.2758C10.1547 19.1926 10.2265 19.0903 10.2738 18.9761L11.559 15.7631L13.2048 16.86C13.3503 16.957 13.5227 17.0057 13.6974 16.9993C13.8722 16.9929 14.0405 16.9317 14.1785 16.8244L17 14.6297V20.3333Z" fill="#fff"/>
<path d="M11.8831 12V12.1H11.9831H12.8274H12.9274V12V10.6714H14.3752H14.4752V10.5714V9.88865V9.78865H14.3752H12.9274V9.05378H13.6154C14.4679 9.05378 15.131 8.85079 15.5876 8.42845L15.5883 8.42786C16.0439 7.99899 16.267 7.41012 16.267 6.67437C16.267 5.94811 16.061 5.37893 15.6349 4.98366C15.2148 4.58808 14.5785 4.4 13.7467 4.4H11.9831H11.8831V4.5V8.05546H11.167H11.067V8.15546V8.95378V9.05378H11.167H11.8831V9.78865H11.167H11.067V9.88865V10.5714V10.6714H11.167H11.8831V12ZM14.7611 7.75682L14.7611 7.75682L14.7604 7.75733C14.4706 7.95201 14.0522 8.05546 13.4934 8.05546H12.9274V5.39832H13.6717C14.2176 5.39832 14.5982 5.51216 14.8345 5.72003C15.0686 5.92598 15.1946 6.24757 15.1946 6.70588C15.1946 7.23412 15.0411 7.57245 14.7611 7.75682Z" fill="#fff" stroke="#fff" stroke-width="0.2"/>
<path d="M6.16699 8.66656H9.50032V10.3332H6.16699V8.66656Z" fill="#fff"/>
<path d="M4.5 11.1666H9.5V12.8332H4.5V11.1666Z" fill="#fff"/>
</svg>
