<svg width="127" height="32" viewBox="0 0 127 32" fill="none" xmlns="http://www.w3.org/2000/svg">
<path fill-rule="evenodd" clip-rule="evenodd" d="M12.3037 13.6995H17.2666C17.2666 13.6995 17.2666 6.8239 17.2666 6.20354C17.2666 4.54926 20.0582 4.54927 20.0582 6.30695C20.0582 7.34087 20.0582 13.6478 20.0582 13.6478H24.9693C24.9693 13.6478 24.9693 8.11632 24.9693 6.10016C24.9693 3.41196 22.2811 0 18.6107 0C14.9402 0 12.4071 3.15347 12.4071 5.94507C12.4071 8.73667 12.3037 13.6995 12.3037 13.6995ZM25.0727 19.7997V14.7334C25.0727 14.7334 14.3199 14.7334 10.8045 14.7334L10.7528 10.2875H10.3393C4.54927 10.5977 0 15.3538 0 21.1438C0 27.1406 4.85945 32 10.8562 32C16.853 32 21.7641 27.1398 21.7641 21.1438V20.7302H17.2666C17.2666 20.42 17.2666 20.1098 17.2666 19.7997H25.0727ZM10.8562 19.7997C11.6317 19.7997 12.252 20.3683 12.252 21.1438C12.252 21.9192 11.6317 22.5396 10.8562 22.5396C10.1325 22.5396 9.51212 21.9192 9.51212 21.1438C9.51212 20.3683 10.1325 19.7997 10.8562 19.7997ZM20.8853 21.5573C20.6785 26.9855 16.2843 31.1729 10.8562 31.1729C5.32471 31.1729 0.827136 26.6753 0.827136 21.1438C0.827136 15.9225 4.75606 11.6834 9.97738 11.1664C9.97738 11.3215 9.97738 13.441 9.97738 14.7334C9.92568 14.7334 9.87399 14.7334 9.82229 14.7334C7.65105 14.7334 4.44588 17.525 4.44588 21.3506C4.44588 24.0388 7.03069 27.6058 10.8562 27.6058C14.5784 27.6058 16.6462 25.0727 17.1632 21.5573C18.3522 21.5573 20.7302 21.5573 20.8853 21.5573Z" fill="white"/>
<path fill-rule="evenodd" clip-rule="evenodd" d="M34.7918 7.70279V2.94672H35.5156V7.70279H36.2393L36.1876 9.51215H35.5673V8.27145H31.3799V2.94672H32.1036V7.70279H34.7918Z" fill="white"/>
<path fill-rule="evenodd" clip-rule="evenodd" d="M39.961 6.04844C39.961 5.58318 40.1678 4.75605 41.0984 4.75605C42.0289 4.75605 42.184 5.53148 42.184 6.04844H39.961ZM42.2357 7.18577C42.1323 7.59934 41.7704 8.0129 41.2018 8.0129C40.2712 8.0129 39.961 7.18576 39.961 6.56541H42.9077C42.9077 6.41032 42.9077 6.35863 42.9077 6.30694C42.856 5.4798 42.6492 4.29077 41.0984 4.29077C39.3407 4.29077 39.2373 5.89336 39.2373 6.35863C39.2373 6.7205 39.289 8.42648 41.2018 8.42648C42.3908 8.42648 42.7526 7.70274 42.856 7.18577H42.2357Z" fill="white"/>
<path fill-rule="evenodd" clip-rule="evenodd" d="M46.9924 8.27138H46.3203V4.39417H46.9924V6.04844H48.9051V4.39417H49.5772V8.27138H48.9051V6.51371H46.9924V8.27138Z" fill="white"/>
<path fill-rule="evenodd" clip-rule="evenodd" d="M52.7822 4.91113V4.39417H56.0908V4.91113H54.7467V8.27138H54.1263V4.91113H52.7822Z" fill="white"/>
<path fill-rule="evenodd" clip-rule="evenodd" d="M59.761 6.35863C59.761 4.91113 60.5364 4.75605 60.8983 4.75605C61.6737 4.75605 62.0873 5.3764 62.0873 6.35863C62.0873 7.59934 61.5186 8.0129 60.95 8.0129C60.433 8.0129 59.761 7.54764 59.761 6.35863ZM59.1406 4.39417V9.66719H59.761V7.70274C60.1745 8.37479 60.8983 8.42648 61.0534 8.42648C61.9322 8.42648 62.8111 7.90952 62.8111 6.35863C62.8111 4.91113 62.0356 4.29077 61.0534 4.29077C60.7432 4.29077 60.1745 4.34247 59.761 4.96283V4.39417H59.1406Z" fill="white"/>
<path fill-rule="evenodd" clip-rule="evenodd" d="M68.2394 3.56708H69.6869C70.5664 3.56708 70.6691 4.08405 70.6691 4.39423C70.6691 4.85949 70.4623 5.27306 69.6869 5.27306H68.2394V3.56708ZM67.5156 2.94672V8.27145H69.7385C71.2377 8.27145 71.6513 7.5994 71.6513 6.82396C71.6513 5.89342 70.9786 5.58324 70.514 5.47985C71.031 5.37645 71.4445 4.91118 71.4445 4.34252C71.4445 3.67046 71.1344 2.94672 69.842 2.94672H67.5156L68.2394 5.84172H69.6869C70.4623 5.84172 70.9283 6.10019 70.9283 6.77224C70.9283 7.59938 70.2038 7.70279 69.6869 7.70279H68.2394V5.84172L67.5156 2.94672Z" fill="white"/>
<path fill-rule="evenodd" clip-rule="evenodd" d="M75.7346 8.27138H75.0625V4.39417H75.7346V6.04844H77.6473V4.39417H78.2677V8.27138H77.6473V6.51371H75.7346V8.27138Z" fill="white"/>
<path fill-rule="evenodd" clip-rule="evenodd" d="M82.249 6.04844C82.249 5.58318 82.4557 4.75605 83.438 4.75605C84.3168 4.75605 84.4712 5.53148 84.5236 6.04844H82.249ZM84.5236 7.18577C84.4719 7.59934 84.11 8.0129 83.438 8.0129C82.5584 8.0129 82.249 7.18576 82.249 6.56541H85.1956C85.1956 6.41032 85.1956 6.35863 85.1956 6.30694C85.1956 5.4798 84.9889 4.29077 83.3856 4.29077C81.6796 4.29077 81.5762 5.89336 81.5762 6.35863C81.5762 6.7205 81.5762 8.42648 83.5399 8.42648C84.6772 8.42648 85.0908 7.70274 85.1949 7.18577H84.5236Z" fill="white"/>
<path fill-rule="evenodd" clip-rule="evenodd" d="M91.1407 4.91113V7.85782H89.1246C89.4864 7.23746 89.6932 6.15184 89.6932 5.42809V4.91113H91.1407ZM87.9355 7.85782L87.9873 9.30531H88.5559V8.27138H91.8645V9.30531H92.4324L92.4841 7.85782H91.8121V4.39417H89.0722V5.06622C89.0722 6.51372 88.762 7.28916 88.4518 7.85782H87.9355Z" fill="white"/>
<path fill-rule="evenodd" clip-rule="evenodd" d="M96.052 6.35863C96.052 4.91113 96.8784 4.75605 97.2403 4.75605C97.964 4.75605 98.4293 5.3764 98.4293 6.35863C98.4293 7.59934 97.809 8.0129 97.2403 8.0129C96.7241 8.0129 96.052 7.54764 96.052 6.35863ZM95.4316 4.39417V9.66719H96.1037V7.70274C96.4656 8.37479 97.241 8.42648 97.3961 8.42648C98.2233 8.42648 99.1021 7.90952 99.1021 6.35863C99.1021 4.91113 98.3274 4.29077 97.3451 4.29077C97.0342 4.29077 96.518 4.34247 96.1037 4.96283H96.0527V4.39417H95.4316Z" fill="white"/>
<path fill-rule="evenodd" clip-rule="evenodd" d="M102.721 6.04844C102.67 5.58318 102.877 4.75605 103.91 4.75605C104.737 4.75605 104.944 5.53148 104.944 6.04844H102.721ZM105.047 7.18577C104.892 7.59934 104.583 8.0129 103.91 8.0129C103.031 8.0129 102.721 7.18576 102.721 6.56541H105.72C105.72 6.41032 105.616 6.35863 105.616 6.30694C105.616 5.4798 105.409 4.29077 103.91 4.29077C102.1 4.29077 101.997 5.89336 101.997 6.35863C101.997 6.7205 102.049 8.42648 103.962 8.42648C105.151 8.42648 105.512 7.70274 105.616 7.18577H105.047Z" fill="white"/>
<path fill-rule="evenodd" clip-rule="evenodd" d="M109.596 8.27138H108.924V4.39417H109.596V6.04844H111.509V4.39417H112.181V8.27138H111.509V6.51371H109.596V8.27138Z" fill="white"/>
<path fill-rule="evenodd" clip-rule="evenodd" d="M118.333 4.39417H119.056V8.27138H118.384V5.22129L116.368 8.27138H115.645V4.39417H116.317V7.49595L118.333 4.39417Z" fill="white"/>
<path fill-rule="evenodd" clip-rule="evenodd" d="M124.898 4.91113V6.30693H124.019C123.243 6.30693 123.037 5.94505 123.037 5.63487C123.037 4.91113 123.709 4.91113 123.968 4.91113H124.898ZM124.071 6.77218H124.898V8.27138H125.57V4.39417H123.658C122.624 4.39417 122.365 5.16961 122.365 5.63487C122.365 6.30693 122.83 6.72048 123.347 6.77218L122.313 8.27138H123.038L124.071 6.77218Z" fill="white"/>
<path fill-rule="evenodd" clip-rule="evenodd" d="M45.8026 12.8207V29.8288H41.0465V16.6462H35.6701V29.8288H30.9141V12.8207H45.8026Z" fill="white"/>
<path fill-rule="evenodd" clip-rule="evenodd" d="M56.349 12.8207C61.8289 12.8207 63.6899 16.2326 63.6899 19.3861C63.6899 22.9539 61.467 25.9523 56.9177 25.9523C55.9355 25.9523 55.0566 25.8481 54.1778 25.6413V21.8158C54.6948 22.0226 55.2634 22.1784 55.9355 22.1784C57.6931 22.1784 58.7788 21.1962 58.7788 19.3861C58.7788 18.9216 58.7271 16.6469 55.4702 16.6469H53.299V29.8288H48.4912V12.8207H56.349Z" fill="white"/>
<path fill-rule="evenodd" clip-rule="evenodd" d="M69.9453 21.2989C69.9453 20.3167 70.1521 16.2844 73.7709 16.2844C76.51 16.2844 77.5964 18.7665 77.5964 21.2989C77.5964 23.832 76.51 26.3659 73.7709 26.3659C70.9276 26.3659 69.9453 23.832 69.9453 21.2989ZM65.0342 21.2989C65.0342 26.9855 68.7039 30.2424 73.7709 30.2424C78.8371 30.139 82.5075 26.9855 82.5075 21.2989C82.5075 15.664 78.8371 12.4072 73.7709 12.4072C68.7046 12.4072 65.0342 15.664 65.0342 21.2989Z" fill="white"/>
<path fill-rule="evenodd" clip-rule="evenodd" d="M95.9995 12.8207V16.6462H92.0189V29.8288H87.2628V16.6462H83.2822V12.8207H95.9995Z" fill="white"/>
<path fill-rule="evenodd" clip-rule="evenodd" d="M108.355 16.6462H102.203V26.0025H108.769V29.828H97.3955V12.8199H108.356V16.6462H108.355ZM109.389 21.8158H103.082V18.042H109.389V21.8158Z" fill="white"/>
<path fill-rule="evenodd" clip-rule="evenodd" d="M115.489 12.8207V16.2836C117.402 15.664 119.212 14.2165 120.09 12.8207H125.777C124.898 14.7851 122.572 17.2659 120.349 18.5073C123.088 21.3506 125.362 25.5897 126.19 29.8288H121.279C120.555 25.8481 118.229 22.5913 116.368 20.6785C116.057 20.7826 115.85 20.8853 115.488 20.9894V29.8295H110.732V12.8214H115.489V12.8207Z" fill="white"/>
</svg>
