<?xml version="1.0" encoding="utf-8"?>
<svg xmlns="http://www.w3.org/2000/svg">
<symbol id="active"><path d="M6.456 11.467a.584.584 0 01-.426-.174L3.376 8.64a.596.596 0 010-.853c.24-.24.614-.24.854 0l2.24 2.226 5.32-5.306c.24-.24.613-.24.853 0s.24.613 0 .853l-5.747 5.733a.636.636 0 01-.44.174z"/>
</symbol>
<symbol id="add-manufacture"><path d="M20.147 7.916a1.11 1.11 0 00-1.18.207L17.12 9.618v-.672c0-.453-.27-.857-.688-1.03a1.11 1.11 0 00-1.179.207l-1.848 1.495v-.672c0-.453-.27-.857-.688-1.03a1.11 1.11 0 00-1.18.207l-2.684 2.171-.65-5.856A1.488 1.488 0 006.715 3H5.229c-.803 0-1.46.64-1.485 1.438l-.74 6.655v.04c0 .014-.004.027-.004.041v8.918c0 .41.333.743.743.743h9.413s.826-.03.826-.743-.826-.743-.826-.743l7.679-6.606V8.946c0-.453-.27-.857-.688-1.03zM5.229 4.486h1.487a.76.76 0 00.004.082l.651 5.863H4.573l.652-5.863a.677.677 0 00.004-.082zm14.12 8.257s0 .592.798.592c.688 0 .688-.592.688-.592l-7.679 6.606h-8.67v-7.432h4.459c.17 0 .335-.058.467-.165l2.505-2.025v1.447a.743.743 0 001.21.578l2.506-2.025v1.447a.743.743 0 001.21.578l2.506-2.025v3.016z"/><path d="M20.305 18.392a.695.695 0 100-1.39h-1.913V15.09a.695.695 0 00-1.39 0v1.912H15.09a.695.695 0 000 1.39h1.912v1.913a.695.695 0 101.39 0v-1.913h1.913z"/>
</symbol>
<symbol id="add-users"><path d="M13.424 14.8a6.672 6.672 0 00-1.403-.749 3.58 3.58 0 001.164-2.36 5.239 5.239 0 013.688-1.498 5.26 5.26 0 013.024.948.703.703 0 10.804-1.153 6.682 6.682 0 00-1.402-.749 3.577 3.577 0 001.176-2.653A3.59 3.59 0 0016.889 3a3.59 3.59 0 00-3.586 3.586c0 1.046.45 1.99 1.167 2.645a6.645 6.645 0 00-1.53.832 3.591 3.591 0 00-3.328-2.251 3.59 3.59 0 00-3.586 3.586 3.58 3.58 0 001.16 2.64c-1.907.714-3.453 2.249-4.083 4.206a2.089 2.089 0 00.304 1.889A2.088 2.088 0 005.112 21h6.117a.703.703 0 000-1.406H5.112a.696.696 0 01-.569-.29.697.697 0 01-.101-.63c.695-2.16 2.814-3.669 5.154-3.669a5.26 5.26 0 013.023.948.703.703 0 10.805-1.153zm3.465-10.394c1.202 0 2.18.978 2.18 2.18 0 1.202-.978 2.18-2.18 2.18a2.182 2.182 0 01-2.18-2.18c0-1.202.978-2.18 2.18-2.18zM9.612 9.218c1.201 0 2.18.978 2.18 2.18 0 1.202-.979 2.18-2.18 2.18a2.182 2.182 0 01-2.18-2.18c0-1.202.978-2.18 2.18-2.18zm11.39 8.442a.703.703 0 01-.703.703h-1.934v1.934a.703.703 0 11-1.406 0v-1.934h-1.934a.703.703 0 010-1.406h1.934v-1.934a.703.703 0 011.406 0v1.934H20.3c.388 0 .703.315.703.703z" fill="#fff"/>
</symbol>
<symbol id="alert"><path d="M20.405 20.2h-16.8c-.28 0-.54-.16-.7-.4a.814.814 0 010-.8l8.4-14.8c.14-.26.4-.4.7-.4.3 0 .56.16.7.4l8.4 14.8c.14.24.14.56 0 .8-.16.24-.42.4-.7.4zm-15.42-1.6h14.06l-7.02-12.38-7.04 12.38zm7.82-4.78V10.1c0-.44-.36-.8-.8-.8-.44 0-.8.36-.8.8v3.72c0 .44.36.8.8.8.44 0 .8-.36.8-.8zm-.1 3.32c.18-.18.3-.44.3-.7 0-.26-.1-.52-.3-.7-.18-.18-.44-.3-.7-.3-.26 0-.52.1-.7.3-.18.18-.3.44-.3.7 0 .26.1.52.3.7.18.18.44.3.7.3.26 0 .52-.12.7-.3z"/>
</symbol>
<symbol id="assortment"><path d="M11.434 14.739H9.265v-2.17a.65.65 0 00-1.298 0v2.17h-2.17a.65.65 0 100 1.298h2.17v2.169a.65.65 0 101.298 0v-2.169h2.169a.65.65 0 000-1.298z"/><path d="M22.316 14.055l-.224-.224a2.867 2.867 0 00-3.97-.077c-.077.072.122-.125-1.934 1.93V9.45c0-.975-.917-1.83-1.963-1.83h-.806V6.15h.428c.694 0 1.303-.597 1.303-1.278V2.36c0-.642-.557-1.36-1.303-1.36H3.385c-.746 0-1.303.718-1.303 1.36v2.512c0 .68.609 1.277 1.303 1.277h.341v1.472H3.05C2.038 7.62 1 8.455 1 9.45v11.8c0 .962 1.016 1.905 2.05 1.905h11.175c.279 0 .561-.067.824-.193a2.866 2.866 0 003.057-.646l4.21-4.21a2.868 2.868 0 000-4.051zm-3.357.694a1.568 1.568 0 012.215 0l.224.224c.587.587.613 1.534.06 2.15-.047.054.123-.117-1.658 1.663l-2.44-2.439 1.6-1.598zM9.265 4.851V2.298h1.595v2.553H9.264zm-2.997 0V2.298h1.699v2.553h-1.7zm7.584-2.478V4.84c-.02.02.106.012-1.694.012V2.298H13.8c.02.02.044.053.052.075zM3.38 4.84V2.373a.216.216 0 01.052-.075H4.97v2.553c-1.68 0-1.57.007-1.59-.012zm1.644 1.31h7.097v1.472H5.024V6.149zm-2.726 15.1V9.45c0-.19.38-.531.752-.531h11.175c.336 0 .665.304.665.53v7.533l-1.059 1.06a2.868 2.868 0 00-.21 3.815H3.05c-.354 0-.753-.396-.753-.607zm14.89.148a1.566 1.566 0 01-2.215 0l-.224-.224a1.565 1.565 0 010-2.215l1.694-1.694 2.44 2.44-1.695 1.693z"/>
</symbol>
<symbol id="attach"><path d="M6.611 20.422c-.93 0-1.823-.366-2.486-1.018l-.073-.074A3.487 3.487 0 013 16.833a3.808 3.808 0 011.125-2.711l8.719-8.623a4.877 4.877 0 016.834-.197A4.5 4.5 0 0121 8.519a5.063 5.063 0 01-1.519 3.578l-7.835 7.762a.563.563 0 11-.771-.799l7.813-7.762a3.937 3.937 0 001.187-2.779 3.374 3.374 0 00-.99-2.418 3.752 3.752 0 00-5.254.196l-8.69 8.624a2.689 2.689 0 00-.816 1.912 2.368 2.368 0 00.697 1.688l.074.073a2.61 2.61 0 003.656-.119l7.51-7.425a1.52 1.52 0 00.339-1.602 1.322 1.322 0 00-.29-.434 1.468 1.468 0 00-2.058.073l-5.175 5.13a.563.563 0 01-.793-.798l5.197-5.147a2.6 2.6 0 013.645-.073 2.436 2.436 0 01.698 1.76 2.632 2.632 0 01-.793 1.879l-7.487 7.447a3.887 3.887 0 01-2.734 1.137z"/>
</symbol>
<symbol id="audience"><path d="M14.5 4.5a2.5 2.5 0 10-5 0 2.5 2.5 0 005 0zm-2.5.833a.834.834 0 110-1.667.834.834 0 010 1.667z"/><path d="M15.334 9.5a2.503 2.503 0 00-2.5-2.5h-1.667a2.503 2.503 0 00-2.5 2.5v1.667A.833.833 0 009.5 12h5a.833.833 0 00.834-.833V9.5zm-1.667.833h-3.333V9.5a.834.834 0 01.833-.833h1.667a.834.834 0 01.833.833v.833zm7.5 4.167a2.5 2.5 0 10-5 0 2.5 2.5 0 005 0zm-2.5.833a.833.833 0 110-1.666.833.833 0 010 1.666z"/><path d="M19.5 17h-1.667a2.503 2.503 0 00-2.5 2.5v1.667a.833.833 0 00.833.833h5a.833.833 0 00.834-.833V19.5a2.503 2.503 0 00-2.5-2.5zm.833 3.333H17V19.5a.834.834 0 01.833-.833H19.5a.834.834 0 01.833.833v.833zM7.833 14.5a2.5 2.5 0 10-5 0 2.5 2.5 0 005 0zm-2.5.833a.833.833 0 110-1.666.833.833 0 010 1.666z"/><path d="M6.167 17H4.5A2.503 2.503 0 002 19.5v1.667a.833.833 0 00.833.833h5a.833.833 0 00.834-.833V19.5a2.503 2.503 0 00-2.5-2.5zM7 20.333H3.667V19.5a.834.834 0 01.833-.833h1.667A.834.834 0 017 19.5v.833zm5.834-7.5h-1.667v2.888L9.038 17.14l.925 1.387L12 17.168l2.038 1.359.925-1.387-2.13-1.42v-2.887z"/>
</symbol>
<symbol id="bestseller"><path d="M20.334 20.333v-9.166a.833.833 0 00-.834-.834h-3.333a.833.833 0 00-.834.833v9.167H14.5V14.5a.833.833 0 00-.833-.833h-3.333a.833.833 0 00-.834.833v5.833h-.833v-4.166a.833.833 0 00-.834-.834H4.5a.833.833 0 00-.833.834v4.166H2V22h20v-1.667h-1.666zm-15 0V17H7v3.333H5.333zm5.833 0v-5h1.667v5h-1.667zm5.833 0V12h1.667v8.333H17zm3.008-15.366l.35 1.402 1.617-.404-.833-3.334a.833.833 0 00-1.01-.606l-3.334.833.404 1.617 1.35-.337C13.829 10.964 5.825 12.834 2 12.834V14.5c2.046 0 5.452-.538 8.878-2.05 3.853-1.7 6.916-4.212 9.13-7.483z"/>
</symbol>
<symbol id="block"><path d="M12.336 3.667c-2.386-2.387-6.28-2.387-8.68 0-2.386 2.386-2.386 6.28 0 8.68a6.12 6.12 0 008.667 0c2.413-2.4 2.413-6.294.013-8.68zm-7.92 7.92a5.071 5.071 0 01-.36-6.774l7.134 7.134c-1.987 1.6-4.92 1.493-6.774-.36zm7.534-.4L4.816 4.053a5.051 5.051 0 013.187-1.12c1.293 0 2.6.494 3.586 1.48 1.854 1.854 1.96 4.787.36 6.774z"/>
</symbol>
<symbol id="categories"><path d="M9.832 3.75h-4.52c-.861 0-1.562.7-1.562 1.563v4.52c0 .861.7 1.562 1.563 1.562h4.52c.861 0 1.562-.7 1.562-1.563v-4.52c0-.861-.7-1.562-1.563-1.562zm.565 6.082a.566.566 0 01-.565.565h-4.52a.565.565 0 01-.564-.565v-4.52c0-.31.254-.564.565-.564h4.52c.31 0 .564.254.564.565v4.52zm8.29-6.082h-4.52c-.862 0-1.563.7-1.563 1.563v4.52c0 .861.701 1.562 1.563 1.562h4.52c.862 0 1.563-.7 1.563-1.563v-4.52c0-.861-.701-1.562-1.563-1.562zm.564 6.082a.565.565 0 01-.564.565h-4.52a.565.565 0 01-.564-.565v-4.52c0-.31.253-.564.564-.564h4.52c.31 0 .564.254.564.565v4.52zm-9.419 2.773h-4.52c-.861 0-1.562.7-1.562 1.563v4.52c0 .861.7 1.562 1.563 1.562h4.52c.861 0 1.562-.7 1.562-1.563v-4.52c0-.861-.7-1.562-1.563-1.562zm.565 6.082a.565.565 0 01-.565.564h-4.52a.565.565 0 01-.564-.564v-4.52c0-.31.254-.564.565-.564h4.52c.31 0 .564.254.564.565v4.52zm8.29-6.082h-4.52c-.862 0-1.563.7-1.563 1.563v4.52c0 .861.701 1.562 1.563 1.562h4.52c.862 0 1.563-.7 1.563-1.563v-4.52c0-.861-.701-1.562-1.563-1.562zm.564 6.082a.565.565 0 01-.564.564h-4.52a.565.565 0 01-.564-.564v-4.52c0-.31.253-.564.564-.564h4.52c.31 0 .564.254.564.565v4.52z" stroke="#1A1E32" stroke-width=".5"/>
</symbol>
<symbol id="chevron-down"><path d="M11.803 15.803c-.22 0-.42-.08-.58-.24l-5-5.2c-.3-.32-.3-.82.02-1.14.32-.3.82-.3 1.14.02l4.42 4.6 4.42-4.6c.3-.32.82-.32 1.14-.02.32.3.32.82.02 1.14l-5 5.2c-.16.16-.36.24-.58.24z"/>
</symbol>
<symbol id="close"><path d="M12.94 12l4.86-4.86a.667.667 0 00-.94-.94L12 11.06 7.14 6.193a.667.667 0 00-.94.94L11.06 12l-4.867 4.86a.667.667 0 10.94.94L12 12.94l4.86 4.86a.666.666 0 00.94-.94L12.94 12z"/>
</symbol>
<symbol id="date"><path d="M10.749 13.516c0 .718.584 1.302 1.302 1.302h1.53c.718 0 1.302-.584 1.302-1.302v-1.53c0-.718-.584-1.302-1.302-1.302h-1.53c-.718 0-1.302.584-1.302 1.302v1.53zm1.302-1.53h1.53v1.53h-1.53v-1.53zm2.181-2.832a.651.651 0 100-1.302.651.651 0 000 1.302zm-2.832 0a.651.651 0 100-1.302.651.651 0 000 1.302z" fill="#C4CCD8"/><path d="M17.683 13.125a.65.65 0 00.65-.651V5.573a2.607 2.607 0 00-2.603-2.604h-.847v-.651a.651.651 0 10-1.302 0v.65H10.62v-.65a.651.651 0 00-1.302 0v.65h-2.93v-.65a.651.651 0 10-1.302 0v.65h-.814a2.607 2.607 0 00-2.604 2.605v10.156a2.607 2.607 0 002.604 2.604H15.73a2.607 2.607 0 002.604-2.604.651.651 0 10-1.302 0c0 .718-.584 1.302-1.303 1.302H4.271A1.304 1.304 0 012.97 15.73V5.573c0-.718.584-1.302 1.302-1.302h.814v.65a.651.651 0 101.302 0v-.65h2.93v.65a.651.651 0 101.302 0v-.65h2.962v.65a.651.651 0 101.302 0v-.65h.847c.718 0 1.302.584 1.302 1.302v6.901c0 .36.291.651.65.651z" fill="#C4CCD8"/><path d="M5.736 14.818a.651.651 0 100-1.302.651.651 0 000 1.302zm0-5.664a.651.651 0 100-1.302.651.651 0 000 1.302zm0 2.832a.651.651 0 100-1.302.651.651 0 000 1.302zm2.832 0a.651.651 0 100-1.302.651.651 0 000 1.302zm0-2.832a.651.651 0 100-1.302.651.651 0 000 1.302zm0 5.664a.651.651 0 100-1.302.651.651 0 000 1.302z" fill="#C4CCD8"/>
</symbol>
<symbol id="detail-sales"><path d="M15.796 10.696v.1h1.08V9.305h1.616v-.912h-1.615v-.776h.722c.889 0 1.58-.212 2.055-.651h0v-.001c.475-.446.707-1.06.707-1.827 0-.757-.214-1.35-.658-1.76-.437-.412-1.1-.608-1.967-.608h-1.94v3.814h-.852v1.033h.852v.776h-.852v.912h.852v1.39zm3-4.424h0c-.303.204-.741.312-1.325.312h-.595V3.803h.781c.57 0 .97.118 1.217.336.245.216.377.553.377 1.032 0 .552-.16.907-.454 1.1z" fill="#1A1E32" stroke="#1A1E32" stroke-width=".2"/><path d="M21.167 11.167h-8.334V2.833A.834.834 0 0012 2a10 10 0 1010 10 .833.833 0 00-.833-.833zm-10-1.003L6.313 5.917a8.306 8.306 0 014.854-2.209v6.456zM5.215 7.17l5.566 4.87-5.23 5.23a8.31 8.31 0 01-.336-10.1zM12 20.333a8.294 8.294 0 01-5.27-1.884l5.615-5.616h7.947a8.346 8.346 0 01-8.292 7.5z" fill="#1A1E32"/>
</symbol>
<symbol id="dots"><path d="M11 12c0 .825.675 1.5 1.5 1.5S14 12.825 14 12s-.675-1.5-1.5-1.5-1.5.675-1.5 1.5zm-4.5 0c0 .825.675 1.5 1.5 1.5s1.5-.675 1.5-1.5-.675-1.5-1.5-1.5-1.5.675-1.5 1.5zm9 0c0 .825.675 1.5 1.5 1.5s1.5-.675 1.5-1.5-.675-1.5-1.5-1.5-1.5.675-1.5 1.5z"/>
</symbol>
<symbol id="down-sales"><path d="M12.544 7.123l3.37 4.186c.161.164.09.299-.16.299h-1.409c-.249 0-.453.176-.453.392l-.004 2.592v2.016l-.002.002-.002.001c-.002.215-.205.389-.453.389h-2.378c-.25 0-.453-.177-.453-.392l.008-4.564V12c-.001-.215-.204-.391-.453-.391h-1.41c-.249 0-.32-.135-.158-.299l3.369-4.186a.413.413 0 01.588 0z"/>
</symbol>
<symbol id="email-report"><path d="M20.645 7.844h0l-4.809-6.372h0a.986.986 0 00-.182-.185c-.262-.229-.628-.387-.965-.387h-9.8a.99.99 0 00-.989.988v20.224a.99.99 0 00.989.988h15.146a.99.99 0 00.989-.988V8.972c0-.366-.159-.836-.379-1.128zm-1.916-.731l.657.87h-3.708V3.069l3.05 4.044h0zm-6.075 6.222h0l.007.003s0 0 0 0a.76.76 0 01.079.031 11.87 11.87 0 01.952.447 13.5 13.5 0 012.244 1.482c1.556 1.274 3.142 3.205 3.475 5.917-1.484-2.513-3.677-4.08-5.54-5.027-1.962-.998-3.564-1.311-3.605-1.318l-.05-.008-.037.036-1.642 1.643v-4.87a.64.64 0 01.64-.639h4.869l-1.452 1.43h0l-.002.002-.47.499-.099.104.132.056.499.213zm2.226-2.95h0c-.19-.19-.47-.278-.818-.278h0l-4.885.001h0c-.86 0-1.56.7-1.56 1.56 0 0 0 0 0 0l-.002 4.886v0c0 .346.087.628.278.817a.72.72 0 00.55.211c.229-.011.481-.125.737-.38 0 0 0 0 0 0l1.328-1.308c1.176.294 5.797 1.715 8.14 6.117H4.988V1.99h9.603v6.094a.99.99 0 00.988.989h4.356v9.979c-1.36-3.558-4.75-5.502-6.358-6.247l1.132-1.131s0 0 0 0c.256-.256.37-.508.381-.737a.724.724 0 00-.21-.55z" fill="#fff" stroke="#fff" stroke-width=".2"/>
</symbol>
<symbol id="eye"><path d="M.957 11.954l-.014.025.013.025.173.32s0 0 0 0c2.255 4.167 6.21 6.693 10.591 6.693 4.38 0 8.343-2.492 10.59-6.693 0 0 0 0 0 0l.174-.32.013-.024-.013-.024-.173-.313s0 0 0 0C20.056 7.475 16.1 4.95 11.72 4.95c-4.38 0-8.342 2.525-10.577 6.692l-.186.312zM11.72 17.55c-3.725 0-7.149-2.073-9.142-5.57C4.57 8.483 7.995 6.41 11.72 6.41c3.725 0 7.108 2.079 9.136 5.57-2.028 3.498-5.418 5.57-9.136 5.57z" fill="#A7AEB8" stroke="#A7AEB8" stroke-width=".1"/><path d="M14.25 12a2.25 2.25 0 11-4.5 0 2.25 2.25 0 014.5 0z" stroke="#A7AEB8" stroke-width="1.5"/>
</symbol>
<symbol id="format"><path d="M21.678 10.991l-1.023-1.315-1.988 1.546V2.833A.833.833 0 0017.833 2H7a.843.843 0 00-.59.244L2.245 6.411A.843.843 0 002 7v14.167a.833.833 0 00.833.833h15a.833.833 0 00.834-.833v-7.834l3.011-2.342zM6.167 4.845v1.322H4.845l1.322-1.322zM17 20.333H3.667v-12.5H7A.833.833 0 007.833 7V3.667H17v8.851l-3.37 2.622-2-1.333a.834.834 0 00-1.237.384l-1.285 3.213-1.646-1.097a.833.833 0 00-1.052.104l-1.666 1.666 1.178 1.179 1.184-1.184 1.932 1.288a.84.84 0 001.236-.384l1.285-3.213 1.646 1.097a.833.833 0 00.973-.036L17 14.63v5.703z"/><path d="M11.883 12v.1h1.044v-1.429h1.548V9.79h-1.548v-.735h.688c.853 0 1.516-.203 1.973-.626h0c.456-.429.679-1.018.679-1.754 0-.726-.206-1.295-.632-1.69-.42-.396-1.056-.584-1.888-.584h-1.864v3.654h-.816v.999h.816v.735h-.816v.882h.816V12zm2.878-4.243h0c-.29.195-.709.298-1.268.298h-.566V5.398h.745c.546 0 .926.114 1.162.322.235.206.36.528.36.986 0 .528-.153.866-.433 1.05z" stroke="#1A1E32" stroke-width=".2"/><path d="M6.167 8.667H9.5v1.666H6.167V8.667zm-1.667 2.5h5v1.666h-5v-1.666z"/>
</symbol>
<symbol id="info"><path fill-rule="evenodd" clip-rule="evenodd" d="M8.5 10.5V6h-2v1h1v3.5H6v1h4v-1H8.5zm-.5-7A.75.75 0 108 5a.75.75 0 000-1.5zM8 15a7 7 0 117-7 7.008 7.008 0 01-7 7zM8 2a6 6 0 106 6 6.007 6.007 0 00-6-6z"/>
</symbol>
<symbol id="inside"><path d="M21.727 11.55l-3.081-2.8 1.362-1.59.368 1.105 1.581-.527-.833-2.5a.833.833 0 00-.79-.57h-2.5v1.666h.687l-1.109 1.294-4.851-4.41a.833.833 0 00-1.122 0L2.273 11.55a.833.833 0 00.56 1.45H4.5v6.667a.833.833 0 00.833.833h13.334a.833.833 0 00.833-.833V13h1.667a.834.834 0 00.56-1.45zm-10.56 7.283V15.5h1.666v3.333h-1.666zm7.5-7.5a.833.833 0 00-.834.834v6.666H14.5v-4.166a.833.833 0 00-.833-.834h-3.334a.833.833 0 00-.833.834v4.166H6.167v-6.666a.833.833 0 00-.834-.834H4.99L12 4.96l4.328 3.933-1.146 1.337-1.885-1.257a.833.833 0 00-1.156.232l-1.259 1.887-1.008-.504a.834.834 0 00-.962.156l-1.667 1.667 1.179 1.178 1.242-1.242 1.129.565a.833.833 0 001.066-.283l1.204-1.807 1.807 1.205a.833.833 0 001.095-.151l1.595-1.861 1.45 1.318h-.344z"/>
</symbol>
<symbol id="lenta"><path d="M21.003 18.79H7.629a.998.998 0 110-1.996h13.373a.998.998 0 010 1.995zm0-6.265H7.629a.998.998 0 110-1.996h13.373a.998.998 0 010 1.996zm0-6.264H7.629a.998.998 0 110-1.996h13.373a.998.998 0 010 1.996zM3.34 6.68a1.34 1.34 0 100-2.68 1.34 1.34 0 000 2.68zm0 6.187a1.34 1.34 0 100-2.68 1.34 1.34 0 000 2.68zm0 6.188a1.34 1.34 0 100-2.681 1.34 1.34 0 000 2.68z"/>
</symbol>
<symbol id="logout"><path d="M22.793 11.664l.024-.032.029-.04c.009-.013.016-.026.024-.04l.022-.037.02-.041c.006-.014.013-.026.018-.04l.016-.041.015-.044.01-.041c.004-.015.009-.03.012-.046l.007-.048.006-.04a.928.928 0 000-.181l-.006-.04-.007-.049-.012-.045-.01-.042-.015-.043-.016-.041c-.005-.014-.012-.027-.018-.04l-.02-.042-.022-.037c-.008-.013-.015-.027-.024-.04l-.029-.039-.024-.033a.929.929 0 00-.061-.067l-2.75-2.75a.917.917 0 00-1.296 1.297l1.185 1.185h-5.12a.917.917 0 000 1.833h5.12l-1.185 1.185a.917.917 0 101.296 1.296l2.75-2.75a.907.907 0 00.06-.067z" fill="#A7AEB8"/><path d="M16.583 13.833a.917.917 0 00-.916.916v4.584H12V4.667a.917.917 0 00-.653-.878l-3.185-.956h7.505v4.583a.917.917 0 001.833 0v-5.5A.917.917 0 0016.583 1H1.917a.912.912 0 00-.08.004.878.878 0 00-.812.7l-.001.008a.93.93 0 00-.013.066l-.001.01a.916.916 0 00-.01.164V20.25c0 .437.309.813.737.899l9.167 1.833A.917.917 0 0012 22.083v-.917h4.583c.506 0 .917-.41.917-.917v-5.5a.917.917 0 00-.917-.916zm-6.416 7.132l-7.333-1.467V3.15l7.333 2.2v15.616z" fill="#A7AEB8"/>
</symbol>
<symbol id="manufacturing"><path d="M21.967 7.154a1.344 1.344 0 00-1.428.25L18.3 9.216v-.814c0-.548-.327-1.038-.833-1.247a1.344 1.344 0 00-1.428.251L13.8 9.215v-.814c0-.548-.327-1.038-.833-1.247a1.344 1.344 0 00-1.428.251l-3.252 2.629L7.5 2.942A1.802 1.802 0 005.7 1.2H3.9c-.973 0-1.768.776-1.799 1.742l-.895 8.059c-.002.017 0 .033 0 .05-.002.016-.006.032-.006.049v10.8a.9.9 0 00.9.9h19.8a.9.9 0 00.9-.9V8.4c0-.547-.327-1.037-.833-1.246zM3.9 3h1.8a.92.92 0 00.006.1l.788 7.1H3.106l.788-7.1A.819.819 0 003.9 3zM21 21H3v-9h5.4c.206 0 .406-.07.566-.2L12 9.347V11.1a.9.9 0 001.466.7L16.5 9.347V11.1a.9.9 0 001.466.7L21 9.347V21z"/><path d="M8.4 13.8h-.9a.9.9 0 000 1.8h.9a.9.9 0 000-1.8zm4.05 0h-.9a.9.9 0 000 1.8h.9a.9.9 0 000-1.8zm4.05 0h-.9a.9.9 0 000 1.8h.9a.9.9 0 000-1.8zm-8.1 3.6h-.9a.9.9 0 000 1.8h.9a.9.9 0 000-1.8zm4.05 0h-.9a.9.9 0 000 1.8h.9a.9.9 0 000-1.8zm4.05 0h-.9a.9.9 0 000 1.8h.9a.9.9 0 000-1.8z"/>
</symbol>
<symbol id="origin"><path d="M20.5 5.333V3.667h-1.667V2h-1.666v2.083l-1.324.993a7.498 7.498 0 10-6.176 12.71v2.547h-2.5V22h6.666v-1.667h-2.5v-2.547a7.495 7.495 0 005.54-11.4l1.405-1.053H20.5zm-6.667 5a3.34 3.34 0 11-1.39-2.706l-.71.532a2.501 2.501 0 101.094 1.262l.685-.514c.212.446.322.933.321 1.426zm-2.5 0a.833.833 0 11-1.665 0 .833.833 0 011.665 0zm5 0a5.844 5.844 0 11-1.839-4.245l-.678.508a5 5 0 101.047 1.299l.67-.504a5.79 5.79 0 01.8 2.942z"/>
</symbol>
<symbol id="pencil"><path d="M17.93 2.977a3.073 3.073 0 00-2.18.914L3.89 15.75l-.046.235-.82 4.125-.235 1.1 1.102-.233 4.125-.82.234-.048L20.11 8.25a3.058 3.058 0 000-4.36 3.073 3.073 0 00-2.18-.913zm0 1.43c.377 0 .758.172 1.124.538.73.73.73 1.52 0 2.25l-.538.516-2.228-2.227.516-.538c.367-.367.747-.54 1.125-.54zm-2.695 2.132l2.226 2.227-9.07 9.069a5.11 5.11 0 00-2.228-2.226l9.072-9.07zM5.203 16.83a3.551 3.551 0 011.97 1.968l-2.462.492.492-2.46z"/>
</symbol>
<symbol id="picks-of-sales"><path d="M15.021 8.667a6.666 6.666 0 106.667 6.666 6.674 6.674 0 00-6.667-6.666zm0 11.666a5 5 0 110-10 5 5 0 010 10z"/><path d="M13.716 19.5v.1h1.044v-1.429h1.548v-.882H14.76v-.735h.688c.853 0 1.516-.203 1.973-.625v-.001c.456-.429.679-1.018.679-1.754 0-.726-.206-1.295-.632-1.69-.42-.396-1.056-.584-1.888-.584h-1.864v3.656H12.9v.998h.816v.735H12.9v.882h.816V19.5zm2.878-4.243h0c-.29.195-.709.299-1.268.299h-.566v-2.658h.745c.546 0 .926.114 1.162.322.235.206.36.528.36.986 0 .528-.153.867-.433 1.05z" stroke="#1A1E32" stroke-width=".2"/><path d="M20.854 2h-3.333v1.667h1.166l-2.937 2.35-2.857-1.429a.833.833 0 00-.961.156l-2.97 2.969-2.011-.67a.834.834 0 00-.784.14L2 10.516l1.042 1.301 3.812-3.05 2.07.69a.833.833 0 00.853-.201l2.908-2.909 2.796 1.398a.833.833 0 00.894-.094l3.646-2.917v1.433h1.666V2.833A.833.833 0 0020.855 2z"/>
</symbol>
<symbol id="pills"><path d="M20.286 12.04c-.026-.025-.054-.045-.082-.066a5.866 5.866 0 00-2.268-1.358l.202-.201a4.547 4.547 0 001.35-3.247c0-1.224-.48-2.373-1.35-3.236l-.59-.587A4.575 4.575 0 0014.298 2h-.004a4.59 4.59 0 00-3.257 1.344l-7.685 7.65A4.535 4.535 0 002 14.23c0 1.226.479 2.38 1.35 3.247l.59.587a4.587 4.587 0 003.258 1.345h.004a4.57 4.57 0 003.25-1.345l.111-.11c.278.857.75 1.625 1.364 2.258.022.028.042.056.067.082.025.025.054.045.082.066A5.852 5.852 0 0016.14 22c3.23 0 5.86-2.617 5.86-5.833 0-1.571-.63-2.996-1.648-4.046-.021-.028-.04-.056-.066-.08zm-7.636 6.422a4.124 4.124 0 01-.696-2.295c0-2.298 1.878-4.167 4.186-4.167a4.17 4.17 0 012.306.693l-5.796 5.769zm-.43-13.94a2.92 2.92 0 012.073-.855h.003a2.91 2.91 0 012.068.856l.591.588a2.903 2.903 0 010 4.125l-1.118 1.113a5.837 5.837 0 00-3.2 1.152L8.923 7.804l3.296-3.281zM7.2 17.743h-.002a2.92 2.92 0 01-2.074-.857l-.59-.587a2.893 2.893 0 01-.86-2.067c0-.778.306-1.508.86-2.059l3.205-3.19 3.714 3.698a5.774 5.774 0 00-1.158 3.184l-1.027 1.022a2.91 2.91 0 01-2.068.856zm8.94 2.591a4.17 4.17 0 01-2.306-.693l5.796-5.769c.439.659.696 1.448.696 2.296 0 2.297-1.878 4.166-4.186 4.166z"/>
</symbol>
<symbol id="profile"><path d="M3.62 19.064h0a10.962 10.962 0 0016.76 0h0A10.967 10.967 0 0022.959 12c0-2.927-1.14-5.68-3.21-7.75A10.888 10.888 0 0012 1.04c-2.926 0-5.679 1.14-7.748 3.21A10.888 10.888 0 001.04 12c0 2.583.916 5.092 2.58 7.064zM2.504 12c0-5.236 4.26-9.495 9.496-9.495 5.236 0 9.495 4.26 9.495 9.495a9.502 9.502 0 01-3.355 7.244l.032.038-.032-.038a9.497 9.497 0 01-12.28 0l-.032.038.032-.038A9.502 9.502 0 012.504 12z" stroke="#A7AEB8" stroke-width=".1"/><path d="M7.86 7.91A4.146 4.146 0 0012 12.05a4.146 4.146 0 004.141-4.14 4.145 4.145 0 00-4.14-4.142A4.146 4.146 0 007.858 7.91zm1.463 0A2.68 2.68 0 0112 5.231a2.68 2.68 0 012.677 2.677A2.68 2.68 0 0112 10.586 2.68 2.68 0 019.323 7.91z" stroke="#A7AEB8" stroke-width=".1"/><path d="M18.435 20.512h0a.733.733 0 00.888-.532c.15-.6.227-1.22.227-1.844a7.505 7.505 0 00-2.176-5.303 7.505 7.505 0 00-5.267-2.246h0-.01 0H12h0-.097 0-.01 0a7.505 7.505 0 00-5.267 2.246 7.505 7.505 0 00-2.176 5.303c0 .624.076 1.244.227 1.844a.732.732 0 101.42-.356 6.114 6.114 0 01-.183-1.488c0-3.308 2.69-6.038 5.997-6.085 0 0 0 0 0 0L12 12.05h.09s0 0 0 0c3.306.048 5.996 2.778 5.996 6.086 0 .504-.061 1.004-.183 1.488-.098.392.14.79.532.888z" stroke="#A7AEB8" stroke-width=".1"/>
</symbol>
<symbol id="region"><path d="M21.155 20.807l-2.984-2.984a4.205 4.205 0 00.154-4.396 8.436 8.436 0 10-6.374 5.307 4.207 4.207 0 005.027.282L19.962 22l1.193-1.193zm-10.399-3.696a.78.78 0 01-.32.075c-.712 0-1.645-1.25-2.156-3.374h2.509a4.208 4.208 0 00-.033 3.299zm1.37-4.987H7.994a16.093 16.093 0 010-3.374h4.884a15.9 15.9 0 01.042 2.905 4.217 4.217 0 00-.794.47zm-1.69-8.435c.71 0 1.644 1.249 2.155 3.374H8.28c.51-2.125 1.443-3.374 2.154-3.374zm4.14 5.061h2.395a6.785 6.785 0 01.031 3.248 4.193 4.193 0 00-2.349-.717h-.02a18.074 18.074 0 00-.057-2.531zm1.7-1.687h-1.95a10.87 10.87 0 00-.891-2.669 6.795 6.795 0 012.841 2.669zm-8.84-2.669a10.832 10.832 0 00-.891 2.669h-1.95a6.795 6.795 0 012.841-2.669zM3.901 8.75h2.395a18.097 18.097 0 000 3.374H3.9a6.772 6.772 0 010-3.374zm.694 5.062h1.95c.18.924.48 1.821.891 2.668a6.795 6.795 0 01-2.841-2.668zm10.058 4.217a2.53 2.53 0 110-5.061 2.53 2.53 0 010 5.061z"/>
</symbol>
<symbol id="remove"><path d="M18.485 8.68l-.62 11.56c-.02.42-.38.76-.8.76H6.925c-.42 0-.78-.34-.8-.76l-.62-11.56c-.02-.44.32-.82.76-.84.44-.02.82.32.84.76l.58 10.8h8.62l.58-10.8c.02-.44.4-.78.84-.76.44.02.78.4.76.84zM20.605 6c0 .44-.36.8-.8.8h-15.6c-.44 0-.8-.36-.8-.8 0-.44.36-.8.8-.8h4.4V3.4c0-.38.26-.6.64-.6h5.52c.38 0 .64.22.64.6v1.8h4.4c.44 0 .8.36.8.8zm-10.6-.8h4v-1h-4v1zm.34 13c.4 0 .7-.38.7-.76l-.2-8.64c0-.38-.32-.7-.72-.7-.38 0-.7.32-.68.72l.2 8.66c0 .38.32.72.7.72zm3.3 0c.38 0 .7-.32.7-.7l.2-8.64c0-.38-.3-.72-.68-.72-.4 0-.7.3-.72.68l-.2 8.64c-.02.4.3.74.7.74-.02 0-.02 0 0 0z" fill="#A7AEB8" opacity=".5"/>
</symbol>
<symbol id="sales"><path d="M12 1.9c2.687 0 5.221 1.054 7.134 2.966A10.029 10.029 0 0122.1 12c0 2.687-1.054 5.221-2.966 7.134A10.029 10.029 0 0112 22.1a10.029 10.029 0 01-7.134-2.966A10.029 10.029 0 011.9 12c0-2.687 1.054-5.221 2.966-7.134L12 1.9zm0 0a10.029 10.029 0 00-7.134 2.966L12 1.9zm0 18.828c-4.813 0-8.728-3.915-8.728-8.728S7.187 3.272 12 3.272 20.728 7.187 20.728 12 16.813 20.728 12 20.728z" stroke="#fff" stroke-width=".2"/><path d="M9.952 17.08v.1h1.486v-1.943h2.357v-1.131h-2.357v-1.07h1.1c1.288 0 2.282-.274 2.964-.838h0c.683-.574 1.022-1.366 1.022-2.363 0-.984-.313-1.748-.95-2.276-.626-.527-1.578-.78-2.836-.78H9.952v4.97H8.71v1.289h1.242v1.07H8.71v1.13h1.242v1.842zm4.364-5.744h0c-.455.273-1.106.415-1.964.415h-.914V8.065h1.186c.839 0 1.435.156 1.81.45.369.29.561.738.561 1.364 0 .72-.233 1.195-.679 1.457h0z" stroke="#fff" stroke-width=".2"/>
</symbol>
<symbol id="search"><path d="M20.89 19.83l-5.229-5.23a7.088 7.088 0 001.589-4.475A7.133 7.133 0 0010.125 3 7.133 7.133 0 003 10.125a7.133 7.133 0 007.125 7.125 7.088 7.088 0 004.476-1.589l5.229 5.23a.375.375 0 00.53 0l.53-.531a.375.375 0 000-.53zm-10.765-4.08A5.631 5.631 0 014.5 10.125 5.631 5.631 0 0110.125 4.5a5.631 5.631 0 015.625 5.625 5.631 5.631 0 01-5.625 5.625z" fill="#C4CCD8"/>
</symbol>
<symbol id="send"><path d="M20.782 3.218a.75.75 0 00-.787-.173l-16.5 6a.75.75 0 000 1.402l7.2 2.88 2.88 7.2a.75.75 0 00.675.473.75.75 0 00.69-.495l6-16.5a.75.75 0 00-.158-.787zM14.25 18.15l-2.093-5.25 3.593-3.592-1.058-1.058-3.622 3.623L5.85 9.75l13.147-4.747L14.25 18.15z"/>
</symbol>
<symbol id="statistic"><path d="M16.167 3.667v16.666h-1.25V7c0-.92-.748-1.667-1.667-1.667h-2.5c-.92 0-1.667.748-1.667 1.667v13.333h-1.25v-10c0-.919-.747-1.666-1.666-1.666h-2.5c-.92 0-1.667.747-1.667 1.666v10.834c0 .46.373.833.833.833h18.334c.46 0 .833-.373.833-.833v-17.5C22 2.747 21.253 2 20.333 2h-2.5c-.919 0-1.666.747-1.666 1.667zM10.75 7h2.5v13.333h-2.5V7zm-4.583 3.333v10h-2.5v-10h2.5zm14.166-6.666v16.666h-2.5V3.667h2.5z" fill="#fff"/>
</symbol>
<symbol id="up-sales"><path d="M11.456 7.123l-3.37 4.186c-.161.164-.09.299.16.299h1.409c.249 0 .453.176.453.392l.004 2.592v2.016l.002.002.002.001c.002.215.205.389.453.389h2.378c.25 0 .453-.177.453-.392l-.008-4.564V12c.001-.215.204-.391.453-.391h1.41c.249 0 .32-.135.159-.299l-3.37-4.186a.413.413 0 00-.588 0z"/>
</symbol>
<symbol id="users"><mask id="a" maskUnits="userSpaceOnUse" x="0" y="4" width="24" height="17"><path d="M0 4h24v17H0z"/><path d="M20.027 11.6a2.76 2.76 0 001.07-2.206c0-1.491-1.122-2.697-2.51-2.697-1.39 0-2.513 1.206-2.513 2.697 0 .911.423 1.72 1.071 2.206a4.296 4.296 0 00-1.484.935 5.527 5.527 0 00-2.037-1.192c.918-.598 1.536-1.687 1.536-2.926C15.16 6.529 13.737 5 11.978 5 10.22 5 8.796 6.533 8.796 8.417c0 1.239.614 2.328 1.537 2.926a5.573 5.573 0 00-2.016 1.178 4.328 4.328 0 00-1.467-.916 2.76 2.76 0 001.071-2.206C7.921 7.907 6.798 6.7 5.41 6.7c-1.389 0-2.512 1.206-2.512 2.698 0 .911.422 1.72 1.07 2.206C2.242 12.245 1 14.007 1 16.078v.309c0 .01.009.018.017.018h5.324c-.03.258-.048.524-.048.79v.318C6.293 18.887 7.33 20 8.61 20h6.747c1.28 0 2.316-1.113 2.316-2.487v-.318a6.76 6.76 0 00-.048-.79h5.359c.008 0 .017-.009.017-.018v-.309c-.009-2.075-1.245-3.837-2.973-4.478zM16.77 9.39c0-1.076.814-1.95 1.815-1.95s1.815.874 1.815 1.95c0 1.06-.796 1.925-1.78 1.948h-.07c-.988-.018-1.78-.883-1.78-1.949zm-7.287-.973c0-1.472 1.114-2.67 2.486-2.67 1.37 0 2.485 1.198 2.485 2.67 0 1.421-1.04 2.585-2.342 2.664h-.287c-1.302-.08-2.342-1.243-2.342-2.664zm-5.903.972c0-1.075.814-1.949 1.816-1.949 1 0 1.815.874 1.815 1.95 0 1.06-.797 1.925-1.78 1.948h-.07c-.984-.018-1.78-.883-1.78-1.949zm2.882 6.264H1.705c.196-1.991 1.763-3.553 3.665-3.567h.053a3.537 3.537 0 012.372.95 6.283 6.283 0 00-1.332 2.617zm10.504 1.86c0 .958-.727 1.74-1.62 1.74H8.6c-.892 0-1.619-.782-1.619-1.74v-.318c0-2.902 2.16-5.277 4.845-5.361.048.005.1.005.148.005.048 0 .1 0 .148-.005 2.686.084 4.845 2.459 4.845 5.361v.318zm.518-1.86a6.267 6.267 0 00-1.32-2.6 3.556 3.556 0 012.395-.967h.052c1.902.014 3.47 1.576 3.665 3.567h-4.792z"/></mask><path d="M20.027 11.6a2.76 2.76 0 001.07-2.206c0-1.491-1.122-2.697-2.51-2.697-1.39 0-2.513 1.206-2.513 2.697 0 .911.423 1.72 1.071 2.206a4.296 4.296 0 00-1.484.935 5.527 5.527 0 00-2.037-1.192c.918-.598 1.536-1.687 1.536-2.926C15.16 6.529 13.737 5 11.978 5 10.22 5 8.796 6.533 8.796 8.417c0 1.239.614 2.328 1.537 2.926a5.573 5.573 0 00-2.016 1.178 4.328 4.328 0 00-1.467-.916 2.76 2.76 0 001.071-2.206C7.921 7.907 6.798 6.7 5.41 6.7c-1.389 0-2.512 1.206-2.512 2.698 0 .911.422 1.72 1.07 2.206C2.242 12.245 1 14.007 1 16.078v.309c0 .01.009.018.017.018h5.324c-.03.258-.048.524-.048.79v.318C6.293 18.887 7.33 20 8.61 20h6.747c1.28 0 2.316-1.113 2.316-2.487v-.318a6.76 6.76 0 00-.048-.79h5.359c.008 0 .017-.009.017-.018v-.309c-.009-2.075-1.245-3.837-2.973-4.478zM16.77 9.39c0-1.076.814-1.95 1.815-1.95s1.815.874 1.815 1.95c0 1.06-.796 1.925-1.78 1.948h-.07c-.988-.018-1.78-.883-1.78-1.949zm-7.287-.973c0-1.472 1.114-2.67 2.486-2.67 1.37 0 2.485 1.198 2.485 2.67 0 1.421-1.04 2.585-2.342 2.664h-.287c-1.302-.08-2.342-1.243-2.342-2.664zm-5.903.972c0-1.075.814-1.949 1.816-1.949 1 0 1.815.874 1.815 1.95 0 1.06-.797 1.925-1.78 1.948h-.07c-.984-.018-1.78-.883-1.78-1.949zm2.882 6.264H1.705c.196-1.991 1.763-3.553 3.665-3.567h.053a3.537 3.537 0 012.372.95 6.283 6.283 0 00-1.332 2.617zm10.504 1.86c0 .958-.727 1.74-1.62 1.74H8.6c-.892 0-1.619-.782-1.619-1.74v-.318c0-2.902 2.16-5.277 4.845-5.361.048.005.1.005.148.005.048 0 .1 0 .148-.005 2.686.084 4.845 2.459 4.845 5.361v.318zm.518-1.86a6.267 6.267 0 00-1.32-2.6 3.556 3.556 0 012.395-.967h.052c1.902.014 3.47 1.576 3.665 3.567h-4.792z"/><path d="M20.027 11.6l-.241-.32-.584.441.686.254.139-.375zm-2.882 0l.14.375.686-.255-.586-.44-.24.32zm-1.484.935l-.27.295.277.254.27-.261-.277-.288zm-2.037-1.192l-.219-.335-.704.459.8.257.123-.38zm-3.291 0l.123.38.799-.259-.705-.457-.217.336zm-2.016 1.178l-.274.291.269.254.274-.248-.269-.297zm-1.467-.916l-.24-.32-.585.441.687.254.138-.375zm-2.881 0l.139.375.688-.255-.587-.44-.24.32zm2.372 4.8l.397.047.053-.447h-.45v.4zm11.283 0v-.4h-.45l.053.448.397-.048zM23 16.078h.4v-.002l-.4.002zm-4.38-4.74v.4h.01l-.01-.4zm-.069 0l-.007.4h.007v-.4zm-6.438-.257v.4h.025l-.025-.4zm-.287 0l-.024.4h.024v-.4zm-6.395.257v.4h.01l-.01-.4zm-.07 0l-.007.4h.008v-.4zm1.102 4.315v.4h.315l.074-.306-.389-.094zm-4.758 0l-.398-.04-.043.44h.441v-.4zm3.665-3.567v-.4h-.003l.003.4zm.053 0l.002-.4h-.002v.4zm2.372.95l.303.26.253-.294-.286-.262-.27.295zm4.03-1.202l.04-.398-.026-.003-.026.001.013.4zm.297 0l.012-.4h-.025l-.026.002.039.398zm5.363 3.819l-.389.094.074.306h.315v-.4zm-1.32-2.6l-.271-.292-.281.26.249.293.304-.26zm2.395-.967v-.4h-.004l.004.4zm.052 0l.003-.4h-.003v.4zm3.665 3.567v.4h.442l-.044-.44-.398.04zm-2.01-3.734a3.16 3.16 0 001.23-2.525h-.8c0 .787-.367 1.477-.911 1.887l.482.638zm1.23-2.525c0-1.685-1.275-3.097-2.91-3.097v.8c1.14 0 2.11 1 2.11 2.297h.8zm-2.91-3.097c-1.637 0-2.913 1.412-2.913 3.097h.8c0-1.298.97-2.297 2.112-2.297v-.8zm-2.913 3.097c0 1.035.48 1.963 1.231 2.526l.48-.64c-.546-.41-.91-1.098-.91-1.886h-.8zm1.332 1.831a4.696 4.696 0 00-1.623 1.022l.556.576a3.895 3.895 0 011.346-.848l-.28-.75zM15.93 12.24a5.927 5.927 0 00-2.185-1.278l-.245.762c.7.224 1.343.605 1.89 1.106l.54-.59zm-2.089-.562c1.034-.673 1.718-1.89 1.718-3.261h-.8c0 1.106-.552 2.068-1.355 2.59l.437.671zm1.718-3.261c0-2.082-1.576-3.817-3.582-3.817v.8c1.512 0 2.782 1.322 2.782 3.017h.8zM11.978 4.6c-2.006 0-3.582 1.74-3.582 3.817h.8c0-1.69 1.271-3.017 2.782-3.017v-.8zM8.396 8.417c0 1.37.68 2.588 1.72 3.262l.434-.671c-.806-.523-1.354-1.484-1.354-2.591h-.8zm1.813 2.546a5.973 5.973 0 00-2.16 1.262l.537.593a5.172 5.172 0 011.87-1.094l-.247-.761zM8.592 12.23a4.728 4.728 0 00-1.603-1l-.277.75a3.93 3.93 0 011.331.832l.549-.582zm-1.5-.306A3.16 3.16 0 008.321 9.4h-.8c0 .786-.369 1.477-.913 1.887l.482.638zM8.321 9.4c0-1.686-1.277-3.1-2.911-3.1v.8c1.14 0 2.111 1 2.111 2.298h.8zM5.41 6.3c-1.636 0-2.912 1.413-2.912 3.098h.8c0-1.298.97-2.298 2.112-2.298v-.8zM2.498 9.4c0 1.035.48 1.963 1.23 2.526l.48-.64c-.545-.41-.91-1.098-.91-1.886h-.8zm1.332 1.83C1.936 11.933.6 13.85.6 16.08h.8c0-1.914 1.145-3.52 2.708-4.1l-.278-.75zM.6 16.08v.308h.8v-.309H.6zm0 .308a.42.42 0 00.417.418v-.8a.383.383 0 01.383.382H.6zm.417.418h5.324v-.8H1.017v.8zm4.927-.447c-.032.272-.05.554-.05.837h.8c0-.249.016-.5.044-.742l-.794-.095zm-.05.837v.318h.8v-.318h-.8zm0 .318c0 1.568 1.188 2.887 2.715 2.887v-.8c-1.032 0-1.916-.906-1.916-2.087h-.8zM8.608 20.4h6.747v-.8H8.61v.8zm6.747 0c1.527 0 2.716-1.319 2.716-2.887h-.8c0 1.18-.883 2.087-1.916 2.087v.8zm2.716-2.887v-.318h-.8v.318h.8zm0-.318c0-.283-.019-.565-.05-.837l-.795.095c.029.242.045.493.045.742h.8zm-.448-.39h5.359v-.8h-5.359v.8zm5.359 0a.417.417 0 00.417-.418h-.8a.38.38 0 01.383-.382v.8zm.417-.418v-.309h-.8v.309h.8zm0-.31c-.01-2.232-1.34-4.15-3.234-4.852l-.278.75c1.562.579 2.704 2.185 2.712 4.105l.8-.003zm-6.23-6.688c0-.881.662-1.549 1.416-1.549v-.8c-1.248 0-2.215 1.08-2.215 2.35h.8zm1.416-1.549c.754 0 1.415.668 1.415 1.55h.8c0-1.27-.966-2.35-2.215-2.35v.8zM20 9.39c0 .867-.646 1.53-1.39 1.548l.02.8c1.224-.029 2.17-1.095 2.17-2.349H20zm-1.38 1.548H18.586v.8h.034v-.8zm-.035 0H18.551v.8h.036v-.8zm-.027 0c-.745-.014-1.388-.674-1.388-1.549h-.8c0 1.257.94 2.326 2.173 2.35l.015-.8zm-8.674-2.52c0-1.279.962-2.27 2.085-2.27v-.8c-1.618 0-2.885 1.404-2.885 3.07h.8zm2.085-2.27c1.125 0 2.086.991 2.086 2.27h.8c0-1.666-1.267-3.07-2.886-3.07v.8zm2.086 2.27c0 1.233-.898 2.2-1.966 2.265l.049.799c1.535-.094 2.717-1.455 2.717-3.064h-.8zm-1.942 2.264H11.97v.8h.144v-.8zm-.143 0H11.826v.8h.144v-.8zm-.12.001c-1.068-.065-1.966-1.032-1.966-2.265h-.8c0 1.61 1.182 2.97 2.718 3.064l.048-.799zM3.981 9.39c0-.881.662-1.549 1.416-1.549v-.8c-1.249 0-2.216 1.08-2.216 2.35h.8zm1.416-1.55c.753 0 1.415.668 1.415 1.55h.8c0-1.27-.967-2.35-2.215-2.35v.8zm1.415 1.55c0 .867-.647 1.53-1.39 1.548l.019.8c1.224-.029 2.17-1.095 2.17-2.349h-.8zm-1.38 1.548H5.396v.8h.036v-.8zm-.035 0H5.362v.8h.035v-.8zm-.028 0c-.74-.014-1.388-.675-1.388-1.549h-.8c0 1.258.946 2.326 2.173 2.35l.015-.8zm1.094 4.315H1.705v.8h4.758v-.8zm-4.36.439c.179-1.813 1.597-3.193 3.27-3.206l-.006-.8c-2.131.016-3.846 1.758-4.06 3.928l.796.078zm3.267-3.206h.027v-.8H5.372v.8zm.027 0h.026v-.8H5.396v.8zm.024 0a3.13 3.13 0 012.104.845l.54-.591a3.937 3.937 0 00-2.64-1.054l-.004.8zm2.07.288a6.682 6.682 0 00-1.417 2.785l.778.188c.224-.93.661-1.77 1.246-2.451l-.606-.521zm9.076 4.74c0 .764-.575 1.338-1.22 1.338v.8c1.14 0 2.02-.987 2.02-2.139h-.8zm-1.22 1.338H8.6v.8h6.747v-.8zm-6.747 0c-.645 0-1.219-.574-1.219-1.339h-.8c0 1.152.88 2.14 2.02 2.14v-.8zm-1.219-1.339v-.318h-.8v.318h.8zm0-.318c0-2.712 2.012-4.885 4.457-4.961l-.025-.8c-2.926.092-5.232 2.668-5.232 5.761h.8zm4.406-4.963c.07.007.143.007.187.007v-.8c-.052 0-.084 0-.11-.003l-.077.796zm.187.007c.044 0 .116 0 .187-.007l-.078-.796a1.242 1.242 0 01-.11.003v.8zm.135-.005c2.446.076 4.458 2.249 4.458 4.961h.8c0-3.093-2.306-5.67-5.233-5.76l-.025.799zm4.458 4.961v.318h.8v-.318h-.8zm1.306-1.636a6.667 6.667 0 00-1.403-2.765l-.608.52a5.87 5.87 0 011.234 2.433l.777-.188zm-1.435-2.212a3.156 3.156 0 012.126-.86l-.008-.8a3.95 3.95 0 00-2.662 1.074l.544.586zm2.122-.86h.027v-.8H18.561v.8zm.026 0h.027v-.8H18.588v.8zm.023 0c1.673.012 3.092 1.392 3.27 3.205l.796-.078c-.213-2.17-1.928-3.912-4.06-3.928l-.006.8zm3.668 2.766h-4.792v.8h4.792v-.8z" mask="url(#a)"/>
</symbol>
<symbol id="visibility-off"><path d="M12 7c2.76 0 5 2.24 5 5 0 .65-.13 1.26-.36 1.83l2.92 2.92c1.51-1.26 2.7-2.89 3.43-4.75-1.73-4.39-6-7.5-11-7.5-1.4 0-2.74.25-3.98.7l2.16 2.16C10.74 7.13 11.35 7 12 7zM2 4.27l2.28 2.28.46.46A11.804 11.804 0 001 12c1.73 4.39 6 7.5 11 7.5 1.55 0 3.03-.3 4.38-.84l.42.42L19.73 22 21 20.73 3.27 3 2 4.27zM7.53 9.8l1.55 1.55c-.05.21-.08.43-.08.65 0 1.66 1.34 3 3 3 .22 0 .44-.03.65-.08l1.55 1.55c-.67.33-1.41.53-2.2.53-2.76 0-5-2.24-5-5 0-.79.2-1.53.53-2.2zm4.31-.78l3.15 3.15.02-.16c0-1.66-1.34-3-3-3l-.17.01z" fill="#A7AEB8"/>
</symbol>
<symbol id="visibility-on-1"><path d="M12 4.5C7 4.5 2.73 7.61 1 12c1.73 4.39 6 7.5 11 7.5s9.27-3.11 11-7.5c-1.73-4.39-6-7.5-11-7.5zM12 17c-2.76 0-5-2.24-5-5s2.24-5 5-5 5 2.24 5 5-2.24 5-5 5zm0-8c-1.66 0-3 1.34-3 3s1.34 3 3 3 3-1.34 3-3-1.34-3-3-3z"/>
</symbol>
<symbol id="visibility-on"><path d="M12 4.5C7 4.5 2.73 7.61 1 12c1.73 4.39 6 7.5 11 7.5s9.27-3.11 11-7.5c-1.73-4.39-6-7.5-11-7.5zM12 17c-2.76 0-5-2.24-5-5s2.24-5 5-5 5 2.24 5 5-2.24 5-5 5zm0-8c-1.66 0-3 1.34-3 3s1.34 3 3 3 3-1.34 3-3-1.34-3-3-3z"/>
</symbol>
<symbol id="waiting"><path d="M8 1a7 7 0 10.001 14.001A7 7 0 008 1zm0 12.813A5.813 5.813 0 018 2.187a5.813 5.813 0 010 11.626z"/><path d="M10.73 9.978l-2.228-1.61V4.5a.125.125 0 00-.125-.125h-.752A.125.125 0 007.5 4.5v4.303c0 .04.019.078.052.102l2.584 1.884c.056.04.134.028.175-.027l.447-.609a.125.125 0 00-.028-.175z"/>
</symbol></svg>