<svg width="16" height="16" viewBox="0 0 16 16" fill="none" xmlns="http://www.w3.org/2000/svg">
<g clip-path="url(#clip0)">
<path fill-rule="evenodd" clip-rule="evenodd" d="M14.5 3H1.5C1.36739 3 1.24021 3.05268 1.14645 3.14645C1.05268 3.24021 1 3.36739 1 3.5V12.5C1 12.6326 1.05268 12.7598 1.14645 12.8536C1.24021 12.9473 1.36739 13 1.5 13H14.5C14.6326 13 14.7598 12.9473 14.8536 12.8536C14.9473 12.7598 15 12.6326 15 12.5V3.5C15 3.36739 14.9473 3.24021 14.8536 3.14645C14.7598 3.05268 14.6326 3 14.5 3ZM1.5 2C1.10218 2 0.720644 2.15804 0.43934 2.43934C0.158035 2.72064 0 3.10218 0 3.5L0 12.5C0 12.8978 0.158035 13.2794 0.43934 13.5607C0.720644 13.842 1.10218 14 1.5 14H14.5C14.8978 14 15.2794 13.842 15.5607 13.5607C15.842 13.2794 16 12.8978 16 12.5V3.5C16 3.10218 15.842 2.72064 15.5607 2.43934C15.2794 2.15804 14.8978 2 14.5 2H1.5Z" fill="white"/>
<path d="M10.648 7.64608C10.7222 7.57201 10.8179 7.52318 10.9215 7.50649C11.025 7.4898 11.1312 7.5061 11.225 7.55308L15.002 9.50008V13.0001H1.00195V12.0001L3.64795 9.64608C3.72969 9.56464 3.83707 9.51398 3.95189 9.50268C4.06672 9.49138 4.18191 9.52014 4.27795 9.58408L6.93795 11.3571L10.648 7.64708V7.64608Z" fill="white"/>
<path fill-rule="evenodd" clip-rule="evenodd" d="M4.50195 7C4.69894 7 4.89399 6.9612 5.07598 6.88582C5.25797 6.81044 5.42333 6.69995 5.56261 6.56066C5.7019 6.42137 5.81239 6.25601 5.88777 6.07403C5.96315 5.89204 6.00195 5.69698 6.00195 5.5C6.00195 5.30302 5.96315 5.10796 5.88777 4.92597C5.81239 4.74399 5.7019 4.57863 5.56261 4.43934C5.42333 4.30005 5.25797 4.18956 5.07598 4.11418C4.89399 4.0388 4.69894 4 4.50195 4C4.10413 4 3.7226 4.15804 3.44129 4.43934C3.15999 4.72064 3.00195 5.10218 3.00195 5.5C3.00195 5.89782 3.15999 6.27936 3.44129 6.56066C3.7226 6.84196 4.10413 7 4.50195 7Z" fill="white"/>
</g>
<defs>
<clipPath id="clip0">
<rect width="16" height="16" fill="white"/>
</clipPath>
</defs>
</svg>
