<svg width="24" height="24" viewBox="0 0 24 24" fill="none" xmlns="http://www.w3.org/2000/svg">
<path d="M21.7272 11.5501L18.6457 8.74904L20.0079 7.15989L20.3757 8.26404L21.957 7.73696L21.1236 5.23698C21.0684 5.07101 20.9623 4.92662 20.8205 4.82428C20.6786 4.72194 20.5082 4.66684 20.3332 4.66678H17.8332V6.33343H18.5214L17.4122 7.62738L12.5606 3.21679C12.4072 3.07733 12.2073 3.00006 12 3.00006C11.7927 3.00006 11.5928 3.07733 11.4394 3.21679L2.27283 11.5501C2.14836 11.6632 2.06104 11.8114 2.02235 11.975C1.98366 12.1387 1.99541 12.3103 2.05605 12.4672C2.1167 12.6241 2.22341 12.7589 2.36214 12.8541C2.50087 12.9492 2.66514 13.0001 2.83334 13.0001H4.5V19.6667C4.5 19.8877 4.5878 20.0996 4.74407 20.2559C4.90035 20.4122 5.11231 20.5 5.33333 20.5H18.6666C18.8876 20.5 19.0995 20.4122 19.2558 20.2559C19.4121 20.0996 19.4999 19.8877 19.4999 19.6667V13.0001H21.1666C21.3348 13.0001 21.499 12.9492 21.6378 12.8541C21.7765 12.759 21.8833 12.6241 21.9439 12.4672C22.0046 12.3103 22.0163 12.1388 21.9777 11.9751C21.939 11.8114 21.8517 11.6632 21.7272 11.5501ZM11.1666 18.8333V15.5H12.8333V18.8333H11.1666ZM18.6666 11.3334C18.4456 11.3334 18.2336 11.4212 18.0773 11.5775C17.921 11.7338 17.8332 11.9457 17.8332 12.1667V18.8333H14.4999V14.6667C14.4999 14.4457 14.4121 14.2337 14.2559 14.0775C14.0996 13.9212 13.8876 13.8334 13.6666 13.8334H10.3333C10.1123 13.8334 9.90032 13.9212 9.74404 14.0775C9.58776 14.2337 9.49996 14.4457 9.49996 14.6667V18.8333H6.16665V12.1667C6.16665 11.9457 6.07886 11.7338 5.92258 11.5775C5.7663 11.4212 5.55434 11.3334 5.33333 11.3334H4.98885L11.9999 4.95969L16.3271 8.89341L15.1813 10.2304L13.2959 8.97341C13.112 8.85085 12.8869 8.80635 12.6703 8.8497C12.4536 8.89305 12.263 9.02069 12.1404 9.20456L10.8813 11.0925L9.87267 10.5881C9.71621 10.5099 9.53911 10.4829 9.36646 10.5109C9.19381 10.539 9.03436 10.6206 8.9107 10.7443L7.24404 12.411L8.42258 13.5895L9.66455 12.3474L10.7939 12.912C10.9756 13.0029 11.1842 13.0242 11.3805 12.9721C11.5768 12.92 11.7473 12.798 11.8599 12.629L13.0644 10.8224L14.871 12.0267C15.0404 12.1397 15.2454 12.1867 15.4471 12.1589C15.6489 12.1311 15.8334 12.0303 15.966 11.8757L17.5608 10.015L19.0112 11.3334H18.6666Z" fill="#fff"/>
</svg>
