<svg width="24" height="24" viewBox="0 0 24 24" fill="none" xmlns="http://www.w3.org/2000/svg">
<path d="M21.7272 11.55L18.6457 8.74898L20.0079 7.15982L20.3757 8.26398L21.957 7.7369L21.1236 5.23692C21.0684 5.07095 20.9623 4.92656 20.8205 4.82422C20.6786 4.72188 20.5082 4.66678 20.3332 4.66672H17.8332V6.33337H18.5214L17.4122 7.62732L12.5606 3.21673C12.4072 3.07727 12.2073 3 12 3C11.7927 3 11.5928 3.07727 11.4394 3.21673L2.27283 11.55C2.14836 11.6631 2.06104 11.8113 2.02235 11.975C1.98366 12.1387 1.99541 12.3102 2.05605 12.4671C2.1167 12.624 2.22341 12.7589 2.36214 12.854C2.50087 12.9491 2.66514 13 2.83334 13H4.5V19.6666C4.5 19.8876 4.5878 20.0996 4.74407 20.2559C4.90035 20.4121 5.11231 20.4999 5.33333 20.4999H18.6666C18.8876 20.4999 19.0995 20.4121 19.2558 20.2559C19.4121 20.0996 19.4999 19.8876 19.4999 19.6666V13H21.1666C21.3348 13 21.499 12.9491 21.6378 12.854C21.7765 12.7589 21.8833 12.6241 21.9439 12.4672C22.0046 12.3103 22.0163 12.1387 21.9777 11.975C21.939 11.8113 21.8517 11.6631 21.7272 11.55ZM11.1666 18.8333V15.5H12.8333V18.8333H11.1666ZM18.6666 11.3333C18.4456 11.3333 18.2336 11.4211 18.0773 11.5774C17.921 11.7337 17.8332 11.9457 17.8332 12.1667V18.8333H14.4999V14.6666C14.4999 14.4456 14.4121 14.2337 14.2559 14.0774C14.0996 13.9211 13.8876 13.8333 13.6666 13.8333H10.3333C10.1123 13.8333 9.90032 13.9211 9.74404 14.0774C9.58776 14.2337 9.49996 14.4456 9.49996 14.6666V18.8333H6.16665V12.1667C6.16665 11.9457 6.07886 11.7337 5.92258 11.5774C5.7663 11.4211 5.55434 11.3333 5.33333 11.3333H4.98885L11.9999 4.95963L16.3271 8.89335L15.1813 10.2303L13.2959 8.97335C13.112 8.85079 12.8869 8.80629 12.6703 8.84964C12.4536 8.89299 12.263 9.02063 12.1404 9.2045L10.8813 11.0924L9.87267 10.588C9.71621 10.5098 9.53911 10.4828 9.36646 10.5109C9.19381 10.5389 9.03436 10.6206 8.9107 10.7443L7.24404 12.4109L8.42258 13.5895L9.66455 12.3473L10.7939 12.912C10.9756 13.0028 11.1842 13.0242 11.3805 12.9721C11.5768 12.9199 11.7473 12.7979 11.8599 12.629L13.0644 10.8223L14.871 12.0267C15.0404 12.1396 15.2454 12.1867 15.4471 12.1588C15.6489 12.131 15.8334 12.0303 15.966 11.8756L17.5608 10.0149L19.0112 11.3333H18.6666Z" fill="#1A1E32"/>
</svg>
