<svg width="24" height="24" viewBox="0 0 24 24" fill="none" xmlns="http://www.w3.org/2000/svg">
<path d="M21.0027 18.7894H7.62881C7.07761 18.7894 6.63086 18.3426 6.63086 17.7914C6.63086 17.2402 7.07761 16.7935 7.62881 16.7935H21.0024C21.5536 16.7935 22.0004 17.2402 22.0004 17.7914C22.0004 18.3426 21.5539 18.7894 21.0027 18.7894Z" fill="#A7AEB8"/>
<path d="M21.0027 12.5251H7.62881C7.07761 12.5251 6.63086 12.0784 6.63086 11.5272C6.63086 10.976 7.07761 10.5292 7.62881 10.5292H21.0024C21.5536 10.5292 22.0004 10.976 22.0004 11.5272C22.0007 12.0784 21.5539 12.5251 21.0027 12.5251Z" fill="#A7AEB8"/>
<path d="M21.0027 6.26105H7.62881C7.07761 6.26105 6.63086 5.81429 6.63086 5.26309C6.63086 4.71189 7.07761 4.26514 7.62881 4.26514H21.0024C21.5536 4.26514 22.0004 4.71189 22.0004 5.26309C22.0004 5.81429 21.5539 6.26105 21.0027 6.26105Z" fill="#A7AEB8"/>
<path d="M3.34025 6.6805C4.08045 6.6805 4.6805 6.08045 4.6805 5.34025C4.6805 4.60005 4.08045 4 3.34025 4C2.60005 4 2 4.60005 2 5.34025C2 6.08045 2.60005 6.6805 3.34025 6.6805Z" fill="#A7AEB8"/>
<path d="M3.34025 12.8675C4.08045 12.8675 4.6805 12.2675 4.6805 11.5273C4.6805 10.7871 4.08045 10.187 3.34025 10.187C2.60005 10.187 2 10.7871 2 11.5273C2 12.2675 2.60005 12.8675 3.34025 12.8675Z" fill="#A7AEB8"/>
<path d="M3.34025 19.0545C4.08045 19.0545 4.6805 18.4544 4.6805 17.7142C4.6805 16.974 4.08045 16.374 3.34025 16.374C2.60005 16.374 2 16.974 2 17.7142C2 18.4544 2.60005 19.0545 3.34025 19.0545Z" fill="#A7AEB8"/>
</svg>
