<svg width="40" height="40" viewBox="0 0 40 40" fill="none" xmlns="http://www.w3.org/2000/svg">
<g clip-path="url(#clip0)">
<path d="M19.9999 3.87097C21.0689 3.87097 21.9354 3.00442 21.9354 1.93548C21.9354 0.866546 21.0689 0 19.9999 0C18.931 0 18.0645 0.866546 18.0645 1.93548C18.0645 3.00442 18.931 3.87097 19.9999 3.87097Z" fill="#2480C1"/>
<path d="M19.9999 40C21.0689 40 21.9354 39.1335 21.9354 38.0645C21.9354 36.9956 21.0689 36.129 19.9999 36.129C18.931 36.129 18.0645 36.9956 18.0645 38.0645C18.0645 39.1335 18.931 40 19.9999 40Z" fill="#A6CFEE"/>
<path d="M10.9677 6.25817C12.0366 6.25817 12.9032 5.39163 12.9032 4.32269C12.9032 3.25375 12.0366 2.38721 10.9677 2.38721C9.89877 2.38721 9.03223 3.25375 9.03223 4.32269C9.03223 5.39163 9.89877 6.25817 10.9677 6.25817Z" fill="#3189C8"/>
<path d="M30.7105 34.7097C31.2266 35.6129 30.9041 36.7742 30.0008 37.3548C29.0976 37.871 27.9363 37.5484 27.3557 36.6452C26.8396 35.7419 27.1621 34.5806 28.0654 34C28.9686 33.4839 30.1944 33.8064 30.7105 34.7097Z" fill="#BFDDF3"/>
<path d="M5.2909 9.29029C6.19412 9.80642 6.5167 10.9677 6.00057 11.9355C5.48445 12.8387 4.32315 13.1613 3.35541 12.6451C2.45219 12.129 2.12961 10.9677 2.64574 9.99997C3.16186 9.03223 4.38767 8.77416 5.2909 9.29029Z" fill="#4899D3"/>
<path d="M36.6454 27.3548C37.5486 27.871 37.8712 29.0323 37.3551 30C36.839 30.9032 35.6777 31.2258 34.7099 30.7097C33.8067 30.1935 33.4841 29.0323 34.0002 28.0645C34.5164 27.1613 35.6777 26.8387 36.6454 27.3548Z" fill="#DCECF9"/>
<path d="M1.93548 21.9354C3.00442 21.9354 3.87097 21.0689 3.87097 19.9999C3.87097 18.931 3.00442 18.0645 1.93548 18.0645C0.866546 18.0645 0 18.931 0 19.9999C0 21.0689 0.866546 21.9354 1.93548 21.9354Z" fill="#5FA8DD"/>
<path d="M38.0644 21.9354C39.1333 21.9354 39.9999 21.0689 39.9999 19.9999C39.9999 18.931 39.1333 18.0645 38.0644 18.0645C36.9955 18.0645 36.1289 18.931 36.1289 19.9999C36.1289 21.0689 36.9955 21.9354 38.0644 21.9354Z" fill="#E5F0FA"/>
<path d="M3.35477 27.3548C4.258 26.8387 5.41929 27.1613 5.99994 28.0645C6.51606 28.9677 6.19348 30.129 5.29026 30.7097C4.38703 31.2258 3.22574 30.9032 2.6451 30C2.06445 29.0968 2.45155 27.9355 3.35477 27.3548Z" fill="#78B5E2"/>
<path d="M34.7099 9.29027C35.6131 8.77414 36.7744 9.09672 37.3551 9.99995C37.8712 10.9032 37.5486 12.0645 36.6454 12.6451C35.7422 13.1613 34.5809 12.8387 34.0002 11.9354C33.4841 11.0322 33.8067 9.8064 34.7099 9.29027Z" fill="#0067B1"/>
<path d="M9.29027 34.7097C9.80639 33.8064 10.9677 33.4839 11.9354 34C12.8386 34.5161 13.1612 35.6774 12.6451 36.6452C12.129 37.5484 10.9677 37.871 9.99994 37.3548C9.09672 36.7742 8.77414 35.6129 9.29027 34.7097Z" fill="#90C2E8"/>
<path d="M27.3557 3.3548C27.8718 2.45158 29.0331 2.129 30.0008 2.64513C30.9041 3.16125 31.2266 4.32254 30.7105 5.29029C30.1944 6.19351 29.0331 6.51609 28.0654 5.99996C27.1621 5.48384 26.8396 4.32254 27.3557 3.3548Z" fill="#1476BC"/>
</g>
<defs>
<clipPath id="clip0">
<rect width="40" height="40" fill="white"/>
</clipPath>
</defs>
</svg>
