<svg width="24" height="24" viewBox="0 0 24 24" fill="none" xmlns="http://www.w3.org/2000/svg">
<path d="M22.7926 11.6643C22.8013 11.6537 22.8089 11.6425 22.817 11.6317C22.8268 11.6186 22.8369 11.6058 22.846 11.5923C22.8547 11.5792 22.8622 11.5657 22.8702 11.5523C22.8776 11.54 22.8853 11.528 22.8921 11.5154C22.8994 11.5017 22.9056 11.4876 22.9121 11.4737C22.9184 11.4605 22.9249 11.4476 22.9305 11.4341C22.9361 11.4205 22.9406 11.4067 22.9456 11.393C22.9508 11.3785 22.9563 11.3642 22.9608 11.3494C22.965 11.3356 22.968 11.3217 22.9715 11.3078C22.9753 11.2927 22.9795 11.2778 22.9826 11.2624C22.9858 11.2463 22.9877 11.2301 22.99 11.2139C22.9919 11.2005 22.9945 11.1873 22.9958 11.1738C23.0017 11.1136 23.0017 11.053 22.9958 10.9928C22.9945 10.9793 22.9919 10.9661 22.99 10.9528C22.9877 10.9365 22.9858 10.9203 22.9826 10.9042C22.9795 10.8888 22.9753 10.874 22.9715 10.8589C22.968 10.845 22.9649 10.831 22.9608 10.8173C22.9563 10.8025 22.9508 10.7882 22.9456 10.7737C22.9406 10.76 22.9361 10.7462 22.9305 10.7326C22.9249 10.7191 22.9184 10.7061 22.9121 10.693C22.9056 10.679 22.8994 10.665 22.8921 10.6513C22.8853 10.6387 22.8776 10.6267 22.8703 10.6144C22.8623 10.601 22.8547 10.5875 22.846 10.5744C22.8369 10.5609 22.8268 10.5481 22.8171 10.5351C22.8089 10.5242 22.8013 10.513 22.7926 10.5024C22.7736 10.4792 22.7535 10.4569 22.7324 10.4357C22.7322 10.4355 22.7321 10.4354 22.7319 10.4352L19.982 7.68528C19.624 7.32732 19.0436 7.32732 18.6856 7.68528C18.3277 8.04324 18.3277 8.62365 18.6856 8.98161L19.8708 10.1667H14.7506C14.2444 10.1667 13.834 10.5771 13.834 11.0834C13.834 11.5896 14.2444 12 14.7506 12H19.8707L18.6856 13.1851C18.3276 13.5431 18.3276 14.1235 18.6856 14.4814C19.0436 14.8394 19.624 14.8394 19.9819 14.4814L22.7318 11.7315C22.732 11.7314 22.7321 11.7312 22.7323 11.731C22.7535 11.7098 22.7736 11.6875 22.7926 11.6643Z" fill="#A7AEB8"/>
<path d="M16.5832 13.8329C16.077 13.8329 15.6666 14.2433 15.6666 14.7495V19.3328H12V4.66689V4.66654C12 4.26175 11.7345 3.90486 11.3468 3.78855L8.16249 2.83325H15.6666V7.41646C15.6666 7.9227 16.077 8.33308 16.5832 8.33308C17.0895 8.33308 17.4999 7.9227 17.4999 7.41646V1.91663C17.4999 1.41038 17.0895 1 16.5832 1H1.917C1.91691 1 1.91682 1 1.91674 1C1.88962 0.999958 1.86277 1.00125 1.83613 1.00357C1.41565 1.03528 1.14156 1.31186 1.04196 1.64206C1.03556 1.6626 1.02998 1.68357 1.02499 1.7048C1.02448 1.70707 1.02405 1.70939 1.02353 1.71171C1.01859 1.73354 1.01446 1.75571 1.01107 1.77818C1.0106 1.78136 1.01008 1.7845 1.00961 1.78768C1.00673 1.80818 1.00445 1.82893 1.00295 1.84994C1.00028 1.8838 0.999468 1.91774 1.00033 1.95169V20.2498C1.00033 20.6867 1.30875 21.0629 1.73722 21.1486L10.9036 22.9819C11.4708 23.0953 12 22.6615 12 22.0831V21.166H16.5832C17.0894 21.166 17.4998 20.7557 17.4998 20.2494V14.7496C17.4998 14.2433 17.0894 13.8329 16.5832 13.8329ZM10.1667 20.9649L2.83362 19.4983V3.14898L10.1667 5.34891V20.2494V20.9649Z" fill="#A7AEB8"/>
</svg>
