<svg width="24" height="24" viewBox="0 0 24 24" fill="none" xmlns="http://www.w3.org/2000/svg">
<path d="M21.9668 7.15351C21.479 6.95101 20.925 7.05046 20.5389 7.40461L18.3002 9.21496V8.40091C18.3002 7.85281 17.973 7.36321 17.4668 7.15396C16.9781 6.95146 16.4255 7.05091 16.0389 7.40506L13.8002 9.21496V8.40091C13.8002 7.85281 13.473 7.36321 12.9668 7.15396C12.4785 6.95146 11.925 7.05091 11.5389 7.40506L8.28724 10.034L7.49929 2.94196C7.46869 1.97626 6.67354 1.20001 5.70019 1.20001H3.9002C2.92685 1.20001 2.1317 1.97626 2.1011 2.94196L1.2056 11.001C1.2038 11.0181 1.20605 11.0343 1.20515 11.051C1.20425 11.0672 1.2002 11.0829 1.2002 11.1V21.9C1.2002 22.3968 1.6034 22.8 2.1002 22.8H21.9002C22.397 22.8 22.8002 22.3968 22.8002 21.9V8.40091C22.8002 7.85281 22.473 7.36321 21.9668 7.15351ZM3.9002 3.00001H5.70019C5.70019 3.03331 5.70199 3.06616 5.70559 3.09946L6.49444 10.2H3.1055L3.89435 3.09946C3.8984 3.06616 3.9002 3.03331 3.9002 3.00001ZM21.0002 21H3.0002V12H8.40019C8.60629 12 8.80564 11.9294 8.96584 11.7998L12.0002 9.34681V11.1C12.0002 11.447 12.1995 11.7629 12.5123 11.9123C12.8259 12.0626 13.1967 12.018 13.4658 11.7998L16.5002 9.34681V11.1C16.5002 11.447 16.6995 11.7629 17.0123 11.9123C17.3255 12.0626 17.6967 12.018 17.9658 11.7998L21.0002 9.34681V21Z" fill="#fff"/>
<path d="M8.39961 13.8H7.49961C7.00281 13.8 6.59961 14.2032 6.59961 14.7C6.59961 15.1968 7.00281 15.6 7.49961 15.6H8.39961C8.89641 15.6 9.29961 15.1968 9.29961 14.7C9.29961 14.2032 8.89641 13.8 8.39961 13.8Z" fill="#fff"/>
<path d="M12.4504 13.8H11.5504C11.0536 13.8 10.6504 14.2032 10.6504 14.7C10.6504 15.1968 11.0536 15.6 11.5504 15.6H12.4504C12.9472 15.6 13.3504 15.1968 13.3504 14.7C13.3504 14.2032 12.9472 13.8 12.4504 13.8Z" fill="#fff"/>
<path d="M16.5002 13.8H15.6002C15.1034 13.8 14.7002 14.2032 14.7002 14.7C14.7002 15.1968 15.1034 15.6 15.6002 15.6H16.5002C16.997 15.6 17.4002 15.1968 17.4002 14.7C17.4002 14.2032 16.997 13.8 16.5002 13.8Z" fill="#fff"/>
<path d="M8.39961 17.4H7.49961C7.00281 17.4 6.59961 17.8032 6.59961 18.3C6.59961 18.7968 7.00281 19.2 7.49961 19.2H8.39961C8.89641 19.2 9.29961 18.7968 9.29961 18.3C9.29961 17.8032 8.89641 17.4 8.39961 17.4Z" fill="#fff"/>
<path d="M12.4504 17.4H11.5504C11.0536 17.4 10.6504 17.8032 10.6504 18.3C10.6504 18.7968 11.0536 19.2 11.5504 19.2H12.4504C12.9472 19.2 13.3504 18.7968 13.3504 18.3C13.3504 17.8032 12.9472 17.4 12.4504 17.4Z" fill="#fff"/>
<path d="M16.5002 17.4H15.6002C15.1034 17.4 14.7002 17.8032 14.7002 18.3C14.7002 18.7968 15.1034 19.2 15.6002 19.2H16.5002C16.997 19.2 17.4002 18.7968 17.4002 18.3C17.4002 17.8032 16.997 17.4 16.5002 17.4Z" fill="#fff"/>
</svg>
