<svg width="13" height="19" viewBox="0 0 13 19" fill="none" xmlns="http://www.w3.org/2000/svg">
<path d="M6.36549 18.5143C5.96136 18.5143 5.59946 18.3047 5.39747 17.9536C5.39533 17.9499 5.39327 17.9462 5.39121 17.9425L0.800178 9.53924C-0.295707 7.53337 -0.264284 5.15252 0.884252 3.17048C2.00787 1.2314 4.00365 0.0467377 6.22298 0.00146451C6.31779 -0.000488169 6.41311 -0.000488169 6.50785 0.00146451C8.72721 0.0467377 10.723 1.2314 11.8467 3.17048C12.9952 5.15252 13.0266 7.53334 11.9307 9.53924L7.33969 17.9425C7.33763 17.9462 7.33557 17.9499 7.33344 17.9536C7.13148 18.3047 6.76962 18.5143 6.36549 18.5143ZM6.36545 1.15716C6.32571 1.15716 6.28608 1.15756 6.24652 1.15835C4.4349 1.19531 2.80456 2.16438 1.8854 3.75064C0.941349 5.37986 0.915242 7.33641 1.81561 8.98439L6.36545 17.3122L10.9153 8.98443C11.8156 7.33641 11.7896 5.37986 10.8454 3.75064C9.92626 2.16442 8.29592 1.19531 6.48431 1.15835C6.44486 1.15756 6.40519 1.15716 6.36545 1.15716Z" fill="white"/>
<path d="M6.60357 8.20714C5.16795 8.20714 4 7.03918 4 5.60357C4 4.16795 5.16795 3 6.60357 3C8.03918 3 9.20714 4.16795 9.20714 5.60357C9.20714 7.03918 8.03922 8.20714 6.60357 8.20714ZM6.60357 4.15714C5.80601 4.15714 5.15714 4.80601 5.15714 5.60357C5.15714 6.40113 5.80601 7.05 6.60357 7.05C7.40113 7.05 8.05 6.40113 8.05 5.60357C8.05 4.80601 7.40113 4.15714 6.60357 4.15714Z" fill="white"/>
</svg>
