<svg width="19" height="19" viewBox="0 0 19 19" fill="none" xmlns="http://www.w3.org/2000/svg">
<g clip-path="url(#clip0)">
<path d="M15.7954 2.71885C14.0422 0.965564 11.7202 0 9.25714 0C6.79413 0 4.4721 0.965564 2.71885 2.71885C0.965564 4.4721 0 6.79413 0 9.25714C0 11.7202 0.965564 14.0422 2.71885 15.7954C4.4721 17.5487 6.79413 18.5143 9.25714 18.5143C11.7202 18.5143 14.0422 17.5487 15.7954 15.7954C17.5487 14.0422 18.5143 11.7202 18.5143 9.25714C18.5143 6.79413 17.5487 4.4721 15.7954 2.71885ZM9.25714 17.4295C4.7509 17.4295 1.08482 13.7634 1.08482 9.25714C1.08482 4.7509 4.7509 1.08482 9.25714 1.08482C13.7634 1.08482 17.4295 4.7509 17.4295 9.25714C17.4295 13.7634 13.7634 17.4295 9.25714 17.4295Z" fill="#00A0AF"/>
<path d="M7.164 13V11.368H6.12V10.588H7.164V9.52H6.12V8.608H7.164V4.432H9.42C10.468 4.432 11.244 4.644 11.748 5.068C12.26 5.492 12.516 6.108 12.516 6.916C12.516 7.732 12.24 8.372 11.688 8.836C11.136 9.292 10.324 9.52 9.252 9.52H8.244V10.588H10.224V11.368H8.244V13H7.164ZM8.244 8.608H9.096C9.824 8.608 10.388 8.488 10.788 8.248C11.196 8.008 11.4 7.576 11.4 6.952C11.4 6.408 11.232 6.004 10.896 5.74C10.56 5.476 10.036 5.344 9.324 5.344H8.244V8.608Z" fill="#00A0AF"/>
</g>
<defs>
<clipPath id="clip0">
<rect width="18.5143" height="18.5143" fill="white"/>
</clipPath>
</defs>
</svg>
