<svg width="24" height="24" viewBox="0 0 24 24" fill="none" xmlns="http://www.w3.org/2000/svg">
<path d="M20.5 5.33333V3.66667H18.8334V2H17.1667V4.08333L15.8426 5.07635C15.0008 4.22062 13.9658 3.57953 12.8247 3.20697C11.6836 2.83441 10.4697 2.74128 9.28512 2.93542C8.10054 3.12955 6.97988 3.60527 6.01737 4.32258C5.05487 5.03989 4.27867 5.97781 3.75402 7.05748C3.22938 8.13715 2.97164 9.32701 3.00247 10.527C3.03331 11.727 3.35181 12.9021 3.93121 13.9534C4.5106 15.0047 5.33395 15.9015 6.33202 16.5684C7.33009 17.2353 8.4737 17.6529 9.6667 17.7859V20.3333H7.1667V22H13.8334V20.3333H11.3334V17.7859C12.591 17.6462 13.7929 17.1903 14.8268 16.4608C15.8607 15.7312 16.693 14.7517 17.2461 13.6136C17.7993 12.4754 18.0552 11.2158 17.9901 9.95207C17.925 8.68834 17.5409 7.46168 16.8737 6.38646L18.2777 5.33333H20.5ZM13.8334 10.3333C13.8345 11.0827 13.5836 11.8107 13.1209 12.4001C12.6582 12.9896 12.0107 13.4062 11.2825 13.583C10.5543 13.7598 9.78778 13.6865 9.10629 13.3749C8.42481 13.0633 7.86798 12.5314 7.5254 11.865C7.18282 11.1985 7.07441 10.4362 7.21761 9.70061C7.36082 8.96507 7.74731 8.29908 8.3149 7.80982C8.88249 7.32056 9.59817 7.03647 10.3468 7.00327C11.0954 6.97007 11.8334 7.18968 12.4421 7.62677L11.7321 8.15938C11.2189 7.86848 10.6194 7.76833 10.0395 7.87662C9.45963 7.9849 8.93667 8.29466 8.56303 8.75116C8.18939 9.20765 7.98911 9.78152 7.99758 10.3714C8.00604 10.9612 8.22271 11.5291 8.6093 11.9747C8.99589 12.4203 9.52753 12.7149 10.1103 12.8065C10.693 12.8981 11.2894 12.7808 11.7941 12.4753C12.2987 12.1698 12.6791 11.6957 12.8682 11.1369C13.0572 10.5781 13.0426 9.97046 12.827 9.42135L13.5123 8.9074C13.7241 9.35289 13.8338 9.84005 13.8334 10.3333ZM11.3334 10.3333C11.3334 10.4982 11.2845 10.6593 11.1929 10.7963C11.1014 10.9333 10.9712 11.0402 10.8189 11.1032C10.6667 11.1663 10.4991 11.1828 10.3375 11.1507C10.1758 11.1185 10.0273 11.0391 9.91078 10.9226C9.79423 10.806 9.71486 10.6576 9.68271 10.4959C9.65056 10.3343 9.66706 10.1667 9.73013 10.0144C9.7932 9.86216 9.90001 9.73201 10.0371 9.64044C10.1741 9.54887 10.3352 9.5 10.5 9.5C10.721 9.50025 10.9328 9.58813 11.089 9.74435C11.2452 9.90058 11.3331 10.1124 11.3334 10.3333ZM16.3334 10.3333C16.3357 11.6781 15.8742 12.9826 15.0266 14.0267C14.1791 15.0708 12.9973 15.7906 11.6808 16.0647C10.3642 16.3388 8.99341 16.1504 7.79957 15.5314C6.60573 14.9123 5.66194 13.9005 5.12739 12.6665C4.59283 11.4325 4.50024 10.0519 4.86523 8.75759C5.23021 7.46328 6.03044 6.33445 7.13092 5.56152C8.2314 4.7886 9.56479 4.41888 10.9062 4.51474C12.2475 4.61059 13.5148 5.16615 14.4942 6.08771L13.8165 6.59594C12.8784 5.76464 11.6623 5.31606 10.4091 5.3391C9.15591 5.36213 7.95709 5.85509 7.0502 6.72029C6.14331 7.58549 5.59453 8.7598 5.5126 10.0105C5.43066 11.2613 5.82156 12.4971 6.60782 13.4732C7.39409 14.4494 8.51835 15.0945 9.75783 15.2808C10.9973 15.4672 12.2616 15.1811 13.3001 14.4793C14.3386 13.7774 15.0755 12.7111 15.3649 11.4916C15.6543 10.272 15.4751 8.98828 14.8626 7.89469L15.5339 7.39125C16.0582 8.28302 16.3342 9.29886 16.3334 10.3333Z" fill="#fff"/>
</svg>
