<svg width="24" height="24" viewBox="0 0 24 24" fill="none" xmlns="http://www.w3.org/2000/svg">
<path d="M3.49999 0H16.2447L23 6.72902V22.5C23 23.3287 22.328 24 21.5 24H3.49999C2.67196 24 2 23.3287 2 22.5V1.49999C2 0.671265 2.67204 0 3.49999 0Z" fill="#E2574C"/>
<path d="M22.9773 6.74995H17.749C16.921 6.74995 16.249 6.07799 16.249 5.24996V0.0149536L22.9773 6.74995Z" fill="#B53629"/>
<path d="M17.3748 11.3722C17.6261 11.3722 17.7491 11.1532 17.7491 10.9409C17.7491 10.7212 17.6208 10.5089 17.3748 10.5089H15.9438C15.664 10.5089 15.5081 10.7406 15.5081 10.9964V14.5131C15.5081 14.8267 15.6865 15.0006 15.928 15.0006C16.1681 15.0006 16.3473 14.8267 16.3473 14.5131V13.5479H17.2128C17.4813 13.5479 17.6156 13.3281 17.6156 13.1099C17.6156 12.8962 17.4813 12.6839 17.2128 12.6839H16.3473V11.3722H17.3748ZM12.538 10.5089H11.491C11.2068 10.5089 11.005 10.7039 11.005 10.9934V14.5162C11.005 14.8754 11.2952 14.9879 11.503 14.9879H12.6017C13.9022 14.9879 14.761 14.1322 14.761 12.8114C14.7603 11.4149 13.9518 10.5089 12.538 10.5089ZM12.5883 14.1195H11.95V11.3774H12.5253C13.3961 11.3774 13.7748 11.9617 13.7748 12.7679C13.7748 13.5225 13.4028 14.1195 12.5883 14.1195ZM8.7528 10.5089H7.71556C7.4223 10.5089 7.25879 10.7024 7.25879 10.9964V14.5131C7.25879 14.8267 7.44628 15.0006 7.69825 15.0006C7.95023 15.0006 8.13772 14.8267 8.13772 14.5131V13.4864H8.78795C9.59045 13.4864 10.2527 12.9179 10.2527 12.0036C10.2528 11.1089 9.6138 10.5089 8.7528 10.5089ZM8.73557 12.6615H8.1378V11.3347H8.73557C9.10457 11.3347 9.33932 11.6227 9.33932 11.9984C9.33855 12.3735 9.10457 12.6615 8.73557 12.6615Z" fill="white"/>
</svg>
