<svg width="24" height="24" viewBox="0 0 24 24" fill="none" xmlns="http://www.w3.org/2000/svg">
<path d="M15.0212 8.66656C13.7026 8.66656 12.4137 9.05756 11.3174 9.7901C10.221 10.5226 9.36655 11.5638 8.86196 12.782C8.35738 14.0002 8.22536 15.3406 8.48259 16.6338C8.73983 17.927 9.37477 19.1149 10.3071 20.0473C11.2395 20.9796 12.4274 21.6146 13.7206 21.8718C15.0138 22.129 16.3542 21.997 17.5724 21.4924C18.7906 20.9878 19.8317 20.1334 20.5643 19.037C21.2968 17.9407 21.6878 16.6518 21.6878 15.3332C21.6858 13.5657 20.9828 11.8712 19.733 10.6214C18.4832 9.37157 16.7887 8.66855 15.0212 8.66656ZM15.0212 20.3332C14.0323 20.3332 13.0656 20.04 12.2433 19.4906C11.4211 18.9412 10.7802 18.1603 10.4018 17.2466C10.0233 16.333 9.92431 15.3277 10.1172 14.3578C10.3102 13.3879 10.7864 12.497 11.4856 11.7977C12.1849 11.0984 13.0758 10.6222 14.0457 10.4293C15.0156 10.2364 16.0209 10.3354 16.9346 10.7138C17.8482 11.0923 18.6291 11.7331 19.1785 12.5554C19.7279 13.3776 20.0212 14.3443 20.0212 15.3332C20.0197 16.6589 19.4924 17.9298 18.555 18.8671C17.6177 19.8045 16.3468 20.3317 15.0212 20.3332Z" fill="#fff"/>
<path d="M13.7161 19.5V19.6H13.8161H14.6604H14.7604V19.5V18.1714H16.2083H16.3083V18.0714V17.3887V17.2887H16.2083H14.7604V16.5538H15.4484C16.3009 16.5538 16.964 16.3508 17.4206 15.9285L17.4213 15.9279C17.8769 15.499 18.1 14.9101 18.1 14.1744C18.1 13.4481 17.894 12.8789 17.4679 12.4837C17.0478 12.0881 16.4115 11.9 15.5797 11.9H13.8161H13.7161V12V15.5555H13H12.9V15.6555V16.4538V16.5538H13H13.7161V17.2887H13H12.9V17.3887V18.0714V18.1714H13H13.7161V19.5ZM16.5941 15.2568L16.5941 15.2568L16.5934 15.2573C16.3036 15.452 15.8852 15.5555 15.3265 15.5555H14.7604V12.8983H15.5047C16.0506 12.8983 16.4312 13.0122 16.6675 13.22C16.9016 13.426 17.0276 13.7476 17.0276 14.2059C17.0276 14.7341 16.8741 15.0725 16.5941 15.2568Z" fill="#fff" stroke="#fff" stroke-width="0.2"/>
<path d="M20.8542 2H17.5208V3.66667H18.6869L15.75 6.01625L12.8935 4.58802C12.7371 4.50981 12.56 4.48281 12.3873 4.51086C12.2147 4.5389 12.0552 4.62056 11.9316 4.74427L8.96281 7.71302L6.95104 7.04271C6.81901 6.99874 6.67807 6.98851 6.54107 7.01294C6.40407 7.03737 6.27536 7.0957 6.16667 7.1826L2 10.5159L3.04167 11.8174L6.85417 8.76729L8.92396 9.45729C9.07078 9.50623 9.22834 9.51332 9.37897 9.47775C9.52959 9.44219 9.66734 9.36538 9.77677 9.25594L12.6854 6.34729L15.4815 7.74531C15.6239 7.81657 15.7837 7.84553 15.9421 7.82877C16.1004 7.812 16.2507 7.75022 16.375 7.65073L20.0208 4.73406V6.16667H21.6875V2.83333C21.6875 2.61232 21.5997 2.40036 21.4434 2.24408C21.2871 2.0878 21.0752 2 20.8542 2V2Z" fill="#fff"/>
</svg>
