<svg width="17" height="17" viewBox="0 0 17 17" fill="none" xmlns="http://www.w3.org/2000/svg">
<path d="M15.8242 5.06374H11.3934V0.632967C11.3934 0.281318 11.1121 0 10.7604 0H5.6967C5.34505 0 5.06374 0.281318 5.06374 0.632967V5.06374H0.632967C0.281318 5.06374 0 5.34505 0 5.6967V10.7604C0 11.1121 0.281318 11.3934 0.632967 11.3934H5.06374V15.8242C5.06374 16.1758 5.34505 16.4571 5.6967 16.4571H10.7604C11.1121 16.4571 11.3934 16.1758 11.3934 15.8242V11.3934H15.8242C16.1758 11.3934 16.4571 11.1121 16.4571 10.7604V5.6967C16.422 5.34505 16.1407 5.06374 15.8242 5.06374ZM15.2264 10.1275H15.1912H10.7604C10.4088 10.1275 10.1275 10.4088 10.1275 10.7604V15.1912H6.32967V10.7604C6.32967 10.4088 6.04835 10.1275 5.6967 10.1275H1.26593V6.32967H5.6967C6.04835 6.32967 6.32967 6.04835 6.32967 5.6967V1.26593H10.1626V5.6967C10.1626 6.04835 10.444 6.32967 10.7956 6.32967H15.2264V10.1275Z" fill="white"/>
</svg>
