<svg width="24" height="24" viewBox="0 0 24 24" fill="none" xmlns="http://www.w3.org/2000/svg">
<path d="M3.49999 0H16.2447L23 6.72902V22.5C23 23.3287 22.328 24 21.5 24H3.49999C2.67196 24 2 23.3287 2 22.5V1.49999C2 0.671265 2.67204 0 3.49999 0Z" fill="#E2574C"/>
<path d="M22.9783 6.75001H17.75C16.922 6.75001 16.25 6.07805 16.25 5.25003V0.0150146L22.9783 6.75001Z" fill="#B53629"/>
<path d="M17.3738 11.3722C17.6251 11.3722 17.7481 11.1532 17.7481 10.9409C17.7481 10.7212 17.6198 10.5089 17.3738 10.5089H15.9428C15.6631 10.5089 15.5071 10.7406 15.5071 10.9964V14.5131C15.5071 14.8267 15.6856 15.0006 15.9271 15.0006C16.1671 15.0006 16.3464 14.8267 16.3464 14.5131V13.5479H17.2119C17.4804 13.5479 17.6146 13.3281 17.6146 13.1099C17.6146 12.8962 17.4804 12.6839 17.2119 12.6839H16.3464V11.3722H17.3738ZM12.5371 10.5089H11.49C11.2058 10.5089 11.004 10.7039 11.004 10.9934V14.5162C11.004 14.8754 11.2942 14.9879 11.502 14.9879H12.6008C13.9012 14.9879 14.76 14.1322 14.76 12.8114C14.7593 11.4149 13.9508 10.5089 12.5371 10.5089ZM12.5873 14.1195H11.9491V11.3774H12.5243C13.3951 11.3774 13.7738 11.9617 13.7738 12.7679C13.7738 13.5225 13.4018 14.1195 12.5873 14.1195ZM8.75182 10.5089H7.71458C7.42132 10.5089 7.25781 10.7024 7.25781 10.9964V14.5131C7.25781 14.8267 7.4453 15.0006 7.69728 15.0006C7.94925 15.0006 8.13674 14.8267 8.13674 14.5131V13.4864H8.78698C9.58947 13.4864 10.2517 12.9179 10.2517 12.0036C10.2518 11.1089 9.61283 10.5089 8.75182 10.5089ZM8.7346 12.6615H8.13682V11.3347H8.7346C9.1036 11.3347 9.33835 11.6227 9.33835 11.9984C9.33757 12.3735 9.1036 12.6615 8.7346 12.6615Z" fill="white"/>
</svg>
