<svg width="24" height="24" viewBox="0 0 24 24" fill="none" xmlns="http://www.w3.org/2000/svg">
<path d="M21.1549 20.8071L18.1708 17.823C18.5999 17.1759 18.8415 16.4226 18.8687 15.6467C18.896 14.8707 18.7078 14.1024 18.3251 13.4268C18.9628 11.7447 19.046 9.90276 18.5627 8.16997C18.0794 6.43718 17.0549 4.90424 15.6387 3.79494C14.2226 2.68564 12.4889 2.05806 10.6908 2.00384C8.89264 1.94961 7.12428 2.47157 5.64382 3.49351C4.16336 4.51545 3.04833 5.98387 2.4615 7.68439C1.87467 9.38491 1.84678 11.2285 2.38189 12.946C2.91701 14.6635 3.98711 16.1649 5.43597 17.2312C6.88484 18.2975 8.6366 18.8727 10.4355 18.8729C10.9439 18.872 11.4511 18.8255 11.9511 18.734C12.6465 19.3168 13.5117 19.6591 14.4176 19.7099C15.3234 19.7606 16.2214 19.5172 16.9776 19.0159L19.9618 22L21.1549 20.8071ZM10.7564 17.1106C10.656 17.1582 10.5466 17.1838 10.4355 17.1857C9.72429 17.1857 8.79141 15.9365 8.28021 13.8115H10.7888C10.5614 14.3308 10.4413 14.8908 10.4357 15.4577C10.4302 16.0246 10.5392 16.5868 10.7564 17.1106ZM12.1256 12.1243H7.9935C7.87526 11.0027 7.87526 9.87169 7.9935 8.75004H12.8776C12.937 9.31045 12.9666 9.87363 12.9662 10.4372C12.9662 10.8465 12.9501 11.2547 12.9198 11.655C12.6387 11.7819 12.3724 11.9393 12.1256 12.1243ZM10.4355 3.68862C11.1468 3.68862 12.0796 4.93784 12.5909 7.0629H8.28021C8.79141 4.93784 9.72429 3.68862 10.4355 3.68862ZM14.5755 8.75004H16.9706C17.2439 9.81409 17.2548 10.9286 17.0022 11.9978C16.3084 11.5297 15.4903 11.28 14.6534 11.2808C14.6466 11.2808 14.6401 11.2808 14.6333 11.2808C14.6464 11.0008 14.6534 10.7188 14.6534 10.4372C14.6534 9.85596 14.6263 9.29246 14.5755 8.75004ZM16.2762 7.0629H14.3265C14.1465 6.1383 13.8468 5.24111 13.4347 4.39405C14.6222 4.98704 15.61 5.91485 16.2762 7.0629ZM7.43632 4.39405C7.02429 5.24111 6.72451 6.1383 6.54456 7.0629H4.59486C5.26101 5.91485 6.24882 4.98704 7.43632 4.39405ZM3.9005 8.75004H6.2956C6.24478 9.29246 6.21768 9.85596 6.21768 10.4372C6.21768 11.0184 6.24478 11.5819 6.2956 12.1243H3.9005C3.61579 11.0176 3.61579 9.85678 3.9005 8.75004ZM4.59486 13.8115H6.54456C6.72451 14.7361 7.02429 15.6333 7.43632 16.4803C6.24882 15.8873 5.26101 14.9595 4.59486 13.8115ZM14.6534 18.0293C14.1529 18.0293 13.6636 17.8809 13.2474 17.6028C12.8312 17.3247 12.5069 16.9295 12.3153 16.4671C12.1238 16.0046 12.0736 15.4958 12.1713 15.0049C12.2689 14.514 12.51 14.063 12.8639 13.7091C13.2178 13.3552 13.6688 13.1142 14.1597 13.0165C14.6506 12.9189 15.1594 12.969 15.6218 13.1605C16.0843 13.3521 16.4795 13.6764 16.7576 14.0926C17.0357 14.5088 17.1841 14.9981 17.1841 15.4986C17.1833 16.1695 16.9164 16.8128 16.442 17.2872C15.9676 17.7617 15.3243 18.0285 14.6534 18.0293Z" fill="#1A1E32"/>
</svg>
