<svg width="24" height="24" viewBox="0 0 24 24" fill="none" xmlns="http://www.w3.org/2000/svg">
<g opacity="0.5">
<path d="M18.4853 8.67999L17.8653 20.24C17.8453 20.66 17.4853 21 17.0653 21H6.92527C6.50527 21 6.14527 20.66 6.12527 20.24L5.50527 8.67999C5.48527 8.23999 5.82528 7.85998 6.26528 7.83998C6.70528 7.81998 7.08527 8.15999 7.10527 8.59999L7.68528 19.4H16.3053L16.8853 8.59999C16.9053 8.15999 17.2853 7.81998 17.7253 7.83998C18.1653 7.85998 18.5053 8.23999 18.4853 8.67999ZM20.6053 5.99999C20.6053 6.43999 20.2453 6.79999 19.8053 6.79999H4.20527C3.76527 6.79999 3.40527 6.43999 3.40527 5.99999C3.40527 5.55999 3.76527 5.19999 4.20527 5.19999H8.60527V3.39999C8.60527 3.01999 8.86526 2.79999 9.24526 2.79999H14.7653C15.1453 2.79999 15.4053 3.01999 15.4053 3.39999V5.19999H19.8053C20.2453 5.19999 20.6053 5.55999 20.6053 5.99999ZM10.0053 5.19999H14.0053V4.19999H10.0053V5.19999ZM10.3453 18.2C10.7453 18.2 11.0453 17.82 11.0453 17.44L10.8453 8.79999C10.8453 8.41999 10.5253 8.09999 10.1253 8.09999C9.74527 8.09999 9.42526 8.41998 9.44526 8.81998L9.64526 17.48C9.64526 17.86 9.96526 18.2 10.3453 18.2ZM13.6453 18.2C14.0253 18.2 14.3453 17.88 14.3453 17.5L14.5453 8.86C14.5453 8.48 14.2453 8.13998 13.8653 8.13998C13.4653 8.13998 13.1653 8.43998 13.1453 8.81998L12.9453 17.46C12.9253 17.86 13.2453 18.2 13.6453 18.2C13.6253 18.2 13.6253 18.2 13.6453 18.2Z" fill="#A7AEB8"/>
</g>
</svg>
