<svg width="24" height="24" viewBox="0 0 24 24" fill="none" xmlns="http://www.w3.org/2000/svg">
<g opacity="0.5">
<path d="M18.4843 8.68005L17.8643 20.24C17.8443 20.66 17.4843 21 17.0643 21H6.92429C6.50429 21 6.14429 20.66 6.12429 20.24L5.5043 8.68005C5.4843 8.24005 5.82431 7.86004 6.26431 7.84004C6.70431 7.82004 7.0843 8.16005 7.1043 8.60005L7.6843 19.4H16.3043L16.8843 8.60005C16.9043 8.16005 17.2843 7.82004 17.7243 7.84004C18.1643 7.86004 18.5043 8.24005 18.4843 8.68005ZM20.6043 6.00005C20.6043 6.44005 20.2443 6.80005 19.8043 6.80005H4.2043C3.7643 6.80005 3.4043 6.44005 3.4043 6.00005C3.4043 5.56005 3.7643 5.20005 4.2043 5.20005H8.6043V3.40005C8.6043 3.02005 8.86429 2.80005 9.24429 2.80005H14.7643C15.1443 2.80005 15.4043 3.02005 15.4043 3.40005V5.20005H19.8043C20.2443 5.20005 20.6043 5.56005 20.6043 6.00005ZM10.0043 5.20005H14.0043V4.20005H10.0043V5.20005ZM10.3443 18.2C10.7443 18.2 11.0443 17.82 11.0443 17.44L10.8443 8.80005C10.8443 8.42005 10.5243 8.10005 10.1243 8.10005C9.74429 8.10005 9.42429 8.42004 9.44429 8.82004L9.64429 17.4801C9.64429 17.8601 9.96429 18.2 10.3443 18.2ZM13.6443 18.2C14.0243 18.2 14.3443 17.88 14.3443 17.5L14.5443 8.86006C14.5443 8.48006 14.2443 8.14004 13.8643 8.14004C13.4643 8.14004 13.1643 8.44004 13.1443 8.82004L12.9443 17.4601C12.9243 17.8601 13.2443 18.2 13.6443 18.2C13.6243 18.2 13.6243 18.2 13.6443 18.2Z" fill="#A7AEB8"/>
</g>
</svg>
