<svg width="16" height="16" viewBox="0 0 16 16" fill="none" xmlns="http://www.w3.org/2000/svg">
<path d="M12.3229 5.7867L11.9095 13.4934C11.8962 13.7734 11.6562 14 11.3762 14H4.61619C4.33619 14 4.09619 13.7734 4.08286 13.4934L3.66953 5.7867C3.6562 5.49337 3.88287 5.24003 4.1762 5.22669C4.46954 5.21336 4.72286 5.44003 4.7362 5.73337L5.12287 12.9334H10.8695L11.2562 5.73337C11.2695 5.44003 11.5229 5.21336 11.8162 5.22669C12.1095 5.24003 12.3362 5.49337 12.3229 5.7867ZM13.7362 4.00003C13.7362 4.29337 13.4962 4.53337 13.2029 4.53337H2.80286C2.50953 4.53337 2.26953 4.29337 2.26953 4.00003C2.26953 3.7067 2.50953 3.4667 2.80286 3.4667H5.7362V2.2667C5.7362 2.01337 5.90953 1.8667 6.16286 1.8667H9.84287C10.0962 1.8667 10.2695 2.01337 10.2695 2.2667V3.4667H13.2029C13.4962 3.4667 13.7362 3.7067 13.7362 4.00003ZM6.66953 3.4667H9.3362V2.80003H6.66953V3.4667ZM6.89619 12.1334C7.16286 12.1334 7.36286 11.88 7.36286 11.6267L7.22953 5.8667C7.22953 5.61337 7.0162 5.40003 6.74953 5.40003C6.4962 5.40003 6.28286 5.61336 6.29619 5.88003L6.42953 11.6534C6.42953 11.9067 6.64286 12.1334 6.89619 12.1334ZM9.09619 12.1334C9.34953 12.1334 9.56286 11.92 9.56286 11.6667L9.69619 5.90671C9.69619 5.65337 9.49621 5.42669 9.24287 5.42669C8.97621 5.42669 8.77619 5.6267 8.76286 5.88003L8.62953 11.64C8.61619 11.9067 8.82953 12.1334 9.09619 12.1334C9.08286 12.1334 9.08286 12.1334 9.09619 12.1334Z" fill="#A7AEB8"/>
</svg>
