<svg width="24" height="24" viewBox="0 0 24 24" fill="none" xmlns="http://www.w3.org/2000/svg">
<path d="M12 1.9C14.6874 1.9 17.2211 2.95372 19.1337 4.86632C21.0463 6.77888 22.1 9.31262 22.1 12C22.1 14.6874 21.0463 17.2211 19.1337 19.1337C17.2211 21.0463 14.6874 22.1 12 22.1C9.31262 22.1 6.77888 21.0463 4.86632 19.1337C2.95372 17.2211 1.9 14.6874 1.9 12C1.9 9.31262 2.95372 6.77888 4.86632 4.86632L12 1.9ZM12 1.9C9.31262 1.9 6.77888 2.95372 4.86632 4.86632L12 1.9ZM12 20.7281C7.18738 20.7281 3.27188 16.8126 3.27188 12C3.27188 7.18738 7.18738 3.27188 12 3.27188C16.8126 3.27188 20.7281 7.18738 20.7281 12C20.7281 16.8126 16.8126 20.7281 12 20.7281Z" fill="white" stroke="white" stroke-width="0.2"/>
<path d="M9.95242 17.0793V17.1793H10.0524H11.3381H11.4381V17.0793V15.2365H13.6953H13.7953V15.1365V14.2079V14.1079H13.6953H11.4381V13.0365H12.5381C13.8265 13.0365 14.8197 12.7628 15.5018 12.1993L15.5018 12.1993L15.5025 12.1987C16.1854 11.6247 16.5238 10.8331 16.5238 9.83647C16.5238 8.852 16.2108 8.08755 15.5736 7.5597C14.9476 7.03323 13.996 6.77933 12.7381 6.77933H10.0524H9.95242V6.87933V11.7508H8.80957H8.70957V11.8508V12.9365V13.0365H8.80957H9.95242V14.1079H8.80957H8.70957V14.2079V15.1365V15.2365H8.80957H9.95242V17.0793ZM14.316 11.336L14.3153 11.3364C13.861 11.609 13.2103 11.7508 12.3524 11.7508H11.4381V8.06504H12.6238C13.4627 8.06504 14.0595 8.22123 14.4335 8.51511C14.803 8.80541 14.9953 9.25324 14.9953 9.87933C14.9953 10.5996 14.7615 11.0739 14.316 11.336L14.316 11.336Z" fill="white" stroke="white" stroke-width="0.2"/>
</svg>
