<svg width="24" height="24" viewBox="0 0 24 24" fill="none" xmlns="http://www.w3.org/2000/svg">
<path d="M12 1.9C14.6874 1.9 17.2211 2.95372 19.1337 4.86632C21.0463 6.77888 22.1 9.31262 22.1 12C22.1 14.6874 21.0463 17.2211 19.1337 19.1337C17.2211 21.0463 14.6874 22.1 12 22.1C9.31262 22.1 6.77888 21.0463 4.86632 19.1337C2.95372 17.2211 1.9 14.6874 1.9 12C1.9 9.31262 2.95372 6.77888 4.86632 4.86632L12 1.9ZM12 1.9C9.31262 1.9 6.77888 2.95372 4.86632 4.86632L12 1.9ZM12 20.7281C7.18738 20.7281 3.27188 16.8126 3.27188 12C3.27188 7.18738 7.18738 3.27188 12 3.27188C16.8126 3.27188 20.7281 7.18738 20.7281 12C20.7281 16.8126 16.8126 20.7281 12 20.7281Z" fill="#1A1E32" stroke="#1A1E32" stroke-width="0.2"/>
<path d="M9.95144 17.0794V17.1794H10.0514H11.3372H11.4372V17.0794V15.2365H13.6943H13.7943V15.1365V14.208V14.108H13.6943H11.4372V13.0365H12.5372C13.8255 13.0365 14.8188 12.7628 15.5008 12.1993L15.5008 12.1993L15.5015 12.1988C16.1844 11.6248 16.5229 10.8331 16.5229 9.83653C16.5229 8.85206 16.2099 8.08761 15.5727 7.55977C14.9467 7.0333 13.995 6.77939 12.7372 6.77939H10.0514H9.95144V6.87939V11.7508H8.80859H8.70859V11.8508V12.9365V13.0365H8.80859H9.95144V14.108H8.80859H8.70859V14.208V15.1365V15.2365H8.80859H9.95144V17.0794ZM14.315 11.3361L14.3143 11.3365C13.86 11.6091 13.2093 11.7508 12.3514 11.7508H11.4372V8.06511H12.6229C13.4618 8.06511 14.0585 8.22129 14.4325 8.51517C14.802 8.80547 14.9943 9.2533 14.9943 9.87939C14.9943 10.5997 14.7605 11.074 14.315 11.3361L14.315 11.3361Z" fill="#1A1E32" stroke="#1A1E32" stroke-width="0.2"/>
</svg>
