<svg width="24" height="24" viewBox="0 0 24 24" fill="none" xmlns="http://www.w3.org/2000/svg">
<path d="M20.8901 19.8296L15.6613 14.6007C16.653 13.3764 17.25 11.8198 17.25 10.125C17.25 6.19631 14.0537 3 10.125 3C6.19627 3 3 6.19631 3 10.125C3 14.0537 6.19631 17.2501 10.125 17.2501C11.8198 17.2501 13.3764 16.653 14.6007 15.6613L19.8296 20.8902C19.9761 21.0366 20.2135 21.0366 20.36 20.8902L20.8902 20.3599C21.0366 20.2135 21.0366 19.976 20.8901 19.8296ZM10.125 15.75C7.02322 15.75 4.50001 13.2268 4.50001 10.125C4.50001 7.02322 7.02322 4.50002 10.125 4.50002C13.2268 4.50002 15.75 7.02322 15.75 10.125C15.75 13.2268 13.2268 15.75 10.125 15.75Z" fill="#FFF"/>
</svg>
