<svg width="44" height="44" viewBox="0 0 44 44" fill="none" xmlns="http://www.w3.org/2000/svg">
<rect x="0.5" y="0.5" width="43" height="43" rx="7.5" fill="white" stroke="#EEF1F7"/>
<path d="M13.5 10H26.2447L33 16.729V32.5C33 33.3287 32.328 34 31.5 34H13.5C12.672 34 12 33.3287 12 32.5V11.5C12 10.6713 12.672 10 13.5 10Z" fill="#E2574C"/>
<path d="M32.9773 16.75H27.749C26.921 16.75 26.249 16.078 26.249 15.25V10.015L32.9773 16.75Z" fill="#B53629"/>
<path d="M27.3748 21.3722C27.6261 21.3722 27.7491 21.1532 27.7491 20.9409C27.7491 20.7212 27.6208 20.5089 27.3748 20.5089H25.9438C25.664 20.5089 25.5081 20.7406 25.5081 20.9964V24.5131C25.5081 24.8267 25.6865 25.0006 25.928 25.0006C26.1681 25.0006 26.3473 24.8267 26.3473 24.5131V23.5479H27.2128C27.4813 23.5479 27.6156 23.3281 27.6156 23.1099C27.6156 22.8962 27.4813 22.6839 27.2128 22.6839H26.3473V21.3722H27.3748ZM22.538 20.5089H21.491C21.2068 20.5089 21.005 20.7039 21.005 20.9934V24.5162C21.005 24.8754 21.2952 24.9879 21.503 24.9879H22.6017C23.9022 24.9879 24.761 24.1322 24.761 22.8114C24.7603 21.4149 23.9518 20.5089 22.538 20.5089ZM22.5883 24.1195H21.95V21.3774H22.5253C23.3961 21.3774 23.7748 21.9617 23.7748 22.7679C23.7748 23.5225 23.4028 24.1195 22.5883 24.1195ZM18.7528 20.5089H17.7156C17.4223 20.5089 17.2588 20.7024 17.2588 20.9964V24.5131C17.2588 24.8267 17.4463 25.0006 17.6983 25.0006C17.9502 25.0006 18.1377 24.8267 18.1377 24.5131V23.4864H18.788C19.5904 23.4864 20.2527 22.9179 20.2527 22.0036C20.2528 21.1089 19.6138 20.5089 18.7528 20.5089ZM18.7356 22.6615H18.1378V21.3347H18.7356C19.1046 21.3347 19.3393 21.6227 19.3393 21.9984C19.3385 22.3735 19.1046 22.6615 18.7356 22.6615Z" fill="white"/>
</svg>
