<svg width="44" height="44" viewBox="0 0 44 44" fill="none" xmlns="http://www.w3.org/2000/svg">
<rect x="0.5" y="0.5" width="43" height="43" rx="7.5" fill="white" stroke="#EEF1F7"/>
<path d="M33.25 30.2502H22.75C22.336 30.2502 22 29.9142 22 29.5002C22 29.0862 22 14.9142 22 14.5002C22 14.0862 22.336 13.7502 22.75 13.7502H33.25C33.664 13.7502 34 14.0862 34 14.5002V29.5002C34 29.9142 33.664 30.2502 33.25 30.2502Z" fill="#ECEFF1"/>
<path d="M25.75 18.2502H22.75C22.336 18.2502 22 17.9142 22 17.5002C22 17.0862 22.336 16.7502 22.75 16.7502H25.75C26.164 16.7502 26.5 17.0862 26.5 17.5002C26.5 17.9142 26.164 18.2502 25.75 18.2502Z" fill="url(#paint0_linear)"/>
<path d="M25.75 21.2502H22.75C22.336 21.2502 22 20.9142 22 20.5002C22 20.0862 22.336 19.7502 22.75 19.7502H25.75C26.164 19.7502 26.5 20.0862 26.5 20.5002C26.5 20.9142 26.164 21.2502 25.75 21.2502Z" fill="url(#paint1_linear)"/>
<path d="M25.75 24.2502H22.75C22.336 24.2502 22 23.9142 22 23.5002C22 23.0862 22.336 22.7502 22.75 22.7502H25.75C26.164 22.7502 26.5 23.0862 26.5 23.5002C26.5 23.9142 26.164 24.2502 25.75 24.2502Z" fill="url(#paint2_linear)"/>
<path d="M25.75 27.2502H22.75C22.336 27.2502 22 26.9142 22 26.5002C22 26.0862 22.336 25.7502 22.75 25.7502H25.75C26.164 25.7502 26.5 26.0862 26.5 26.5002C26.5 26.9142 26.164 27.2502 25.75 27.2502Z" fill="url(#paint3_linear)"/>
<path d="M30.25 18.2502H28.75C28.336 18.2502 28 17.9142 28 17.5002C28 17.0862 28.336 16.7502 28.75 16.7502H30.25C30.664 16.7502 31 17.0862 31 17.5002C31 17.9142 30.664 18.2502 30.25 18.2502Z" fill="url(#paint4_linear)"/>
<path d="M30.25 21.2502H28.75C28.336 21.2502 28 20.9142 28 20.5002C28 20.0862 28.336 19.7502 28.75 19.7502H30.25C30.664 19.7502 31 20.0862 31 20.5002C31 20.9142 30.664 21.2502 30.25 21.2502Z" fill="url(#paint5_linear)"/>
<path d="M30.25 24.2502H28.75C28.336 24.2502 28 23.9142 28 23.5002C28 23.0862 28.336 22.7502 28.75 22.7502H30.25C30.664 22.7502 31 23.0862 31 23.5002C31 23.9142 30.664 24.2502 30.25 24.2502Z" fill="url(#paint6_linear)"/>
<path d="M30.25 27.2502H28.75C28.336 27.2502 28 26.9142 28 26.5002C28 26.0862 28.336 25.7502 28.75 25.7502H30.25C30.664 25.7502 31 26.0862 31 26.5002C31 26.9142 30.664 27.2502 30.25 27.2502Z" fill="url(#paint7_linear)"/>
<path d="M23.2285 10.9231C23.0575 10.7806 22.828 10.7191 22.612 10.7641L10.612 13.0141C10.2565 13.0801 10 13.3891 10 13.7506V30.2506C10 30.6106 10.2565 30.9211 10.612 30.9871L22.612 33.2371C22.657 33.2461 22.7035 33.2506 22.75 33.2506C22.924 33.2506 23.0935 33.1906 23.2285 33.0781C23.401 32.9356 23.5 32.7226 23.5 32.5006V11.5006C23.5 11.2771 23.401 11.0656 23.2285 10.9231Z" fill="url(#paint8_linear)"/>
<path d="M20.3148 24.5072L17.9433 21.7967L20.3418 18.7127C20.5968 18.3857 20.5368 17.9147 20.2113 17.6597C19.8858 17.4047 19.4148 17.4647 19.1583 17.7902L16.9368 20.6462L15.0648 18.5072C14.7903 18.1922 14.3163 18.1637 14.0073 18.4367C13.6953 18.7097 13.6638 19.1837 13.9368 19.4942L15.9993 21.8522L13.9083 24.5402C13.6533 24.8672 13.7133 25.3382 14.0388 25.5932C14.1768 25.6997 14.3403 25.7507 14.5008 25.7507C14.7243 25.7507 14.9448 25.6517 15.0933 25.4612L17.0058 23.0012L19.1868 25.4927C19.3353 25.6637 19.5423 25.7507 19.7508 25.7507C19.9263 25.7507 20.1018 25.6892 20.2443 25.5647C20.5563 25.2917 20.5878 24.8177 20.3148 24.5072Z" fill="#FAFAFA"/>
<defs>
<linearGradient id="paint0_linear" x1="22" y1="16.7502" x2="23.7255" y2="19.8132" gradientUnits="userSpaceOnUse">
<stop stop-color="#226f43"/>
<stop offset="1" stop-color="#2d995f"/>
</linearGradient>
<linearGradient id="paint1_linear" x1="22" y1="19.7502" x2="23.7255" y2="22.8132" gradientUnits="userSpaceOnUse">
<stop stop-color="#226f43"/>
<stop offset="1" stop-color="#2d995f"/>
</linearGradient>
<linearGradient id="paint2_linear" x1="22" y1="22.7502" x2="23.7255" y2="25.8132" gradientUnits="userSpaceOnUse">
<stop stop-color="#226f43"/>
<stop offset="1" stop-color="#2d995f"/>
</linearGradient>
<linearGradient id="paint3_linear" x1="22" y1="25.7502" x2="23.7255" y2="28.8132" gradientUnits="userSpaceOnUse">
<stop stop-color="#226f43"/>
<stop offset="1" stop-color="#2d995f"/>
</linearGradient>
<linearGradient id="paint4_linear" x1="28" y1="16.7502" x2="29.9892" y2="19.1044" gradientUnits="userSpaceOnUse">
<stop stop-color="#226f43"/>
<stop offset="1" stop-color="#2d995f"/>
</linearGradient>
<linearGradient id="paint5_linear" x1="28" y1="19.7502" x2="29.9892" y2="22.1044" gradientUnits="userSpaceOnUse">
<stop stop-color="#226f43"/>
<stop offset="1" stop-color="#2d995f"/>
</linearGradient>
<linearGradient id="paint6_linear" x1="28" y1="22.7502" x2="29.9892" y2="25.1044" gradientUnits="userSpaceOnUse">
<stop stop-color="#226f43"/>
<stop offset="1" stop-color="#2d995f"/>
</linearGradient>
<linearGradient id="paint7_linear" x1="28" y1="25.7502" x2="29.9892" y2="28.1044" gradientUnits="userSpaceOnUse">
<stop stop-color="#226f43"/>
<stop offset="1" stop-color="#2d995f"/>
</linearGradient>
<linearGradient id="paint8_linear" x1="10" y1="10.7496" x2="29.083" y2="17.5244" gradientUnits="userSpaceOnUse">
<stop stop-color="#226f43"/>
<stop offset="1" stop-color="#2d995f"/>
</linearGradient>
</defs>
</svg>
