<svg width="24" height="24" viewBox="0 0 24 24" fill="none" xmlns="http://www.w3.org/2000/svg">
<path d="M16.1667 3.66667L16.1667 20.3333L14.9167 20.3333L14.9167 7C14.9167 6.08081 14.1692 5.33333 13.25 5.33333L10.75 5.33333C9.83081 5.33333 9.08333 6.08081 9.08333 7L9.08333 20.3333L7.83333 20.3333L7.83333 10.3333C7.83333 9.41414 7.08586 8.66667 6.16667 8.66667L3.66667 8.66667C2.74748 8.66667 2 9.41414 2 10.3333L2 21.1667C2 21.6267 2.37333 22 2.83333 22L21.1667 22C21.6267 22 22 21.6267 22 21.1667L22 3.66667C22 2.74748 21.2525 2 20.3333 2L17.8333 2C16.9141 2 16.1667 2.74748 16.1667 3.66667ZM10.75 7L13.25 7L13.25 20.3333L10.75 20.3333L10.75 7ZM6.16667 10.3333L6.16667 20.3333L3.66667 20.3333L3.66667 10.3333L6.16667 10.3333ZM20.3333 3.66667L20.3333 20.3333L17.8333 20.3333L17.8333 3.66667L20.3333 3.66667Z" fill="#A7AEB8"/>
</svg>
