<svg width="24" height="24" viewBox="0 0 24 24" fill="none" xmlns="http://www.w3.org/2000/svg">
<path d="M11.4558 7.12312L8.08666 11.3093C7.92488 11.4734 7.99626 11.6077 8.24545 11.6077H9.65494C9.90404 11.6077 10.1079 11.7843 10.1079 12.0001L10.1124 14.5918V16.6079C10.1124 16.6088 10.1132 16.6097 10.1142 16.6097C10.1152 16.6097 10.116 16.6105 10.116 16.6114C10.1185 16.8256 10.3213 17 10.5689 17L12.947 17C13.1962 17 13.4 16.8234 13.4 16.6077L13.3921 12.0443V11.9987C13.393 11.7836 13.5963 11.6077 13.845 11.6077H15.2545C15.5037 11.6077 15.5751 11.4734 15.4135 11.3093L12.0442 7.12307C11.8823 6.95897 11.6176 6.95897 11.4558 7.12312Z" fill="#219653"/>
</svg>
