<svg width="24" height="24" viewBox="0 0 24 24" fill="none" xmlns="http://www.w3.org/2000/svg">
<path d="M3.62033 19.0637L3.62035 19.0637C4.01443 19.5303 4.44943 19.9664 4.91318 20.3597C6.8883 22.036 9.40506 22.9591 11.9999 22.9591C14.5948 22.9591 17.1115 22.036 19.0865 20.3598C19.5504 19.9664 19.9854 19.5303 20.3797 19.0635L20.3797 19.0634C22.043 17.0919 22.959 14.5835 22.959 12C22.959 9.07281 21.819 6.32059 19.7492 4.25076C17.6794 2.18093 14.9271 1.04094 11.9999 1.04094C9.07269 1.04094 6.32047 2.18093 4.25064 4.25076C2.1808 6.32059 1.04082 9.07281 1.04082 12C1.04082 14.5834 1.95679 17.0919 3.62033 19.0637ZM2.50446 12C2.50446 6.76427 6.76414 2.50458 11.9999 2.50458C17.2357 2.50458 21.4954 6.76427 21.4954 12C21.4954 14.2385 20.7018 16.4118 19.2613 18.1193C18.9194 18.5241 18.542 18.9024 18.1396 19.2438L18.1719 19.2819L18.1396 19.2438C16.4287 20.6958 14.2483 21.4955 11.9999 21.4955C9.75155 21.4955 7.57111 20.6958 5.86011 19.2437L5.82775 19.2818L5.8601 19.2437C5.45781 18.9024 5.08046 18.5242 4.73878 18.1196C3.29798 16.4118 2.50446 14.2385 2.50446 12Z" fill="#A7AEB8" stroke="#A7AEB8" stroke-width="0.1"/>
<path d="M7.85918 7.90915C7.85918 10.1925 9.71672 12.0501 12.0001 12.0501C14.2835 12.0501 16.141 10.1925 16.141 7.90915C16.141 5.62578 14.2835 3.76824 12.0001 3.76824C9.71672 3.76824 7.85918 5.62578 7.85918 7.90915ZM9.32282 7.90915C9.32282 6.43293 10.5239 5.23187 12.0001 5.23187C13.4763 5.23187 14.6774 6.43293 14.6774 7.90915C14.6774 9.38537 13.4763 10.5864 12.0001 10.5864C10.5239 10.5864 9.32282 9.38537 9.32282 7.90915Z" fill="#A7AEB8" stroke="#A7AEB8" stroke-width="0.1"/>
<path d="M18.435 20.5116L18.435 20.5116C18.4948 20.5266 18.5547 20.5337 18.6137 20.5337C18.9413 20.5337 19.2396 20.3122 19.323 19.98C19.4737 19.3798 19.55 18.7596 19.55 18.1364C19.55 16.1384 18.7771 14.2548 17.3737 12.8329C15.9718 11.4125 14.1012 10.6147 12.107 10.5869L12.1069 10.5869L12.097 10.5868L12.0967 10.5868L12.0002 10.5864L11.9998 10.5864L11.9033 10.5869L11.903 10.5869L11.8931 10.5869L11.893 10.5869C9.89882 10.6148 8.02825 11.4125 6.62629 12.833C5.22295 14.2548 4.45 16.1384 4.45 18.1364C4.45 18.7596 4.52635 19.3798 4.67702 19.9799C4.7754 20.372 5.17301 20.61 5.56498 20.5116C5.95697 20.4132 6.19499 20.0156 6.09661 19.6236C5.97523 19.14 5.91364 18.6396 5.91364 18.1364C5.91364 14.8278 8.60375 12.0981 11.9107 12.0505C11.9108 12.0505 11.9108 12.0505 11.9109 12.0505L11.9998 12.05H12.0002L12.0891 12.0505C12.0892 12.0505 12.0892 12.0505 12.0893 12.0505C15.3962 12.0981 18.0864 14.8278 18.0864 18.1364C18.0864 18.6396 18.0248 19.14 17.9034 19.6236C17.805 20.0156 18.043 20.4132 18.435 20.5116Z" fill="#A7AEB8" stroke="#A7AEB8" stroke-width="0.1"/>
</svg>
