<svg width="24" height="24" viewBox="0 0 24 24" fill="none" xmlns="http://www.w3.org/2000/svg">
<path d="M12.9397 12L17.7997 7.13999C17.9089 7.01246 17.9659 6.84841 17.9595 6.68062C17.953 6.51284 17.8834 6.35368 17.7647 6.23495C17.646 6.11622 17.4868 6.04666 17.319 6.04018C17.1512 6.0337 16.9872 6.09077 16.8597 6.19999L11.9997 11.06L7.13966 6.19332C7.01212 6.08411 6.84807 6.02704 6.68029 6.03352C6.5125 6.04 6.35334 6.10955 6.23461 6.22828C6.11589 6.34701 6.04633 6.50617 6.03985 6.67396C6.03337 6.84174 6.09044 7.00579 6.19966 7.13332L11.0597 12L6.19299 16.86C6.1232 16.9198 6.06652 16.9933 6.02651 17.076C5.98649 17.1587 5.964 17.2488 5.96046 17.3406C5.95691 17.4324 5.97238 17.524 6.0059 17.6095C6.03941 17.6951 6.09025 17.7728 6.15522 17.8378C6.22019 17.9027 6.29789 17.9536 6.38344 17.9871C6.46899 18.0206 6.56055 18.0361 6.65236 18.0325C6.74417 18.029 6.83426 18.0065 6.91697 17.9665C6.99968 17.9265 7.07323 17.8698 7.13299 17.8L11.9997 12.94L16.8597 17.8C16.9872 17.9092 17.1512 17.9663 17.319 17.9598C17.4868 17.9533 17.646 17.8838 17.7647 17.765C17.8834 17.6463 17.953 17.4871 17.9595 17.3194C17.9659 17.1516 17.9089 16.9875 17.7997 16.86L12.9397 12Z" fill="#FFF"/>
</svg>
